<svg width="25" height="18" viewBox="0 0 25 18" fill="none" xmlns="http://www.w3.org/2000/svg">
<g clip-path="url(#clip0_3454_138937)">
<g clip-path="url(#clip1_3454_138937)">
<path d="M0.0859375 -0.205078H24.9135V18.204H0.0859375V-0.205078Z" fill="#002664"/>
<path d="M0.0859375 -0.205078H24.9135V7.97674H0.0859375V-0.205078Z" fill="#BB133E"/>
<path d="M24.9138 1.71254V5.12163L12.5 7.97674L24.9138 1.71254ZM18.4914 -0.205078H22.069L12.5 7.97674L18.4914 -0.205078ZM13.6638 -0.205078H15.7328L12.5 7.97674L13.6638 -0.205078Z" fill="#FED700"/>
<path d="M0.0862074 1.71254V5.12163L12.5 7.97674L0.0862074 1.71254ZM6.50862 -0.205078H2.93104L12.5 7.97674L6.50862 -0.205078ZM11.3362 -0.205078H9.26724L12.5 7.97674L11.3362 -0.205078Z" fill="#FED700"/>
<path d="M12.5 3.88672L15.189 12.0685L8.16016 6.97962H16.8403L9.81145 12.0685L12.5 3.88672Z" fill="#CE5C17"/>
</g>
</g>
<defs>
<clipPath id="clip0_3454_138937">
<rect x="0.5" width="24" height="18" rx="4" fill="white"/>
</clipPath>
<clipPath id="clip1_3454_138937">
<rect x="0.0859375" y="-0.205078" width="24.8276" height="18.4091" rx="4" fill="white"/>
</clipPath>
</defs>
</svg>
