<svg width="25" height="18" viewBox="0 0 25 18" fill="none" xmlns="http://www.w3.org/2000/svg">
<g clip-path="url(#clip0_3454_138973)">
<g clip-path="url(#clip1_3454_138973)">
<path fill-rule="evenodd" clip-rule="evenodd" d="M0.0859375 -0.205078H24.9135V18.204H0.0859375V-0.205078Z" fill="white"/>
<path fill-rule="evenodd" clip-rule="evenodd" d="M0.0859375 -0.205078H24.9135V8.99947H0.0859375V-0.205078Z" fill="#BF0A30"/>
<path fill-rule="evenodd" clip-rule="evenodd" d="M0.0859375 -0.205078H8.62042V18.204H0.0859375V-0.205078Z" fill="#002868"/>
<path fill-rule="evenodd" clip-rule="evenodd" d="M1.32454 4.68359C0.807099 4.96926 0.713277 5.0884 0.429688 5.30747L1.05858 5.32048C1.0511 5.37838 0.913806 6.09925 0.900789 6.15012C1.37426 5.83905 1.59892 5.69647 2.24491 5.51655C2.50159 5.44609 2.22473 5.18827 2.19802 5.11969C2.02252 5.19799 1.88758 5.29098 1.75822 5.40492" fill="#FFCA00"/>
<path d="M1.32454 4.68359C0.807099 4.96926 0.713277 5.0884 0.429688 5.30747L1.05858 5.32048C1.0511 5.37838 0.913806 6.09925 0.900789 6.15012C1.37426 5.83905 1.59892 5.69647 2.24491 5.51655C2.50159 5.44609 2.22473 5.18827 2.19802 5.11969C2.02252 5.19799 1.88758 5.29098 1.75822 5.40492" stroke="#002868" stroke-width="0.0426667"/>
<path fill-rule="evenodd" clip-rule="evenodd" d="M1.76589 5.39908C2.7305 4.52548 5.92228 4.54636 6.81125 5.42608C6.83993 5.41588 7.41504 4.45666 7.38636 4.46685C5.64104 3.25807 2.51372 3.46516 1.20117 4.4191L1.21674 4.47604L1.76589 5.39908Z" fill="#FFCA00" stroke="#002868" stroke-width="0.0426667"/>
<path d="M1.93281 5.02066C1.92802 5.00819 1.65234 4.50066 1.65234 4.50066L2.10357 4.8938L1.99858 4.31936L2.2941 4.81088M3.56932 4.14399C3.57128 3.98881 3.69707 3.97836 3.78365 4.00521C3.83443 4.04351 3.8611 4.16832 3.80023 4.23947L3.678 4.34245C3.63573 4.39469 3.58893 4.45433 3.59197 4.51999L3.86812 4.50957M4.07056 3.97828C4.02013 4.00264 4.00316 4.04119 3.99147 4.09826C3.98393 4.16389 3.98729 4.31909 4.00087 4.38324C4.01297 4.43099 4.02499 4.46233 4.06124 4.49366C4.10351 4.51753 4.15028 4.51308 4.17596 4.49666C4.21066 4.47726 4.23481 4.43696 4.24689 4.38921C4.2665 4.32803 4.265 4.14898 4.25139 4.08332C4.23883 4.03957 4.22323 4.00475 4.18801 3.97888C4.14575 3.96097 4.09621 3.96486 4.07056 3.97828Z" stroke="#002868" stroke-width="0.133333" stroke-linecap="round" stroke-linejoin="round"/>
<path d="M5.38867 4.1265C5.44124 4.1048 5.48121 4.07823 5.52503 4.02734L5.44745 4.56769" stroke="#002868" stroke-width="0.133333" stroke-linecap="round" stroke-linejoin="round"/>
<path d="M5.79252 4.09961C5.79882 4.10197 6.05503 4.17561 6.05503 4.17561C5.93008 4.32993 5.82764 4.46701 5.74414 4.64123" stroke="#002868" stroke-width="0.133333" stroke-linecap="round" stroke-linejoin="round"/>
<path d="M6.27896 4.23438L6.53293 4.35822C6.38215 4.46477 6.25816 4.59884 6.14844 4.75562" stroke="#002868" stroke-width="0.133333" stroke-linecap="round" stroke-linejoin="round"/>
<path d="M6.92342 4.55932L6.75707 4.46289L6.60995 4.65983C6.71562 4.63923 6.78665 4.67079 6.81703 4.7656C6.83567 4.90525 6.75101 4.98497 6.65952 4.98746C6.56324 4.9853 6.51355 4.93302 6.5 4.82334" stroke="#002868" stroke-width="0.133333" stroke-linecap="round" stroke-linejoin="round"/>
<path d="M2.43555 4.74108C2.43555 4.74108 2.45161 4.15445 2.45761 4.1551C2.46022 4.13136 2.79267 4.64147 2.79267 4.64147M2.44643 4.53213L2.67228 4.46641" stroke="#002868" stroke-width="0.133333" stroke-linecap="round" stroke-linejoin="round"/>
<path fill-rule="evenodd" clip-rule="evenodd" d="M1.12695 10.2742L1.45696 10.2786L1.44653 8.86515L2.07907 10.286L2.42244 10.286V8.20703L2.08727 8.21148L2.09236 9.5259L1.50113 8.21736L1.13205 8.22177L1.12695 10.2742Z" fill="#FFCA00"/>
<path fill-rule="evenodd" clip-rule="evenodd" d="M7.15974 8.86812H7.5112L7.50696 8.68493C7.497 8.56659 7.45178 8.41666 7.33371 8.30581C7.25511 8.21932 7.16207 8.17048 7.04138 8.13787C6.93893 8.09811 6.68804 8.10982 6.56072 8.18024C6.41014 8.26338 6.28296 8.41165 6.19807 8.65055C6.08668 9.0528 6.137 9.55651 6.20757 9.79355C6.29161 10.0448 6.42343 10.1788 6.59888 10.2634C6.70807 10.2997 6.89858 10.3274 7.07684 10.2796C7.27104 10.207 7.3598 10.0809 7.43693 9.94646C7.48374 9.85545 7.53747 9.68098 7.52811 9.4876L7.16139 9.49202C7.16165 9.56278 7.14713 9.64446 7.12895 9.71522C7.08746 9.81414 7.02337 9.88035 6.86406 9.88032C6.75728 9.88021 6.68511 9.83674 6.62535 9.75883C6.54469 9.68185 6.52355 9.50952 6.51817 9.46082C6.49387 9.24086 6.49318 9.02309 6.5573 8.79359C6.58172 8.70086 6.63027 8.61507 6.69379 8.57329C6.79672 8.51812 6.90322 8.5263 6.96343 8.54369C7.04249 8.56783 7.11543 8.62624 7.1382 8.70358C7.1559 8.77631 7.15872 8.82054 7.15974 8.86812Z" fill="#FFCA00"/>
<path fill-rule="evenodd" clip-rule="evenodd" d="M5.11725 10.3427L4.32943 9.73742L3.52085 10.3389L3.84124 9.3969L3.02148 8.80055L4.00732 8.82361L4.30926 7.85352L4.59815 8.80982L5.60451 8.80662L4.79722 9.37458L5.11725 10.3427Z" fill="white"/>
<path d="M1.76953 5.40022C1.80423 5.43531 1.87283 5.42659 1.96749 5.40885C2.04307 5.39983 2.12918 5.3964 2.19695 5.38867C2.30913 5.39773 2.37339 5.42368 2.32728 5.47629" stroke="#002868" stroke-width="0.0426667"/>
<path fill-rule="evenodd" clip-rule="evenodd" d="M7.25893 4.71484C7.77637 5.00051 7.87019 5.11965 8.15378 5.33872L7.52489 5.35173C7.53238 5.40963 7.66966 6.1305 7.68268 6.18137C7.20921 5.87031 6.98455 5.72772 6.33856 5.5478C6.08188 5.47734 6.36801 5.21495 6.39472 5.14636C6.57021 5.22467 6.71905 5.31765 6.82526 5.43617" fill="#FFCA00"/>
<path d="M7.25893 4.71484C7.77637 5.00051 7.87019 5.11965 8.15378 5.33872L7.52489 5.35173C7.53238 5.40963 7.66966 6.1305 7.68268 6.18137C7.20921 5.87031 6.98455 5.72772 6.33856 5.5478C6.08188 5.47734 6.36801 5.21495 6.39472 5.14636C6.57021 5.22467 6.71905 5.31765 6.82526 5.43617" stroke="#002868" stroke-width="0.0426667"/>
<path d="M6.80692 5.43147C6.74883 5.45802 6.68888 5.44628 6.61634 5.4401C6.5475 5.43019 6.46939 5.41859 6.39209 5.41602C6.26249 5.4169 6.21565 5.4704 6.25655 5.50754" stroke="#002868" stroke-width="0.0426667"/>
<path d="M4.36914 4.17773C4.46931 4.17954 4.5662 4.18343 4.5662 4.18343" stroke="#002868" stroke-width="0.0959999" stroke-linecap="round" stroke-linejoin="round"/>
<path d="M4.67769 4.04883L4.66602 4.52085M4.88553 4.54224C4.91346 4.20345 4.86861 4.19137 4.70307 4.19211" stroke="#002868" stroke-width="0.0960002" stroke-linecap="round" stroke-linejoin="round"/>
<path d="M4.44881 4.03125L4.44144 4.42361C4.44037 4.49805 4.4638 4.51925 4.52929 4.51925" stroke="#002868" stroke-width="0.096" stroke-linecap="round" stroke-linejoin="round"/>
<path d="M2.75586 4.08258L3.0012 4.32866L3.04551 4.59585M3.14143 3.99805L3.00699 4.34044" stroke="#002868" stroke-width="0.133333" stroke-linecap="round" stroke-linejoin="round"/>
<path fill-rule="evenodd" clip-rule="evenodd" d="M1.34602 13.5259C0.828583 13.2465 0.734762 13.13 0.451172 12.9158L1.08007 12.9031C1.07258 12.8465 0.93529 12.1415 0.922273 12.0918C1.39574 12.396 1.62041 12.5354 2.2664 12.7113C2.52307 12.7802 2.24621 13.0324 2.2195 13.0994C2.04401 13.0229 1.90907 12.9319 1.7797 12.8205" fill="#FFCA00"/>
<path d="M1.34602 13.5259C0.828583 13.2465 0.734762 13.13 0.451172 12.9158L1.08007 12.9031C1.07258 12.8465 0.93529 12.1415 0.922273 12.0918C1.39574 12.396 1.62041 12.5354 2.2664 12.7113C2.52307 12.7802 2.24621 13.0324 2.2195 13.0994C2.04401 13.0229 1.90907 12.9319 1.7797 12.8205" stroke="#002868" stroke-width="0.0426667"/>
<path fill-rule="evenodd" clip-rule="evenodd" d="M1.78737 12.8252C2.75198 13.6795 5.94377 13.6591 6.83273 12.7988C6.86141 12.8088 7.43652 13.7468 7.40784 13.7368C5.66252 14.9189 2.5352 14.7164 1.22266 13.7835L1.23823 13.7278L1.78737 12.8252Z" fill="#FFCA00" stroke="#002868" stroke-width="0.0426667"/>
<path d="M1.79102 12.8244C1.82572 12.7901 1.89432 12.7986 1.98898 12.816C2.06455 12.8248 2.15067 12.8281 2.21843 12.8357C2.33061 12.8268 2.39487 12.8014 2.34876 12.75" stroke="#002868" stroke-width="0.0426667"/>
<path fill-rule="evenodd" clip-rule="evenodd" d="M7.27846 13.4946C7.7959 13.2153 7.88972 13.0988 8.17331 12.8845L7.54442 12.8718C7.55191 12.8152 7.6892 12.1103 7.70221 12.0605C7.22874 12.3647 7.00408 12.5042 6.35809 12.6801C6.10142 12.749 6.38754 13.0056 6.41425 13.0726C6.58974 12.9961 6.73858 12.9052 6.84479 12.7893" fill="#FFCA00"/>
<path d="M7.27846 13.4946C7.7959 13.2153 7.88972 13.0988 8.17331 12.8845L7.54442 12.8718C7.55191 12.8152 7.6892 12.1103 7.70221 12.0605C7.22874 12.3647 7.00408 12.5042 6.35809 12.6801C6.10142 12.749 6.38754 13.0056 6.41425 13.0726C6.58974 12.9961 6.73858 12.9052 6.84479 12.7893" stroke="#002868" stroke-width="0.0426667"/>
<path d="M6.82646 12.7951C6.76837 12.7691 6.70841 12.7806 6.63587 12.7867C6.56704 12.7963 6.48893 12.8077 6.41162 12.8102C6.28202 12.8093 6.23518 12.757 6.27608 12.7207" stroke="#002868" stroke-width="0.0426667"/>
<path d="M4.28125 13.9454C4.3228 13.8044 4.41749 13.8217 4.50193 13.841C4.56973 13.887 4.57944 14.0123 4.51467 14.0853L4.39583 14.1747C4.34558 14.2077 4.29569 14.269 4.29758 14.3374L4.58539 14.3318" stroke="#002868" stroke-width="0.133333" stroke-linecap="round" stroke-linejoin="round"/>
<path d="M3.99023 13.9265C4.04237 13.8985 4.05488 13.8874 4.09481 13.8301L4.07253 14.3398" stroke="#002868" stroke-width="0.133333" stroke-linecap="round" stroke-linejoin="round"/>
<path d="M3.35712 13.7031C3.35703 13.7062 3.2694 14.2356 3.26562 14.2572L3.54446 14.2962" stroke="#002868" stroke-width="0.133333" stroke-linecap="round"/>
<path d="M3.0293 14.2278L3.11511 13.6504" stroke="#002868" stroke-width="0.133333" stroke-linecap="round" stroke-linejoin="round"/>
<path d="M2.0332 13.9246L2.24594 13.3906C2.30966 13.4222 2.39176 13.4347 2.46256 13.4971C2.50854 13.5727 2.48736 13.7277 2.35563 13.7424C2.28304 13.7328 2.22239 13.698 2.15875 13.6696" stroke="#002868" stroke-width="0.133333" stroke-linecap="round"/>
<path d="M5.51172 13.8175C5.55379 13.7771 5.5824 13.7363 5.60645 13.6699L5.71522 14.2367" stroke="#002868" stroke-width="0.131597" stroke-linecap="round" stroke-linejoin="round"/>
<path d="M5.75781 13.6543C5.76461 13.6525 6.03627 13.5586 6.03627 13.5586C6.02377 13.7641 6.0199 13.9614 6.04589 14.1438" stroke="#002868" stroke-width="0.133333" stroke-linecap="round" stroke-linejoin="round"/>
<path d="M6.17969 13.5101L6.45821 13.4023C6.44624 13.6107 6.4332 13.8326 6.47193 13.989" stroke="#002868" stroke-width="0.133333" stroke-linecap="round" stroke-linejoin="round"/>
<path d="M6.84168 13.2943C6.80987 13.2422 6.76124 13.2231 6.69291 13.2408C6.62955 13.2958 6.61777 13.3392 6.61328 13.406C6.61589 13.4889 6.63895 13.5707 6.67701 13.6438C6.70311 13.7119 6.75956 13.7606 6.80207 13.7713C6.85021 13.7888 6.88628 13.7843 6.92489 13.7513C6.95435 13.7146 6.96774 13.6529 6.96502 13.6064C6.95586 13.5447 6.92769 13.4888 6.86407 13.4561C6.81483 13.4362 6.79449 13.4321 6.75003 13.4508C6.68254 13.4902 6.67027 13.5632 6.68029 13.6376" stroke="#002868" stroke-width="0.133333" stroke-linecap="round" stroke-linejoin="round"/>
<path d="M4.6543 13.9913C4.75437 13.9867 4.85132 13.9844 4.85132 13.9844" stroke="#002868" stroke-width="0.0959999" stroke-linecap="round" stroke-linejoin="round"/>
<path d="M4.72266 13.8398L4.7409 14.2319C4.7447 14.3062 4.76945 14.3259 4.83482 14.3217" stroke="#002868" stroke-width="0.096" stroke-linecap="round" stroke-linejoin="round"/>
<path d="M4.91797 13.8359L4.97293 14.305M5.19334 14.2959C5.17324 13.9566 5.12712 13.9508 4.96331 13.9743" stroke="#002868" stroke-width="0.0960002" stroke-linecap="round" stroke-linejoin="round"/>
<path d="M1.53516 13.6866C1.53516 13.6866 1.96137 13.2437 1.96556 13.2484C1.98432 13.2318 1.88176 13.8557 1.88176 13.8557M1.69097 13.5324L1.91209 13.6373" stroke="#002868" stroke-width="0.133333" stroke-linecap="round" stroke-linejoin="round"/>
<path d="M2.49609 14.1179C2.49601 14.1147 2.65122 13.5449 2.65122 13.5449C2.71768 13.5609 2.78712 13.5705 2.8506 13.5928C2.89501 13.6072 2.96245 13.6615 2.9364 13.7492C2.92414 13.8024 2.89914 13.8497 2.86109 13.8786" stroke="#002868" stroke-width="0.133333" stroke-linecap="round"/>
<path d="M2.58398 13.8223L2.7961 13.876C2.85324 13.8964 2.86709 13.9458 2.86717 13.9489C2.87779 13.9953 2.84204 14.1951 2.84204 14.1951" stroke="#002868" stroke-width="0.133333" stroke-linecap="round" stroke-linejoin="round"/>
</g>
</g>
<defs>
<clipPath id="clip0_3454_138973">
<rect x="0.5" width="24" height="18" rx="4" fill="white"/>
</clipPath>
<clipPath id="clip1_3454_138973">
<rect x="0.0859375" y="-0.205078" width="24.8276" height="18.4091" rx="4" fill="white"/>
</clipPath>
</defs>
</svg>
