<svg width="25" height="18" viewBox="0 0 25 18" fill="none" xmlns="http://www.w3.org/2000/svg">
<g clip-path="url(#clip0_3454_138981)">
<g clip-path="url(#clip1_3454_138981)">
<mask id="mask0_3454_138981" style="mask-type:luminance" maskUnits="userSpaceOnUse" x="0" y="-1" width="25" height="20">
<path d="M0.0859375 18.204V-0.205078L24.9135 3.24663L19.1841 8.99947L24.9135 14.7523L0.0859375 18.204Z" fill="white"/>
</mask>
<g mask="url(#mask0_3454_138981)">
<path d="M24.9135 3.24663L0.0859375 -0.205078V18.204L24.9135 14.7523" fill="white"/>
<path d="M24.9135 3.24663L0.0859375 -0.205078V18.204L24.9135 14.7523" stroke="#C1133D" stroke-width="4.92308"/>
<path d="M0.0859375 9H24.9135H0.0859375Z" fill="white"/>
<path d="M0.0859375 9H24.9135" stroke="#C1133D" stroke-width="2.46154"/>
</g>
<path d="M0.0859375 -0.205078V18.204L15.6032 8.99947L0.0859375 -0.205078Z" fill="#001C5A"/>
<path d="M4.80613 11.9007C6.38827 11.9007 7.67085 10.6327 7.67085 9.0685C7.67085 7.50433 6.38827 6.23633 4.80613 6.23633C3.22399 6.23633 1.94141 7.50433 1.94141 9.0685C1.94141 10.6327 3.22399 11.9007 4.80613 11.9007Z" fill="white"/>
<path d="M4.8063 10.9559C5.86106 10.9559 6.71611 10.1106 6.71611 9.0678C6.71611 8.02502 5.86106 7.17969 4.8063 7.17969C3.75154 7.17969 2.89648 8.02502 2.89648 9.0678C2.89648 10.1106 3.75154 10.9559 4.8063 10.9559Z" fill="#C1133D"/>
<path d="M12.9875 9.0671L12.4199 8.88477L12.3277 9.16534L12.9875 9.0671Z" fill="white"/>
<path d="M12.9875 9.06767L12.4199 9.25L12.3277 8.96942L12.9875 9.06767Z" fill="white"/>
<path d="M12.5739 9.6283L12.5723 9.03906L12.2755 9.03826L12.5739 9.6283Z" fill="white"/>
<path d="M12.5762 9.62846L12.2246 9.15039L12.4652 8.97771L12.5762 9.62846Z" fill="white"/>
<path d="M12.5762 8.5063L12.2246 8.98438L12.4652 9.15706L12.5762 8.5063Z" fill="white"/>
<path d="M12.5758 8.50647L12.5742 9.0957L12.2774 9.0965L12.5758 8.50647Z" fill="white"/>
<path d="M11.9094 9.41409L12.4766 9.23242L12.3839 8.95118L11.9094 9.41409Z" fill="white"/>
<path d="M11.9095 9.41242L12.2598 8.93555L12.5017 9.10942L11.9095 9.41242Z" fill="white"/>
<path d="M11.9105 8.72149L12.2617 9.19922L12.5027 9.0262L11.9105 8.72149Z" fill="white"/>
<path d="M11.9086 8.72143L12.4766 8.9043L12.3847 9.18434L11.9086 8.72143Z" fill="white"/>
<path d="M9.16917 9.06905L8.60156 8.88672L8.50935 9.1673L9.16917 9.06905Z" fill="white"/>
<path d="M9.16917 9.06962L8.60156 9.25195L8.50935 8.97137L9.16917 9.06962Z" fill="white"/>
<path d="M8.75748 9.63025L8.75586 9.04102L8.45907 9.04022L8.75748 9.63025Z" fill="white"/>
<path d="M8.75787 9.63042L8.40625 9.15234L8.64685 8.97966L8.75787 9.63042Z" fill="white"/>
<path d="M8.75787 8.50826L8.40625 8.98633L8.64685 9.15901L8.75787 8.50826Z" fill="white"/>
<path d="M8.75748 8.50842L8.75586 9.09766L8.45907 9.09845L8.75748 8.50842Z" fill="white"/>
<path d="M8.09107 9.41604L8.6582 9.23438L8.56551 8.95313L8.09107 9.41604Z" fill="white"/>
<path d="M8.09114 9.41438L8.44141 8.9375L8.68335 9.11138L8.09114 9.41438Z" fill="white"/>
<path d="M8.09213 8.72344L8.44336 9.20117L8.68434 9.02815L8.09213 8.72344Z" fill="white"/>
<path d="M8.09021 8.72338L8.6582 8.90625L8.56638 9.18629L8.09021 8.72338Z" fill="white"/>
<path d="M10.992 8.03075L10.4004 7.94336L10.3581 8.23354L10.992 8.03075Z" fill="white"/>
<path d="M10.9925 8.03013L10.4648 8.30273L10.3253 8.04019L10.9925 8.03013Z" fill="white"/>
<path d="M10.6784 8.65329L10.5762 8.07031L10.2841 8.11847L10.6784 8.65329Z" fill="white"/>
<path d="M10.6801 8.65204L10.252 8.23828L10.4592 8.02863L10.6801 8.65204Z" fill="white"/>
<path d="M10.4895 7.54549L10.2246 8.07422L10.492 8.20516L10.4895 7.54549Z" fill="white"/>
<path d="M10.4898 7.54527L10.5898 8.12695L10.2957 8.17641L10.4898 7.54527Z" fill="white"/>
<path d="M9.98546 8.55062L10.5137 8.27734L10.3747 8.01548L9.98546 8.55062Z" fill="white"/>
<path d="M9.98371 8.54978L10.248 8.02148L10.516 8.15287L9.98371 8.54978Z" fill="white"/>
<path d="M9.8658 7.86645L10.293 8.2793L10.5012 8.06872L9.8658 7.86645Z" fill="white"/>
<path d="M9.86614 7.8668L10.457 7.95312L10.4141 8.24437L9.86614 7.8668Z" fill="white"/>
<path d="M10.9905 10.1066L10.4629 9.83398L10.3234 10.0965L10.9905 10.1066Z" fill="white"/>
<path d="M10.992 10.106L10.4004 10.1934L10.3581 9.90318L10.992 10.106Z" fill="white"/>
<path d="M10.4893 10.5937L10.5898 10.0117L10.2962 9.96255L10.4893 10.5937Z" fill="white"/>
<path d="M10.4891 10.5929L10.2246 10.0645L10.4924 9.93324L10.4891 10.5929Z" fill="white"/>
<path d="M10.6798 9.48685L10.252 9.90039L10.4595 10.1103L10.6798 9.48685Z" fill="white"/>
<path d="M10.678 9.4856L10.5762 10.0684L10.2837 10.02L10.678 9.4856Z" fill="white"/>
<path d="M9.86697 10.2705L10.457 10.1855L10.4133 9.89295L9.86697 10.2705Z" fill="white"/>
<path d="M9.86662 10.2695L10.293 9.85742L10.502 10.0688L9.86662 10.2695Z" fill="white"/>
<path d="M9.98477 9.58624L10.25 10.1152L10.5171 9.98456L9.98477 9.58624Z" fill="white"/>
<path d="M9.98475 9.58523L10.5137 9.85938L10.3755 10.1204L9.98475 9.58523Z" fill="white"/>
<path d="M6.75843 12.9262L6.66797 12.3418L6.37446 12.3848L6.75843 12.9262Z" fill="white"/>
<path d="M6.7596 12.9252L6.33984 12.5039L6.55149 12.2978L6.7596 12.9252Z" fill="white"/>
<path d="M6.06864 12.8136L6.60156 12.5508L6.46722 12.2858L6.06864 12.8136Z" fill="white"/>
<path d="M6.06792 12.8119L6.3418 12.2891L6.60774 12.4259L6.06792 12.8119Z" fill="white"/>
<path d="M7.0817 12.3108L6.49219 12.2129L6.44404 12.5027L7.0817 12.3108Z" fill="white"/>
<path d="M7.0819 12.3113L6.54883 12.5742L6.41464 12.3094L7.0819 12.3113Z" fill="white"/>
<path d="M5.95979 12.1262L6.37891 12.5469L6.59119 12.3402L5.95979 12.1262Z" fill="white"/>
<path d="M5.95977 12.1254L6.54883 12.2227L6.50022 12.5132L5.95977 12.1254Z" fill="white"/>
<path d="M6.58909 11.8145L6.31445 12.3379L6.57965 12.4741L6.58909 11.8145Z" fill="white"/>
<path d="M6.58837 11.8147L6.67773 12.3984L6.38314 12.4421L6.58837 11.8147Z" fill="white"/>
<path d="M4.61004 13.377L4.82031 12.8242L4.54146 12.7209L4.61004 13.377Z" fill="white"/>
<path d="M4.60933 13.377L4.45117 12.8086L4.7394 12.7298L4.60933 13.377Z" fill="white"/>
<path d="M4.06148 12.9432L4.6582 12.9707L4.67111 12.6769L4.06148 12.9432Z" fill="white"/>
<path d="M4.0629 12.9436L4.56055 12.6191L4.72539 12.8659L4.0629 12.9436Z" fill="white"/>
<path d="M5.19422 12.9939L4.72852 12.627L4.54156 12.8585L5.19422 12.9939Z" fill="white"/>
<path d="M5.19293 12.9955L4.59766 12.9707L4.61201 12.6742L5.19293 12.9955Z" fill="white"/>
<path d="M4.30542 12.294L4.46484 12.8633L4.75181 12.7853L4.30542 12.294Z" fill="white"/>
<path d="M4.30638 12.2956L4.77344 12.6641L4.58784 12.8942L4.30638 12.2956Z" fill="white"/>
<path d="M5.00751 12.3278L4.50977 12.6523L4.6745 12.899L5.00751 12.3278Z" fill="white"/>
<path d="M5.00808 12.3288L4.79883 12.8809L4.51896 12.7768L5.00808 12.3288Z" fill="white"/>
<path d="M2.5108 12.7357L2.9668 12.3535L2.77456 12.1292L2.5108 12.7357Z" fill="white"/>
<path d="M2.51172 12.738L2.6543 12.1641L2.94314 12.2333L2.51172 12.738Z" fill="white"/>
<path d="M2.24485 12.0948L2.75195 12.4043L2.90942 12.1527L2.24485 12.0948Z" fill="white"/>
<path d="M2.24407 12.096L2.83984 12.0508L2.8615 12.3439L2.24407 12.096Z" fill="white"/>
<path d="M3.20982 12.684L2.98438 12.1387L2.7074 12.2512L3.20982 12.684Z" fill="white"/>
<path d="M3.20821 12.6845L2.70117 12.375L2.85869 12.1233L3.20821 12.6845Z" fill="white"/>
<path d="M2.78093 11.649L2.63867 12.2227L2.92784 12.2921L2.78093 11.649Z" fill="white"/>
<path d="M2.78019 11.6478L3.00586 12.1934L2.7291 12.3057L2.78019 11.6478Z" fill="white"/>
<path d="M3.3768 12.0119L2.78125 12.0566L2.80313 12.3501L3.3768 12.0119Z" fill="white"/>
<path d="M3.37559 12.0107L2.91992 12.3926L2.72736 12.1679L3.37559 12.0107Z" fill="white"/>
<path d="M2.44717 14.8174L2.83203 14.3652L2.60436 14.176L2.44717 14.8174Z" fill="white"/>
<path d="M2.4486 14.8178L2.49219 14.2285L2.78859 14.2488L2.4486 14.8178Z" fill="white"/>
<path d="M2.07641 14.2283L2.62891 14.4492L2.74162 14.175L2.07641 14.2283Z" fill="white"/>
<path d="M2.07638 14.2289L2.65625 14.0859L2.72749 14.3714L2.07638 14.2289Z" fill="white"/>
<path d="M3.12933 14.6485L2.81445 14.1484L2.56041 14.3051L3.12933 14.6485Z" fill="white"/>
<path d="M3.12859 14.6485L2.57617 14.4277L2.68896 14.1534L3.12859 14.6485Z" fill="white"/>
<path d="M2.52908 13.6983L2.48633 14.2871L2.78356 14.3078L2.52908 13.6983Z" fill="white"/>
<path d="M2.53029 13.6967L2.8457 14.1973L2.5922 14.3535L2.53029 13.6967Z" fill="white"/>
<path d="M3.1811 13.9571L2.60156 14.0996L2.67313 14.3855L3.1811 13.9571Z" fill="white"/>
<path d="M3.18134 13.9564L2.79688 14.4082L2.5688 14.2186L3.18134 13.9564Z" fill="white"/>
<path d="M0.659648 13.7233L1.17383 13.4219L1.02243 13.1688L0.659648 13.7233Z" fill="white"/>
<path d="M0.658928 13.7239L0.896484 13.1816L1.16958 13.298L0.658928 13.7239Z" fill="white"/>
<path d="M0.507732 13.0462L0.955078 13.4355L1.15285 13.2136L0.507732 13.0462Z" fill="white"/>
<path d="M0.507937 13.0454L1.10156 13.0996L1.07307 13.3943L0.507937 13.0454Z" fill="white"/>
<path d="M1.35815 13.7881L1.22852 13.2129L0.936448 13.278L1.35815 13.7881Z" fill="white"/>
<path d="M1.35748 13.7878L0.910156 13.3984L1.10795 13.1764L1.35748 13.7878Z" fill="white"/>
<path d="M1.11039 12.6923L0.873047 13.2344L1.14636 13.3509L1.11039 12.6923Z" fill="white"/>
<path d="M1.11047 12.6923L1.24023 13.2676L0.948293 13.3326L1.11047 12.6923Z" fill="white"/>
<path d="M1.63479 13.1482L1.04102 13.0938L1.01268 13.3882L1.63479 13.1482Z" fill="white"/>
<path d="M1.63502 13.1501L1.12109 13.4512L0.969441 13.1978L1.63502 13.1501Z" fill="white"/>
<path d="M0.997291 11.1694L1.58203 11.0566L1.52354 10.7659L0.997291 11.1694Z" fill="white"/>
<path d="M0.995295 11.168L1.40039 10.7363L1.61999 10.9378L0.995295 11.168Z" fill="white"/>
<path d="M1.07954 10.478L1.37109 10.9941L1.63081 10.8512L1.07954 10.478Z" fill="white"/>
<path d="M1.07881 10.4795L1.62109 10.7285L1.49641 10.9952L1.07881 10.4795Z" fill="white"/>
<path d="M1.63307 11.4601L1.70312 10.875L1.40563 10.8391L1.63307 11.4601Z" fill="white"/>
<path d="M1.63128 11.4594L1.33984 10.9434L1.59967 10.8004L1.63128 11.4594Z" fill="white"/>
<path d="M1.76699 10.3451L1.36133 10.7773L1.58036 10.9783L1.76699 10.3451Z" fill="white"/>
<path d="M1.76804 10.3461L1.69727 10.9316L1.40049 10.8961L1.76804 10.3461Z" fill="white"/>
<path d="M2.10821 10.9515L1.56641 10.7031L1.44124 10.9705L2.10821 10.9515Z" fill="white"/>
<path d="M2.10871 10.9509L1.52344 11.0645L1.46548 10.7745L2.10871 10.9509Z" fill="white"/>
<path d="M0.444112 9.06767L1.01172 9.25L1.10393 8.96942L0.444112 9.06767Z" fill="white"/>
<path d="M0.444112 9.0671L1.01172 8.88477L1.10393 9.16534L0.444112 9.0671Z" fill="white"/>
<path d="M0.857756 8.50647L0.859375 9.0957L1.15616 9.0965L0.857756 8.50647Z" fill="white"/>
<path d="M0.855412 8.5063L1.20703 8.98438L0.966433 9.15706L0.855412 8.5063Z" fill="white"/>
<path d="M0.855412 9.62846L1.20703 9.15039L0.966433 8.97771L0.855412 9.62846Z" fill="white"/>
<path d="M0.855803 9.6283L0.857422 9.03906L1.15421 9.03826L0.855803 9.6283Z" fill="white"/>
<path d="M1.52221 8.72068L0.955078 8.90234L1.04777 9.18359L1.52221 8.72068Z" fill="white"/>
<path d="M1.52214 8.72234L1.17188 9.19922L0.929927 9.02534L1.52214 8.72234Z" fill="white"/>
<path d="M1.52116 9.41523L1.16992 8.9375L0.928938 9.11052L1.52116 9.41523Z" fill="white"/>
<path d="M1.52307 9.41529L0.955078 9.23242L1.0469 8.95238L1.52307 9.41529Z" fill="white"/>
<path d="M6.75843 5.20857L6.66797 5.79297L6.37446 5.74997L6.75843 5.20857Z" fill="white"/>
<path d="M6.7596 5.20955L6.33984 5.63086L6.55149 5.83694L6.7596 5.20955Z" fill="white"/>
<path d="M6.06864 5.3212L6.60156 5.58398L6.46722 5.84895L6.06864 5.3212Z" fill="white"/>
<path d="M6.06792 5.3229L6.3418 5.8457L6.60774 5.7089L6.06792 5.3229Z" fill="white"/>
<path d="M7.0817 5.82393L6.49219 5.92188L6.44404 5.63207L7.0817 5.82393Z" fill="white"/>
<path d="M7.0819 5.82351L6.54883 5.56055L6.41464 5.82532L7.0819 5.82351Z" fill="white"/>
<path d="M5.95979 6.00857L6.37891 5.58789L6.59119 5.7946L5.95979 6.00857Z" fill="white"/>
<path d="M5.95977 6.00933L6.54883 5.91211L6.50022 5.62158L5.95977 6.00933Z" fill="white"/>
<path d="M6.58909 6.32028L6.31445 5.79688L6.57965 5.66068L6.58909 6.32028Z" fill="white"/>
<path d="M6.58837 6.32007L6.67773 5.73633L6.38314 5.69267L6.58837 6.32007Z" fill="white"/>
<path d="M4.61004 4.75779L4.82031 5.31055L4.54146 5.41387L4.61004 4.75779Z" fill="white"/>
<path d="M4.60933 4.75776L4.45117 5.32617L4.7394 5.405L4.60933 4.75776Z" fill="white"/>
<path d="M4.06148 5.19153L4.6582 5.16406L4.67111 5.45784L4.06148 5.19153Z" fill="white"/>
<path d="M4.0629 5.19115L4.56055 5.51562L4.72539 5.26886L4.0629 5.19115Z" fill="white"/>
<path d="M5.19422 5.14082L4.72852 5.50781L4.54156 5.27624L5.19422 5.14082Z" fill="white"/>
<path d="M5.19293 5.13928L4.59766 5.16406L4.61201 5.46052L5.19293 5.13928Z" fill="white"/>
<path d="M4.30542 5.84074L4.46484 5.27148L4.75181 5.34948L4.30542 5.84074Z" fill="white"/>
<path d="M4.30638 5.83913L4.77344 5.4707L4.58784 5.24057L4.30638 5.83913Z" fill="white"/>
<path d="M5.00751 5.80701L4.50977 5.48242L4.6745 5.23578L5.00751 5.80701Z" fill="white"/>
<path d="M5.00808 5.80594L4.79883 5.25391L4.51896 5.35795L5.00808 5.80594Z" fill="white"/>
<path d="M2.5108 5.39903L2.9668 5.78125L2.77456 6.00558L2.5108 5.39903Z" fill="white"/>
<path d="M2.51172 5.39681L2.6543 5.9707L2.94314 5.90143L2.51172 5.39681Z" fill="white"/>
<path d="M2.24485 6.04L2.75195 5.73047L2.90942 5.9821L2.24485 6.04Z" fill="white"/>
<path d="M2.24407 6.03881L2.83984 6.08398L2.8615 5.7909L2.24407 6.03881Z" fill="white"/>
<path d="M3.20982 5.45075L2.98438 5.99609L2.7074 5.8836L3.20982 5.45075Z" fill="white"/>
<path d="M3.20821 5.45031L2.70117 5.75977L2.85869 6.01146L3.20821 5.45031Z" fill="white"/>
<path d="M2.78093 6.48578L2.63867 5.91211L2.92784 5.84262L2.78093 6.48578Z" fill="white"/>
<path d="M2.78019 6.48692L3.00586 5.94141L2.7291 5.82909L2.78019 6.48692Z" fill="white"/>
<path d="M3.3768 6.12288L2.78125 6.07812L2.80313 5.78462L3.3768 6.12288Z" fill="white"/>
<path d="M3.37559 6.12407L2.91992 5.74219L2.72736 5.96686L3.37559 6.12407Z" fill="white"/>
<path d="M2.44717 3.31733L2.83203 3.76953L2.60436 3.95878L2.44717 3.31733Z" fill="white"/>
<path d="M2.4486 3.31701L2.49219 3.90625L2.78859 3.88601L2.4486 3.31701Z" fill="white"/>
<path d="M2.07641 3.90643L2.62891 3.68555L2.74162 3.95975L2.07641 3.90643Z" fill="white"/>
<path d="M2.07638 3.90585L2.65625 4.04883L2.72749 3.7634L2.07638 3.90585Z" fill="white"/>
<path d="M3.12933 3.48625L2.81445 3.98633L2.56041 3.82962L3.12933 3.48625Z" fill="white"/>
<path d="M3.12859 3.48624L2.57617 3.70703L2.68896 3.98132L3.12859 3.48624Z" fill="white"/>
<path d="M2.52908 4.43643L2.48633 3.84766L2.78356 3.82695L2.52908 4.43643Z" fill="white"/>
<path d="M2.53029 4.43804L2.8457 3.9375L2.5922 3.78125L2.53029 4.43804Z" fill="white"/>
<path d="M3.1811 4.17763L2.60156 4.03516L2.67313 3.74923L3.1811 4.17763Z" fill="white"/>
<path d="M3.18134 4.17838L2.79688 3.72656L2.5688 3.91619L3.18134 4.17838Z" fill="white"/>
<path d="M0.659648 4.4115L1.17383 4.71289L1.02243 4.96598L0.659648 4.4115Z" fill="white"/>
<path d="M0.658928 4.41085L0.896484 4.95312L1.16958 4.83675L0.658928 4.41085Z" fill="white"/>
<path d="M0.507732 5.08859L0.955078 4.69922L1.15285 4.9212L0.507732 5.08859Z" fill="white"/>
<path d="M0.507937 5.08935L1.10156 5.03516L1.07307 4.74043L0.507937 5.08935Z" fill="white"/>
<path d="M1.35815 4.34669L1.22852 4.92188L0.936448 4.85679L1.35815 4.34669Z" fill="white"/>
<path d="M1.35748 4.34697L0.910156 4.73633L1.10795 4.95833L1.35748 4.34697Z" fill="white"/>
<path d="M1.11039 5.44251L0.873047 4.90039L1.14636 4.78386L1.11039 5.44251Z" fill="white"/>
<path d="M1.11047 5.44245L1.24023 4.86719L0.948293 4.80218L1.11047 5.44245Z" fill="white"/>
<path d="M1.63479 4.98656L1.04102 5.04102L1.01268 4.74655L1.63479 4.98656Z" fill="white"/>
<path d="M1.63502 4.9847L1.12109 4.68359L0.969441 4.93698L1.63502 4.9847Z" fill="white"/>
<path d="M0.997291 6.96541L1.58203 7.07812L1.52354 7.36888L0.997291 6.96541Z" fill="white"/>
<path d="M0.995295 6.96674L1.40039 7.39844L1.61999 7.19695L0.995295 6.96674Z" fill="white"/>
<path d="M1.07954 7.65673L1.37109 7.14062L1.63081 7.28353L1.07954 7.65673Z" fill="white"/>
<path d="M1.07881 7.65525L1.62109 7.40625L1.49641 7.13953L1.07881 7.65525Z" fill="white"/>
<path d="M1.63307 6.67465L1.70312 7.25977L1.40563 7.2957L1.63307 6.67465Z" fill="white"/>
<path d="M1.63128 6.6754L1.33984 7.19141L1.59967 7.33441L1.63128 6.6754Z" fill="white"/>
<path d="M1.76699 7.78966L1.36133 7.35742L1.58036 7.15648L1.76699 7.78966Z" fill="white"/>
<path d="M1.76804 7.78865L1.69727 7.20312L1.40049 7.23864L1.76804 7.78865Z" fill="white"/>
<path d="M2.10821 7.18325L1.56641 7.43164L1.44124 7.16431L2.10821 7.18325Z" fill="white"/>
<path d="M2.10871 7.18388L1.52344 7.07031L1.46548 7.36022L2.10871 7.18388Z" fill="white"/>
</g>
</g>
<defs>
<clipPath id="clip0_3454_138981">
<rect x="0.5" width="24" height="18" rx="4" fill="white"/>
</clipPath>
<clipPath id="clip1_3454_138981">
<rect x="0.0859375" y="-0.205078" width="24.8276" height="18.4091" rx="4" fill="white"/>
</clipPath>
</defs>
</svg>
