<svg width="25" height="18" viewBox="0 0 25 18" fill="none" xmlns="http://www.w3.org/2000/svg">
<g clip-path="url(#clip0_3454_138993)">
<g clip-path="url(#clip1_3454_138993)">
<path d="M23.0515 -0.205078H0.0859375V18.3574H23.0515V-0.205078Z" fill="#CC0000"/>
<path d="M23.3611 -0.205078H23.0508V18.3574H23.3611V-0.205078Z" fill="white"/>
<path d="M24.9131 -0.205078H23.3613V18.3574H24.9131V-0.205078Z" fill="#002D65"/>
<path d="M11.8274 13.9256C14.4558 13.9256 16.5865 11.8191 16.5865 9.22061C16.5865 6.62212 14.4558 4.51562 11.8274 4.51562C9.19907 4.51562 7.06836 6.62212 7.06836 9.22061C7.06836 11.8191 9.19907 13.9256 11.8274 13.9256Z" fill="white"/>
<path d="M11.8266 13.5631C14.2528 13.5631 16.2196 11.6186 16.2196 9.22002C16.2196 6.82141 14.2528 4.87695 11.8266 4.87695C9.4004 4.87695 7.43359 6.82141 7.43359 9.22002C7.43359 11.6186 9.4004 13.5631 11.8266 13.5631Z" fill="#002D65"/>
<path d="M11.7754 9.39453L10.552 11.0573L11.3872 11.6565" fill="white"/>
<path d="M11.7715 9.39453L11.7636 11.4415L10.7343 11.4454" fill="white"/>
<path d="M13.2051 11.3398L11.2347 10.7096L10.9116 11.6884" fill="white"/>
<path d="M13.2051 11.3398L11.2296 11.9771L10.9116 11.0053" fill="white"/>
<path d="M11.7715 13.293L11.7721 11.2423L10.7355 11.2426" fill="white"/>
<path d="M11.7715 13.293L10.5525 11.634L11.3919 11.031" fill="white"/>
<path d="M9.44922 12.5488L11.4236 11.9131L11.1045 10.9398" fill="white"/>
<path d="M9.45117 12.5508L10.6721 10.8902L11.5097 11.4916" fill="white"/>
<path d="M9.45117 10.1426L10.6666 11.7984L11.5097 11.1922" fill="white"/>
<path d="M9.45508 10.1387L11.4245 10.7676L11.1005 11.7477" fill="white"/>
<path d="M11.7051 9.08594L10.8606 7.21181L9.91376 7.62834" fill="white"/>
<path d="M11.7051 9.08594L9.90798 8.05984L10.426 7.17243" fill="white"/>
<path d="M9.2793 9.33789L10.8204 7.96607L10.1259 7.20352" fill="white"/>
<path d="M9.27734 9.33789L9.70791 7.33229L10.7232 7.54596" fill="white"/>
<path d="M8.28711 7.13477L10.084 8.16068L10.6023 7.27309" fill="white"/>
<path d="M8.28711 7.13477L10.3498 6.92112L10.4586 7.94167" fill="white"/>
<path d="M10.0977 5.52344L9.66711 7.52903L10.6824 7.74272" fill="white"/>
<path d="M10.0977 5.52344L10.942 7.39749L9.99508 7.81411" fill="white"/>
<path d="M12.209 6.72852L10.1464 6.94202L10.2553 7.96272" fill="white"/>
<path d="M12.2109 6.72852L10.6698 8.10033L9.97526 7.33777" fill="white"/>
<path d="M12.0078 9.17773L14.0743 9.3978L14.1793 8.38365" fill="white"/>
<path d="M12.0078 9.17969L13.8012 8.15794L14.323 9.04969" fill="white"/>
<path d="M13 6.97852L13.4372 8.98831L14.4459 8.77883" fill="white"/>
<path d="M12.9961 6.98047L14.5415 8.35664L13.8513 9.11484" fill="white"/>
<path d="M15.4219 7.23242L13.6268 8.2561L14.147 9.14593" fill="white"/>
<path d="M15.4238 7.23438L14.582 9.10648L13.6325 8.68792" fill="white"/>
<path d="M15.9316 9.58984L14.3906 8.21819L13.696 8.9809" fill="white"/>
<path d="M15.9316 9.5918L13.8692 9.37856L13.9782 8.35759" fill="white"/>
<path d="M13.8203 10.7969L14.6631 8.924L13.7145 8.50621" fill="white"/>
<path d="M13.8203 10.7969L13.3878 8.79007L14.4011 8.5776" fill="white"/>
</g>
</g>
<defs>
<clipPath id="clip0_3454_138993">
<rect x="0.5" width="24" height="18" rx="4" fill="white"/>
</clipPath>
<clipPath id="clip1_3454_138993">
<rect x="0.0859375" y="-0.205078" width="24.8276" height="18.4091" rx="4" fill="white"/>
</clipPath>
</defs>
</svg>
