<svg width="151" height="37" viewBox="0 0 151 37" fill="none" xmlns="http://www.w3.org/2000/svg">
<path d="M27.5519 16.0426C28.3302 16.0426 28.9612 15.4117 28.9612 14.6334C28.9612 13.8551 28.3302 13.2241 27.5519 13.2241C26.7736 13.2241 26.1426 13.8551 26.1426 14.6334C26.1426 15.4117 26.7736 16.0426 27.5519 16.0426Z" stroke="#B157FF" stroke-width="0.995453" stroke-miterlimit="10"/>
<path d="M29.0319 21.7533C30.0012 21.7533 30.787 20.9675 30.787 19.9981C30.787 19.0287 30.0012 18.2429 29.0319 18.2429C28.0625 18.2429 27.2767 19.0287 27.2767 19.9981C27.2767 20.9675 28.0625 21.7533 29.0319 21.7533Z" fill="#B157FF"/>
<path d="M27.973 15.9344L28.6077 18.3725" stroke="#B157FF" stroke-width="0.995453" stroke-miterlimit="10"/>
<path d="M34.4253 19.92C35.2036 19.92 35.8345 19.289 35.8345 18.5107C35.8345 17.7324 35.2036 17.1015 34.4253 17.1015C33.6469 17.1015 33.016 17.7324 33.016 18.5107C33.016 19.289 33.6469 19.92 34.4253 19.92Z" stroke="#B157FF" stroke-width="0.995453" stroke-miterlimit="10"/>
<path d="M33.1243 18.9318L30.6863 19.5665" stroke="#B157FF" stroke-width="0.995453" stroke-miterlimit="10"/>
<path d="M23.6144 22.8994C24.3927 22.8994 25.0237 22.2684 25.0237 21.4901C25.0237 20.7118 24.3927 20.0809 23.6144 20.0809C22.8361 20.0809 22.2051 20.7118 22.2051 21.4901C22.2051 22.2684 22.8361 22.8994 23.6144 22.8994Z" stroke="#B157FF" stroke-width="0.995453" stroke-miterlimit="10"/>
<path d="M24.9154 21.0691L27.3534 20.4344" stroke="#B157FF" stroke-width="0.995453" stroke-miterlimit="10"/>
<path d="M30.5103 26.7707C31.2886 26.7707 31.9195 26.1397 31.9195 25.3614C31.9195 24.5831 31.2886 23.9521 30.5103 23.9521C29.732 23.9521 29.101 24.5831 29.101 25.3614C29.101 26.1397 29.732 26.7707 30.5103 26.7707Z" stroke="#B157FF" stroke-width="0.995453" stroke-miterlimit="10"/>
<path d="M30.0892 24.0604L29.4545 21.6224" stroke="#B157FF" stroke-width="0.995453" stroke-miterlimit="10"/>
<path d="M22.8503 28.738C23.6286 28.738 24.2596 28.107 24.2596 27.3287C24.2596 26.5504 23.6286 25.9194 22.8503 25.9194C22.072 25.9194 21.441 26.5504 21.441 27.3287C21.441 28.107 22.072 28.738 22.8503 28.738Z" stroke="#B157FF" stroke-width="0.995453" stroke-miterlimit="10"/>
<path d="M27.6918 31.8272C28.6611 31.8272 29.447 31.0414 29.447 30.072C29.447 29.1026 28.6611 28.3168 27.6918 28.3168C26.7224 28.3168 25.9366 29.1026 25.9366 30.072C25.9366 31.0414 26.7224 31.8272 27.6918 31.8272Z" fill="#B157FF"/>
<path d="M24.0685 27.9498L26.2418 29.2222" stroke="#B157FF" stroke-width="0.995453" stroke-miterlimit="10"/>
<path d="M29.829 26.4217L28.5566 28.595" stroke="#B157FF" stroke-width="0.995453" stroke-miterlimit="10"/>
<path d="M24.9199 36.3679C25.6982 36.3679 26.3291 35.7369 26.3291 34.9586C26.3291 34.1803 25.6982 33.5493 24.9199 33.5493C24.1416 33.5493 23.5106 34.1803 23.5106 34.9586C23.5106 35.7369 24.1416 36.3679 24.9199 36.3679Z" stroke="#B157FF" stroke-width="0.995453" stroke-miterlimit="10"/>
<path d="M25.541 33.742L26.8149 31.5687" stroke="#B157FF" stroke-width="0.995453" stroke-miterlimit="10"/>
<path d="M32.5317 34.2247C33.31 34.2247 33.941 33.5937 33.941 32.8154C33.941 32.0371 33.31 31.4061 32.5317 31.4061C31.7534 31.4061 31.1224 32.0371 31.1224 32.8154C31.1224 33.5937 31.7534 34.2247 32.5317 34.2247Z" stroke="#B157FF" stroke-width="0.995453" stroke-miterlimit="10"/>
<path d="M31.3134 32.1943L29.1401 30.9204" stroke="#B157FF" stroke-width="0.995453" stroke-miterlimit="10"/>
<path d="M7.09273 13.1985C7.87105 13.1985 8.502 12.5676 8.502 11.7893C8.502 11.0109 7.87105 10.38 7.09273 10.38C6.31442 10.38 5.68347 11.0109 5.68347 11.7893C5.68347 12.5676 6.31442 13.1985 7.09273 13.1985Z" stroke="#B157FF" stroke-width="0.995453" stroke-miterlimit="10"/>
<path d="M8.57117 18.9077C9.54053 18.9077 10.3264 18.1219 10.3264 17.1525C10.3264 16.1832 9.54053 15.3973 8.57117 15.3973C7.6018 15.3973 6.81598 16.1832 6.81598 17.1525C6.81598 18.1219 7.6018 18.9077 8.57117 18.9077Z" fill="#B157FF"/>
<path d="M7.51392 13.0903L8.14861 15.5283" stroke="#B157FF" stroke-width="0.995453" stroke-miterlimit="10"/>
<path d="M13.9661 17.0759C14.7444 17.0759 15.3754 16.4449 15.3754 15.6666C15.3754 14.8883 14.7444 14.2573 13.9661 14.2573C13.1878 14.2573 12.5568 14.8883 12.5568 15.6666C12.5568 16.4449 13.1878 17.0759 13.9661 17.0759Z" stroke="#B157FF" stroke-width="0.995453" stroke-miterlimit="10"/>
<path d="M12.6651 16.0876L10.2271 16.7223" stroke="#B157FF" stroke-width="0.995453" stroke-miterlimit="10"/>
<path d="M3.15524 20.0554C3.93355 20.0554 4.5645 19.4245 4.5645 18.6462C4.5645 17.8678 3.93355 17.2369 3.15524 17.2369C2.37692 17.2369 1.74597 17.8678 1.74597 18.6462C1.74597 19.4245 2.37692 20.0554 3.15524 20.0554Z" stroke="#B157FF" stroke-width="0.995453" stroke-miterlimit="10"/>
<path d="M4.45618 18.225L6.89419 17.5903" stroke="#B157FF" stroke-width="0.995453" stroke-miterlimit="10"/>
<path d="M10.0512 23.9267C10.8295 23.9267 11.4604 23.2957 11.4604 22.5174C11.4604 21.7391 10.8295 21.1082 10.0512 21.1082C9.27286 21.1082 8.64191 21.7391 8.64191 22.5174C8.64191 23.2957 9.27286 23.9267 10.0512 23.9267Z" stroke="#B157FF" stroke-width="0.995453" stroke-miterlimit="10"/>
<path d="M9.62999 21.2163L8.9953 18.7783" stroke="#B157FF" stroke-width="0.995453" stroke-miterlimit="10"/>
<path d="M16.0056 24.8262C16.7839 24.8262 17.4148 24.1953 17.4148 23.4169C17.4148 22.6386 16.7839 22.0077 16.0056 22.0077C15.2273 22.0077 14.5963 22.6386 14.5963 23.4169C14.5963 24.1953 15.2273 24.8262 16.0056 24.8262Z" stroke="#B157FF" stroke-width="0.995453" stroke-miterlimit="10"/>
<path d="M17.4855 30.5352C18.4548 30.5352 19.2407 29.7494 19.2407 28.7801C19.2407 27.8107 18.4548 27.0249 17.4855 27.0249C16.5161 27.0249 15.7303 27.8107 15.7303 28.7801C15.7303 29.7494 16.5161 30.5352 17.4855 30.5352Z" fill="#B157FF"/>
<path d="M16.4266 24.718L17.0613 27.156" stroke="#B157FF" stroke-width="0.995453" stroke-miterlimit="10"/>
<path d="M21.5779 27.7153L19.1399 28.35" stroke="#B157FF" stroke-width="0.995453" stroke-miterlimit="10"/>
<path d="M13.369 29.8527L15.807 29.218" stroke="#B157FF" stroke-width="0.995453" stroke-miterlimit="10"/>
<path d="M18.964 35.5528C19.7423 35.5528 20.3732 34.9218 20.3732 34.1435C20.3732 33.3652 19.7423 32.7343 18.964 32.7343C18.1856 32.7343 17.5547 33.3652 17.5547 34.1435C17.5547 34.9218 18.1856 35.5528 18.964 35.5528Z" stroke="#B157FF" stroke-width="0.995453" stroke-miterlimit="10"/>
<path d="M18.5428 32.844L17.9081 30.406" stroke="#B157FF" stroke-width="0.995453" stroke-miterlimit="10"/>
<path d="M2.40926 26.0232C3.18758 26.0232 3.81853 25.3922 3.81853 24.6139C3.81853 23.8356 3.18758 23.2046 2.40926 23.2046C1.63095 23.2046 1 23.8356 1 24.6139C1 25.3922 1.63095 26.0232 2.40926 26.0232Z" stroke="#B157FF" stroke-width="0.995453" stroke-miterlimit="10"/>
<path d="M7.22662 29.153C8.19599 29.153 8.98181 28.3672 8.98181 27.3978C8.98181 26.4284 8.19599 25.6426 7.22662 25.6426C6.25726 25.6426 5.47144 26.4284 5.47144 27.3978C5.47144 28.3672 6.25726 29.153 7.22662 29.153Z" fill="#B157FF"/>
<path d="M3.62152 25.2456L5.7843 26.536" stroke="#B157FF" stroke-width="0.995453" stroke-miterlimit="10"/>
<path d="M9.3954 23.7656L8.10345 25.9284" stroke="#B157FF" stroke-width="0.995453" stroke-miterlimit="10"/>
<path d="M4.41561 33.6711C5.19393 33.6711 5.82487 33.0402 5.82487 32.2618C5.82487 31.4835 5.19393 30.8526 4.41561 30.8526C3.6373 30.8526 3.00635 31.4835 3.00635 32.2618C3.00635 33.0402 3.6373 33.6711 4.41561 33.6711Z" stroke="#B157FF" stroke-width="0.995453" stroke-miterlimit="10"/>
<path d="M5.04584 31.0496L6.33779 28.8868" stroke="#B157FF" stroke-width="0.995453" stroke-miterlimit="10"/>
<path d="M12.044 31.5895C12.8223 31.5895 13.4533 30.9585 13.4533 30.1802C13.4533 29.4019 12.8223 28.771 12.044 28.771C11.2657 28.771 10.6348 29.4019 10.6348 30.1802C10.6348 30.9585 11.2657 31.5895 12.044 31.5895Z" stroke="#B157FF" stroke-width="0.995453" stroke-miterlimit="10"/>
<path d="M10.8318 29.55L8.66901 28.2581" stroke="#B157FF" stroke-width="0.995453" stroke-miterlimit="10"/>
<path d="M18.7383 4.41223C19.5166 4.41223 20.1476 3.78128 20.1476 3.00297C20.1476 2.22465 19.5166 1.5937 18.7383 1.5937C17.96 1.5937 17.329 2.22465 17.329 3.00297C17.329 3.78128 17.96 4.41223 18.7383 4.41223Z" stroke="#B157FF" stroke-width="0.995453" stroke-miterlimit="10"/>
<path d="M20.0784 10.1576C21.0477 10.1576 21.8336 9.37176 21.8336 8.4024C21.8336 7.43303 21.0477 6.64721 20.0784 6.64721C19.109 6.64721 18.3232 7.43303 18.3232 8.4024C18.3232 9.37176 19.109 10.1576 20.0784 10.1576Z" fill="#B157FF"/>
<path d="M19.1249 4.31442L19.6964 6.76747" stroke="#B157FF" stroke-width="0.995453" stroke-miterlimit="10"/>
<path d="M25.5079 8.46572C26.2862 8.46572 26.9172 7.83477 26.9172 7.05645C26.9172 6.27814 26.2862 5.64719 25.5079 5.64719C24.7296 5.64719 24.0986 6.27814 24.0986 7.05645C24.0986 7.83477 24.7296 8.46572 25.5079 8.46572Z" stroke="#B157FF" stroke-width="0.995453" stroke-miterlimit="10"/>
<path d="M24.1964 7.44437L21.7433 8.01439" stroke="#B157FF" stroke-width="0.995453" stroke-miterlimit="10"/>
<path d="M14.6248 11.1637C15.4032 11.1637 16.0341 10.5328 16.0341 9.75445C16.0341 8.97614 15.4032 8.34519 14.6248 8.34519C13.8465 8.34519 13.2156 8.97614 13.2156 9.75445C13.2156 10.5328 13.8465 11.1637 14.6248 11.1637Z" stroke="#B157FF" stroke-width="0.995453" stroke-miterlimit="10"/>
<path d="M15.9348 9.36802L18.3879 8.79649" stroke="#B157FF" stroke-width="0.995453" stroke-miterlimit="10"/>
<path d="M21.417 15.2126C22.1953 15.2126 22.8262 14.5816 22.8262 13.8033C22.8262 13.025 22.1953 12.394 21.417 12.394C20.6386 12.394 20.0077 13.025 20.0077 13.8033C20.0077 14.5816 20.6386 15.2126 21.417 15.2126Z" stroke="#B157FF" stroke-width="0.995453" stroke-miterlimit="10"/>
<path d="M21.0304 12.4918L20.4589 10.0387" stroke="#B157FF" stroke-width="0.995453" stroke-miterlimit="10"/>
<path d="M12.8155 3.64198C13.5938 3.64198 14.2248 3.01103 14.2248 2.23272C14.2248 1.4544 13.5938 0.823456 12.8155 0.823456C12.0372 0.823456 11.4062 1.4544 11.4062 2.23272C11.4062 3.01103 12.0372 3.64198 12.8155 3.64198Z" stroke="#B157FF" stroke-width="0.995453" stroke-miterlimit="10"/>
<path d="M9.95337 8.75862C10.9227 8.75862 11.7086 7.9728 11.7086 7.00343C11.7086 6.03407 10.9227 5.24825 9.95337 5.24825C8.984 5.24825 8.19818 6.03407 8.19818 7.00343C8.19818 7.9728 8.984 8.75862 9.95337 8.75862Z" fill="#B157FF"/>
<path d="M12.1642 3.43443L10.8377 5.57614" stroke="#B157FF" stroke-width="0.995453" stroke-miterlimit="10"/>
<path d="M13.548 9.23088L11.4062 7.90434" stroke="#B157FF" stroke-width="0.995453" stroke-miterlimit="10"/>
<path d="M5.13601 5.52186C5.91432 5.52186 6.54527 4.89092 6.54527 4.1126C6.54527 3.33429 5.91432 2.70334 5.13601 2.70334C4.35769 2.70334 3.72675 3.33429 3.72675 4.1126C3.72675 4.89092 4.35769 5.52186 5.13601 5.52186Z" stroke="#B157FF" stroke-width="0.995453" stroke-miterlimit="10"/>
<path d="M6.33771 4.764L8.47943 6.09054" stroke="#B157FF" stroke-width="0.995453" stroke-miterlimit="10"/>
<path d="M7.74097 10.5725L9.06751 8.43082" stroke="#B157FF" stroke-width="0.995453" stroke-miterlimit="10"/>
<path d="M25.523 8.42177C26.3013 8.42177 26.9322 7.79082 26.9322 7.0125C26.9322 6.23419 26.3013 5.60324 25.523 5.60324C24.7447 5.60324 24.1137 6.23419 24.1137 7.0125C24.1137 7.79082 24.7447 8.42177 25.523 8.42177Z" stroke="#B157FF" stroke-width="0.995453" stroke-miterlimit="10"/>
<path d="M30.3749 11.4901C31.3443 11.4901 32.1301 10.7042 32.1301 9.73488C32.1301 8.76551 31.3443 7.97969 30.3749 7.97969C29.4056 7.97969 28.6198 8.76551 28.6198 9.73488C28.6198 10.7042 29.4056 11.4901 30.3749 11.4901Z" fill="#B157FF"/>
<path d="M26.7427 7.62759L28.9221 8.89096" stroke="#B157FF" stroke-width="0.995453" stroke-miterlimit="10"/>
<path d="M33.1123 6.26351C33.8906 6.26351 34.5215 5.63257 34.5215 4.85425C34.5215 4.07594 33.8906 3.44499 33.1123 3.44499C32.334 3.44499 31.703 4.07594 31.703 4.85425C31.703 5.63257 32.334 6.26351 33.1123 6.26351Z" stroke="#B157FF" stroke-width="0.995453" stroke-miterlimit="10"/>
<path d="M32.4971 6.07565L31.2337 8.25497" stroke="#B157FF" stroke-width="0.995453" stroke-miterlimit="10"/>
<path d="M27.6271 16.044C28.4054 16.044 29.0364 15.4131 29.0364 14.6347C29.0364 13.8564 28.4054 13.2255 27.6271 13.2255C26.8488 13.2255 26.2178 13.8564 26.2178 14.6347C26.2178 15.4131 26.8488 16.044 27.6271 16.044Z" stroke="#B157FF" stroke-width="0.995453" stroke-miterlimit="10"/>
<path d="M28.2422 13.4137L29.5056 11.2344" stroke="#B157FF" stroke-width="0.995453" stroke-miterlimit="10"/>
<path d="M35.2284 13.865C36.0067 13.865 36.6376 13.234 36.6376 12.4557C36.6376 11.6774 36.0067 11.0464 35.2284 11.0464C34.4501 11.0464 33.8191 11.6774 33.8191 12.4557C33.8191 13.234 34.4501 13.865 35.2284 13.865Z" stroke="#B157FF" stroke-width="0.995453" stroke-miterlimit="10"/>
<path d="M34.0071 11.8404L31.8278 10.5771" stroke="#B157FF" stroke-width="0.995453" stroke-miterlimit="10"/>
<path d="M18.7729 20.2389C19.7422 20.2389 20.5281 19.4531 20.5281 18.4837C20.5281 17.5144 19.7422 16.7285 18.7729 16.7285C17.8035 16.7285 17.0177 17.5144 17.0177 18.4837C17.0177 19.4531 17.8035 20.2389 18.7729 20.2389Z" fill="#B157FF"/>
<path d="M15.1407 16.3782L17.3201 17.6416" stroke="#B157FF" stroke-width="0.995453" stroke-miterlimit="10"/>
<path d="M20.8951 14.8259L19.6317 17.0037" stroke="#B157FF" stroke-width="0.995453" stroke-miterlimit="10"/>
<path d="M16.0236 24.793C16.8019 24.793 17.4328 24.162 17.4328 23.3837C17.4328 22.6054 16.8019 21.9745 16.0236 21.9745C15.2453 21.9745 14.6143 22.6054 14.6143 23.3837C14.6143 24.162 15.2453 24.793 16.0236 24.793Z" stroke="#B157FF" stroke-width="0.995453" stroke-miterlimit="10"/>
<path d="M16.6402 22.164L17.9036 19.9847" stroke="#B157FF" stroke-width="0.995453" stroke-miterlimit="10"/>
<path d="M22.4051 20.5893L20.2258 19.3259" stroke="#B157FF" stroke-width="0.995453" stroke-miterlimit="10"/>
<path d="M47.2424 5.09338C47.9884 5.09338 48.5945 5.698 48.5945 6.44549V28.3951C48.5945 28.9531 49.0473 29.4043 49.6037 29.4043H57.575C58.2202 29.4043 58.7436 29.9277 58.7436 30.5729C58.7436 31.2181 58.2202 31.7415 57.575 31.7415H47.459C46.5927 31.7415 45.8903 31.0392 45.8903 30.1728V6.44399C45.8903 5.698 46.4964 5.09338 47.2424 5.09338Z" fill="#011D3F"/>
<path d="M78.6207 22.3865H63.0737C62.818 22.3865 62.6195 22.6106 62.6511 22.8633C62.8842 24.7222 63.6663 26.2413 64.9973 27.4205C66.4412 28.7004 68.2641 29.3396 70.469 29.3396C71.7098 29.3396 72.8498 29.1185 73.8891 28.6748C74.608 28.368 75.2607 27.9604 75.8458 27.4535C76.279 27.0775 76.9332 27.1181 77.3107 27.5513L77.4927 27.7619C77.8582 28.1815 77.8251 28.8147 77.4205 29.1967C76.667 29.9096 75.7872 30.4766 74.781 30.8992C73.4514 31.4572 71.988 31.7355 70.3923 31.7355C68.3408 31.7355 66.5224 31.2978 64.9402 30.4255C63.3565 29.5516 62.1217 28.3424 61.2358 26.7978C60.3484 25.2532 59.9062 23.5055 59.9062 21.5548C59.9062 19.6041 60.3304 17.8564 61.1786 16.3118C62.0269 14.7672 63.1925 13.564 64.674 12.7022C66.1554 11.8419 67.8204 11.4102 69.6703 11.4102C71.5188 11.4102 73.1777 11.8419 74.6471 12.7022C76.115 13.564 77.2686 14.7596 78.1048 16.2922C78.9411 17.8248 79.3592 19.5785 79.3592 21.5548L79.3532 21.6902C79.3351 22.0782 79.0118 22.3865 78.6207 22.3865ZM64.8259 15.5673C63.6152 16.7073 62.8902 18.1692 62.6496 19.953C62.6195 20.1756 62.7925 20.3741 63.0181 20.3741H76.2023C76.5106 20.3741 76.7527 20.1019 76.7061 19.7966C76.4459 18.0835 75.7285 16.6743 74.5524 15.5673C73.2469 14.3385 71.6195 13.7249 69.6703 13.7249C67.7452 13.7234 66.1299 14.3385 64.8259 15.5673Z" fill="#011D3F"/>
<path d="M97.5788 13.4722C96.9742 12.8781 96.2839 12.4058 95.5123 12.0494L95.5153 12.0479C95.4898 12.0373 95.4657 12.0268 95.4416 12.0163C95.2371 11.9245 95.025 11.8403 94.8084 11.7651C92.8863 11.0687 91.265 11.1109 89.9023 11.1846C87.4583 11.3169 85.5076 11.9892 84.0623 13.4722C82.6154 14.9551 81.8935 17.1134 81.8935 19.95V30.4284C81.8935 31.1549 82.483 31.7445 83.2095 31.7445C83.9359 31.7445 84.5255 31.1549 84.5255 30.4284V20.2192C84.5255 18.2399 84.9707 16.7013 85.858 15.6034C87.1274 14.3505 88.8345 13.7218 90.9852 13.7218C92.945 13.7218 94.452 14.2768 95.5093 15.3853C96.5666 16.4937 97.0946 18.106 97.0946 20.2192V30.3713C97.0946 31.1293 97.7097 31.7445 98.4677 31.7445C99.2257 31.7445 99.8409 31.1293 99.8409 30.3713V19.9485C99.8424 17.1134 99.0874 14.9536 97.5788 13.4722Z" fill="#011D3F"/>
<path d="M147.754 8.31051C147.39 7.94653 147.207 7.50887 147.207 6.9975C147.207 6.5117 147.389 6.08607 147.754 5.7221C148.118 5.35812 148.568 5.17463 149.103 5.17463C149.637 5.17463 150.087 5.3506 150.453 5.70254C150.816 6.05448 151 6.4741 151 6.9599C151 7.49533 150.818 7.94353 150.453 8.309C150.089 8.67297 149.637 8.85646 149.103 8.85646C148.569 8.85646 148.12 8.67448 147.754 8.31051ZM149.085 11.3983C149.8 11.3983 150.379 11.9773 150.379 12.6917V30.4451C150.379 31.1595 149.8 31.7386 149.085 31.7386C148.371 31.7386 147.792 31.1595 147.792 30.4451V12.6917C147.792 11.9773 148.371 11.3983 149.085 11.3983Z" fill="#011D3F"/>
<path d="M121.196 5.18823C120.45 5.18823 119.847 5.79285 119.847 6.53733V14.6786C117.991 12.6692 115.334 11.4103 112.383 11.4103C106.77 11.4103 102.22 15.96 102.22 21.573C102.22 27.186 106.77 31.7356 112.383 31.7356C117.987 31.7356 122.53 27.201 122.546 21.6001C122.546 21.5955 122.546 21.591 122.546 21.5865V6.53733C122.546 5.79134 121.941 5.18823 121.196 5.18823ZM112.282 29.3096C108.194 29.1923 104.824 26.5001 104.876 21.5369C104.921 17.2444 107.505 13.8664 112.282 13.7641C116.372 13.6769 119.688 16.727 119.688 21.5369C119.688 25.8309 116.778 29.439 112.282 29.3096Z" fill="#011D3F"/>
<path d="M145.047 21.5728C145.047 15.9599 140.497 11.4102 134.884 11.4102C129.271 11.4102 124.722 15.9599 124.722 21.5728C124.722 27.1858 129.271 31.7355 134.884 31.7355C137.834 31.7355 140.487 30.4781 142.344 28.4718V30.3894C142.344 31.1354 142.949 31.7385 143.693 31.7385C144.439 31.7385 145.043 31.1339 145.043 30.3894V21.8676C145.043 21.8601 145.043 21.8541 145.043 21.8466C145.046 21.7548 145.047 21.6646 145.047 21.5728ZM134.784 29.3095C130.696 29.1922 127.325 26.5 127.378 21.5367C127.423 17.2443 130.007 13.8663 134.784 13.764C138.873 13.6768 142.189 16.7269 142.189 21.5367C142.189 25.8307 139.281 29.4388 134.784 29.3095Z" fill="#011D3F"/>
</svg>
