<svg width="32" height="24" viewBox="0 0 32 24" fill="none" xmlns="http://www.w3.org/2000/svg">
<g clip-path="url(#clip0_962_8331)">
<path d="M0 0V24H32V0H0ZM16.32 4C16.3838 3.99843 16.4461 4 16.5111 4C17.5807 4.00002 18.4736 4.31967 19.1867 4.955C19.9064 5.59036 20.2667 6.43317 20.2667 7.485C20.2667 8.20507 20.1352 8.81379 19.8711 9.315C19.6136 9.80917 19.1536 10.3944 18.4933 11.065C17.8397 11.7356 17.4159 12.2903 17.2178 12.735C17.0197 13.1797 16.92 13.6656 16.92 14.195C16.92 14.308 16.9653 14.605 17.0578 15.085H15.1644C15.1512 15.0356 15.09 14.8556 14.9778 14.545C14.8721 14.2344 14.8178 13.963 14.8178 13.73C14.8178 13.2853 14.8744 12.8595 14.9867 12.45C15.1055 12.0406 15.2777 11.658 15.5022 11.305C15.7267 10.945 16.1708 10.3736 16.8311 9.59C17.498 8.80642 17.8311 8.16329 17.8311 7.655C17.8311 6.6667 17.2261 6.17001 16.0178 6.17C15.4301 6.17001 14.8182 6.48673 14.1778 7.115L13.1556 5.07C13.9674 4.39044 15.0223 4.03187 16.32 4ZM16.1733 16.525C16.1872 16.5247 16.2037 16.525 16.2178 16.525C16.6668 16.525 17.0452 16.6962 17.3556 17.035C17.6725 17.3739 17.8311 17.785 17.8311 18.265C17.8311 18.745 17.6725 19.1511 17.3556 19.49C17.0452 19.8288 16.6668 20 16.2178 20C15.7688 20 15.3836 19.8288 15.0667 19.49C14.7497 19.1511 14.5911 18.745 14.5911 18.265C14.5911 17.785 14.7497 17.3739 15.0667 17.035C15.3737 16.7067 15.7424 16.5353 16.1733 16.525Z" fill="#BBBBBB"/>
<path d="M0 8V24H32V8H20.24C20.1908 8.50083 20.0698 8.938 19.8711 9.315C19.6136 9.80917 19.1536 10.3944 18.4933 11.065C17.8397 11.7356 17.4159 12.2903 17.2178 12.735C17.0197 13.1797 16.92 13.6656 16.92 14.195C16.92 14.308 16.9653 14.605 17.0578 15.085H15.1644C15.1512 15.0356 15.09 14.8556 14.9778 14.545C14.8721 14.2344 14.8178 13.963 14.8178 13.73C14.8178 13.2853 14.8744 12.8595 14.9867 12.45C15.1055 12.0406 15.2777 11.658 15.5022 11.305C15.7267 10.945 16.1708 10.3736 16.8311 9.59C17.3552 8.97415 17.6745 8.4458 17.7867 8H0ZM16.1733 16.525C16.1872 16.5247 16.2037 16.525 16.2178 16.525C16.6668 16.525 17.0452 16.6962 17.3556 17.035C17.6725 17.3739 17.8311 17.785 17.8311 18.265C17.8311 18.745 17.6725 19.1511 17.3556 19.49C17.0452 19.8288 16.6668 20 16.2178 20C15.7688 20 15.3836 19.8288 15.0667 19.49C14.7497 19.1511 14.5911 18.745 14.5911 18.265C14.5911 17.785 14.7497 17.3739 15.0667 17.035C15.3737 16.7067 15.7424 16.5353 16.1733 16.525Z" fill="#D4D4D4"/>
<path d="M0 16V24H32V16H0ZM16.1733 16.525C16.1872 16.5247 16.2037 16.525 16.2178 16.525C16.6668 16.525 17.0452 16.6962 17.3556 17.035C17.6725 17.3739 17.8311 17.785 17.8311 18.265C17.8311 18.745 17.6725 19.1512 17.3556 19.49C17.0452 19.8288 16.6668 20 16.2178 20C15.7688 20 15.3836 19.8288 15.0667 19.49C14.7497 19.1512 14.5911 18.745 14.5911 18.265C14.5911 17.785 14.7497 17.3739 15.0667 17.035C15.3737 16.7067 15.7424 16.5353 16.1733 16.525Z" fill="#E3E3E3"/>
</g>
<defs>
<clipPath id="clip0_962_8331">
<rect width="32" height="24" rx="2" fill="white"/>
</clipPath>
</defs>
</svg>
