<svg width="132" height="61" viewBox="0 0 132 61" fill="none" xmlns="http://www.w3.org/2000/svg">
<path d="M42.5605 9H77.1116L101.105 28.5789H96.2107H66.5544L42.5605 9Z" fill="url(#paint0_linear_2423_99341)"/>
<path d="M86.7088 37.9844H72.3125V50.8451H86.7088V37.9844Z" fill="#EEF0F3"/>
<path d="M49.758 37.8887H34.8818V59.771H49.758V37.8887Z" fill="#EEF0F3"/>
<path d="M72.3125 37.9844V39.9039H84.5014V50.8451H86.7088V39.9039V38.6562V37.9844H72.3125Z" fill="#D5DAE1"/>
<path d="M96.69 28.5781H62.043V31.0735V33.6648V33.6664H65.2102V33.6648H96.69V28.5781Z" fill="#EEF0F3"/>
<path d="M49.758 37.9844H36.8013H35.8416H34.8818V59.7708H36.8013V39.9039H49.758V37.9844Z" fill="#D5DAE1"/>
<path d="M17.8945 28.5789L42.5602 9L66.554 28.5789H61.6592L42.5602 13.1269L23.3651 28.5789H17.8945Z" fill="white"/>
<path d="M66.5542 32.4178H61.6595L42.5604 16.9658L23.3653 32.4178H22.9814V28.3869L42.5604 12.8389L66.5542 32.4178Z" fill="#EEF0F3"/>
<path d="M33.1546 16.4861L42.5602 9L66.554 28.5789H61.6592L42.5602 13.1269L23.3651 28.5789H17.8945L28.0679 20.517" stroke="#556987" stroke-width="0.6" stroke-miterlimit="10" stroke-linecap="round" stroke-linejoin="round"/>
<path d="M29.8916 18.9816L30.4675 18.5977" stroke="#556987" stroke-width="0.775" stroke-miterlimit="10" stroke-linecap="round" stroke-linejoin="round"/>
<path d="M42.5605 9H77.1116L101.105 28.5789H96.2107H66.5544L42.5605 9Z" stroke="#556987" stroke-width="0.6" stroke-miterlimit="10" stroke-linecap="round" stroke-linejoin="round"/>
<path d="M42.5605 9V13.1269" stroke="#556987" stroke-width="0.6" stroke-miterlimit="10" stroke-linecap="round" stroke-linejoin="round"/>
<path d="M22.9814 31.1699V59.7705" stroke="#556987" stroke-width="0.6" stroke-miterlimit="10" stroke-linecap="round" stroke-linejoin="round"/>
<path d="M61.5635 28.4834V56.2202" stroke="#556987" stroke-width="0.6" stroke-miterlimit="10" stroke-linecap="round" stroke-linejoin="round"/>
<path d="M96.6904 28.5781V59.7701" stroke="#556987" stroke-width="0.6" stroke-miterlimit="10" stroke-linecap="round" stroke-linejoin="round"/>
<path d="M49.758 37.8887H34.8818V59.771H49.758V37.8887Z" stroke="#556987" stroke-width="0.6" stroke-miterlimit="10" stroke-linecap="round" stroke-linejoin="round"/>
<path d="M36.5137 59.771V37.8887" stroke="#556987" stroke-width="0.6" stroke-miterlimit="10" stroke-linecap="round" stroke-linejoin="round"/>
<path d="M47.6475 48.6377H49.7589" stroke="#556987" stroke-width="0.6" stroke-miterlimit="10" stroke-linecap="round" stroke-linejoin="round"/>
<path d="M86.7088 37.9844H72.3125V50.8451H86.7088V37.9844Z" stroke="#556987" stroke-width="0.775" stroke-miterlimit="10" stroke-linecap="round" stroke-linejoin="round"/>
<path d="M84.502 37.9844V50.8451" stroke="#556987" stroke-width="0.775" stroke-miterlimit="10" stroke-linecap="round" stroke-linejoin="round"/>
<path d="M79.3193 40.96V50.8454" stroke="#556987" stroke-width="0.775" stroke-miterlimit="10" stroke-linecap="round" stroke-linejoin="round"/>
<path d="M13 59.7705H106" stroke="#556987" stroke-width="0.6" stroke-miterlimit="10" stroke-linecap="round" stroke-linejoin="round"/>
<path d="M34.8182 32.4668L49.6943 32.4668L49.6943 24.5968L34.8182 24.5968L34.8182 32.4668Z" fill="#EEF0F3"/>
<path d="M49.758 24.6436V25.7953H36.2255V32.5135H34.8818V25.7953V25.0275V24.6436H49.758Z" fill="#D5DAE1"/>
<path d="M34.8182 32.4668L49.6943 32.4668L49.6943 24.5968L34.8182 24.5968L34.8182 32.4668Z" stroke="#556987" stroke-width="0.6" stroke-miterlimit="10" stroke-linecap="round" stroke-linejoin="round"/>
<path d="M36.5137 24.6436V32.3963" stroke="#556987" stroke-width="0.6" stroke-miterlimit="10" stroke-linecap="round" stroke-linejoin="round"/>
<path d="M42.4648 26.3721V32.3554" stroke="#556987" stroke-width="0.6" stroke-miterlimit="10" stroke-linecap="round" stroke-linejoin="round"/>
<circle cx="104.368" cy="28.2379" r="1.97711" fill="#556987"/>
<path fill-rule="evenodd" clip-rule="evenodd" d="M99 29.085C99.1042 31.3526 101.467 33.1657 104.367 33.1657C107.266 33.1657 109.629 31.3526 109.733 29.085H99Z" fill="#556987"/>
<path d="M90.3 46.2607C90.3 38.6944 96.4337 32.5607 104 32.5607C111.566 32.5607 117.7 38.6944 117.7 46.2607V49.7607C117.7 55.394 113.133 59.9607 107.5 59.9607H100.5C94.8667 59.9607 90.3 55.394 90.3 49.7607V46.2607Z" fill="white" stroke="#556987" stroke-width="0.6"/>
<path d="M92 46.2607C92 39.6333 97.3726 34.2607 104 34.2607C110.627 34.2607 116 39.6333 116 46.2607V49.2607C116 54.2313 111.971 58.2607 107 58.2607H101C96.0294 58.2607 92 54.2313 92 49.2607V46.2607Z" fill="#EEF0F3"/>
<path d="M106.202 45.6876C105.689 45.4285 105.144 45.2311 104.604 45.0264C104.291 44.9079 103.992 44.7697 103.728 44.5773C103.207 44.1973 103.307 43.5805 103.916 43.3362C104.089 43.2671 104.27 43.2449 104.453 43.235C105.16 43.2005 105.832 43.3189 106.472 43.6002C106.79 43.7408 106.895 43.6964 107.003 43.3929C107.117 43.0722 107.211 42.7465 107.316 42.4233C107.387 42.2061 107.3 42.063 107.076 41.9717C106.666 41.8064 106.245 41.688 105.803 41.6238C105.225 41.5424 105.225 41.5399 105.222 41.0095C105.219 40.2987 105.22 40.2618 104.399 40.2618C104.281 40.2618 104.162 40.2594 104.043 40.2618C103.901 40.2607 103.595 40.3334 103.584 40.6862C103.579 40.8441 103.584 41.0021 103.582 41.1624C103.579 41.6312 103.576 41.6238 103.085 41.7867C101.898 42.1815 101.164 42.9217 101.086 44.106C101.016 45.1547 101.615 45.8628 102.556 46.3785C103.137 46.6968 103.779 46.8843 104.394 47.1335C104.634 47.2297 104.864 47.3408 105.063 47.4937C105.654 47.9403 105.546 48.683 104.845 48.9643C104.47 49.1148 104.073 49.1518 103.665 49.1049C103.037 49.0334 102.435 48.8829 101.868 48.6139C101.536 48.456 101.439 48.498 101.326 48.8261C101.229 49.1099 101.142 49.3961 101.056 49.6823C100.94 50.0672 100.983 50.1585 101.385 50.3386C101.898 50.5656 102.446 50.6816 103.004 50.763C103.441 50.8272 103.455 50.8444 103.46 51.259C103.463 51.4465 103.463 51.6365 103.466 51.824C103.468 52.0609 103.593 52.199 103.86 52.204C104.162 52.2089 104.467 52.2089 104.769 52.2015C105.017 52.1966 105.144 52.0732 105.144 51.8437C105.144 51.5871 105.158 51.328 105.147 51.0714C105.133 50.8099 105.258 50.6767 105.533 50.6076C106.167 50.4497 106.707 50.1388 107.122 49.6749C108.277 48.3919 107.837 46.5142 106.202 45.6876Z" fill="#556987"/>
<defs>
<linearGradient id="paint0_linear_2423_99341" x1="61.8243" y1="13.7006" x2="96.8434" y2="26.5173" gradientUnits="userSpaceOnUse">
<stop stop-color="#F7F8F9"/>
<stop offset="1" stop-color="#D5DAE1"/>
</linearGradient>
</defs>
</svg>
