<svg width="132" height="61" viewBox="0 0 132 61" fill="none" xmlns="http://www.w3.org/2000/svg">
<path d="M112.266 29.8648H62.8738L62.4272 29.3289V20.7545L50.0121 10.751H89.7582L112.266 29.8648Z" fill="#DCBBFC"/>
<path d="M49.9228 38.8867H37.2398V60.2335H49.9228V38.8867Z" fill="#EEF0F3"/>
<path d="M49.9228 38.8867H37.2398V40.4944H49.9228V38.8867Z" fill="#D5DAE1"/>
<path d="M107.979 29.8652H62.8738V32.2768V34.7777V60.3223H65.9999V34.7777H107.979V29.8652Z" fill="#D5DAE1"/>
<path d="M55.1929 10.751H89.7586L112.266 29.8648H62.8742H62.4276" stroke="#556987" stroke-width="0.755556" stroke-miterlimit="10" stroke-linecap="round" stroke-linejoin="round"/>
<path d="M62.427 19.5926V25.5769L43.849 10.6609L23.7527 26.8273L23.3954 24.9516V20.7537L43.849 4.49805L62.427 19.5926Z" fill="#D5DAE1"/>
<path d="M18.0365 22.0048L43.8491 1.46191L69.0365 22.0048H63.9454L43.8491 5.83845L23.7528 22.0048H18.0365Z" fill="white"/>
<path d="M43.8049 1.69727V5.92745" stroke="#556987" stroke-width="0.85" stroke-miterlimit="10" stroke-linecap="round" stroke-linejoin="round"/>
<path d="M36.7931 7.08888L43.8491 1.46191L69.0365 22.0048H63.9454L43.8491 5.83845L23.7528 22.0048H18.0365L33.2204 9.85771" stroke="#556987" stroke-width="0.755556" stroke-miterlimit="10" stroke-linecap="round" stroke-linejoin="round"/>
<path d="M34.6494 8.78521L34.917 8.51758" stroke="#556987" stroke-width="0.85" stroke-miterlimit="10" stroke-linecap="round" stroke-linejoin="round"/>
<path d="M23.3954 25.9355V60.3226" stroke="#556987" stroke-width="0.755556" stroke-miterlimit="10" stroke-linecap="round" stroke-linejoin="round"/>
<path d="M62.4275 20.7549V60.3223" stroke="#556987" stroke-width="0.755556" stroke-miterlimit="10" stroke-linecap="round" stroke-linejoin="round"/>
<path d="M107.6 40.7617V58.4465C105.189 57.9106 103.402 55.8563 103.402 53.2661V45.9421C103.313 43.4412 105.189 41.2976 107.6 40.7617Z" fill="#D5DAE1"/>
<path d="M107.979 60.3223V57.5535V39.8687V29.8652" stroke="#556987" stroke-width="0.755556" stroke-miterlimit="10" stroke-linecap="round" stroke-linejoin="round"/>
<path d="M49.9228 38.8867H37.2398V60.2335H49.9228V38.8867Z" stroke="#556987" stroke-width="0.755556" stroke-miterlimit="10" stroke-linecap="round" stroke-linejoin="round"/>
<path d="M47.8686 49.335H49.9229" stroke="#556987" stroke-width="0.755556" stroke-miterlimit="10" stroke-linecap="round" stroke-linejoin="round"/>
<path d="M51.4411 23.0762H35.5427V32.8117H51.4411V23.0762Z" fill="#DCBBFC"/>
<path d="M51.4411 23.0762H35.5427V24.7732H51.4411V23.0762Z" fill="#C288F9"/>
<path d="M51.4411 23.0762H35.5427V32.8117H51.4411V23.0762Z" stroke="#556987" stroke-width="0.755556" stroke-miterlimit="10" stroke-linecap="round" stroke-linejoin="round"/>
<path d="M43.5812 25.666V32.8114" stroke="#556987" stroke-width="0.755556" stroke-miterlimit="10" stroke-linecap="round" stroke-linejoin="round"/>
<path d="M15 60.3232H117" stroke="#556987" stroke-width="0.755556" stroke-miterlimit="10" stroke-linecap="round" stroke-linejoin="round"/>
<path d="M100.484 60.233H71.9511V38.7999C71.9511 38.3072 72.482 37.8145 73.0128 37.8145H78.8522H99.29C99.8209 37.8145 100.352 38.3072 100.352 38.7999L100.484 60.233Z" fill="#EEF0F3"/>
<path d="M98.6871 60.233H100.484L100.352 38.7999C100.352 38.3072 99.8209 37.8145 99.29 37.8145H73.0128C72.482 37.8145 71.9511 38.3072 71.9511 38.7999V39.6008H97.5037C98.0346 39.6008 98.5654 40.0935 98.5654 40.5862L98.6871 60.233Z" fill="#D5DAE1"/>
<path d="M100.484 60.233H71.9511V38.7999C71.9511 38.3072 72.482 37.8145 73.0128 37.8145H78.8522H99.29C99.8209 37.8145 100.352 38.3072 100.352 38.7999L100.484 60.233Z" stroke="#556987" stroke-width="0.755556" stroke-miterlimit="10" stroke-linecap="round" stroke-linejoin="round"/>
<path d="M72.0841 41.5498H100.352" stroke="#556987" stroke-width="0.755556" stroke-miterlimit="10" stroke-linecap="round" stroke-linejoin="round"/>
<path d="M72.0841 56.4971H100.352" stroke="#556987" stroke-width="0.755556" stroke-miterlimit="10" stroke-linecap="round" stroke-linejoin="round"/>
<path d="M72.0841 45.2881H100.352" stroke="#556987" stroke-width="0.755556" stroke-miterlimit="10" stroke-linecap="round" stroke-linejoin="round"/>
<path d="M72.0841 49.0225H100.352" stroke="#556987" stroke-width="0.755556" stroke-miterlimit="10" stroke-linecap="round" stroke-linejoin="round"/>
<path d="M72.0841 52.7607H100.352" stroke="#556987" stroke-width="0.755556" stroke-miterlimit="10" stroke-linecap="round" stroke-linejoin="round"/>
<path d="M111.016 55.0529C108.068 55.0529 105.746 52.6413 105.746 49.7831V42.4592C105.746 39.5117 108.158 37.1895 111.016 37.1895C113.963 37.1895 116.286 39.601 116.286 42.4592V49.7831C116.286 52.6413 113.874 55.0529 111.016 55.0529Z" fill="#EEF0F3" stroke="#556987" stroke-width="0.755556" stroke-miterlimit="10" stroke-linecap="round" stroke-linejoin="round"/>
<path d="M111.016 43.6191V59.8748" stroke="#556987" stroke-width="0.755556" stroke-miterlimit="10" stroke-linecap="round" stroke-linejoin="round"/>
<path d="M111.016 47.8174L113.16 45.6738" stroke="#556987" stroke-width="0.755556" stroke-miterlimit="10" stroke-linecap="round" stroke-linejoin="round"/>
<path d="M111.016 51.4805L108.873 49.3369" stroke="#556987" stroke-width="0.755556" stroke-miterlimit="10" stroke-linecap="round" stroke-linejoin="round"/>
</svg>
