<svg width="132" height="61" viewBox="0 0 132 61" fill="none" xmlns="http://www.w3.org/2000/svg">
<path d="M50.0079 59.9213H49.3586C45.3547 59.9213 42 56.6748 42 52.5627V4.94788C42 3.86572 42.8657 3 43.9479 3H83.2301C84.3122 3 85.178 3.86572 85.178 4.94788V54.0777" fill="white"/>
<path d="M58.0166 3.1084H83.2308C84.3129 3.1084 85.1787 3.97412 85.1787 5.05628V54.1861" stroke="#556987" stroke-width="0.590164" stroke-miterlimit="10" stroke-linecap="round" stroke-linejoin="round"/>
<path d="M50.4414 3.1084H52.8221" stroke="#556987" stroke-width="0.590164" stroke-miterlimit="10" stroke-linecap="round" stroke-linejoin="round"/>
<path d="M50.0079 59.9213H49.3586C45.3547 59.9213 42 56.6748 42 52.5627V4.94788C42 3.86572 42.8657 3 43.9479 3H46.545" stroke="#556987" stroke-width="0.590164" stroke-miterlimit="10" stroke-linecap="round" stroke-linejoin="round"/>
<path d="M53.5798 57.5402C53.3634 57.7567 53.147 58.0813 52.9305 58.2977C51.8484 59.3799 50.4416 60.0292 48.8184 60.0292H91.347C92.9702 60.0292 94.3771 59.3799 95.4592 58.2977C96.5414 57.2156 97.0824 55.8088 97.0824 54.1855H69.2711C69.2711 54.1855 64.0767 54.1855 64.1849 54.1855H54.7702" fill="#EEF0F3"/>
<path d="M53.5798 57.5402C53.3634 57.7567 53.147 58.0813 52.9305 58.2977C51.8484 59.3799 50.4416 60.0292 48.8184 60.0292H91.347C92.9702 60.0292 94.3771 59.3799 95.4592 58.2977C96.5414 57.2156 97.0824 55.8088 97.0824 54.1855H69.2711C69.2711 54.1855 64.0767 54.1855 64.1849 54.1855H54.7702" stroke="#556987" stroke-width="0.590164" stroke-miterlimit="10" stroke-linecap="round" stroke-linejoin="round"/>
<path d="M71.7587 21.7207H58.4482" stroke="#556987" stroke-width="0.501399" stroke-miterlimit="10" stroke-linecap="round" stroke-linejoin="round"/>
<path d="M49.791 34.8154H63.1015" stroke="#556987" stroke-width="0.501399" stroke-miterlimit="10" stroke-linecap="round" stroke-linejoin="round"/>
<path d="M54.1196 21.7207H49.791" stroke="#556987" stroke-width="0.501399" stroke-miterlimit="10" stroke-linecap="round" stroke-linejoin="round"/>
<path d="M67.4307 34.8154H71.7593" stroke="#556987" stroke-width="0.501399" stroke-miterlimit="10" stroke-linecap="round" stroke-linejoin="round"/>
<path d="M78.2517 25.9414H70.0273" stroke="#556987" stroke-width="0.501399" stroke-miterlimit="10" stroke-linecap="round" stroke-linejoin="round"/>
<path d="M66.1315 25.9414H49.791" stroke="#556987" stroke-width="0.501399" stroke-miterlimit="10" stroke-linecap="round" stroke-linejoin="round"/>
<path d="M71.7592 30.0537H62.7773" stroke="#556987" stroke-width="0.501399" stroke-miterlimit="10" stroke-linecap="round" stroke-linejoin="round"/>
<path d="M58.8811 30.0537H49.791" stroke="#556987" stroke-width="0.501399" stroke-miterlimit="10" stroke-linecap="round" stroke-linejoin="round"/>
<path d="M55.6349 14.3635V15.6621H51.0898V8.73633H52.6049V14.3635H55.6349ZM60.6128 11.9828V11.7664C60.6128 11.2253 60.5046 10.9006 60.1799 10.576C59.9635 10.2513 59.6389 10.1431 59.206 10.1431C58.7731 10.1431 58.4485 10.2513 58.2321 10.576C58.0156 10.9006 57.9074 11.3335 57.9074 11.7664V12.9567C57.9074 13.4978 58.0156 13.8225 58.2321 14.1471C58.4485 14.4717 58.7731 14.58 59.206 14.58C59.4224 14.58 59.6389 14.58 59.7471 14.4717C59.8553 14.3635 60.0717 14.2553 60.1799 14.1471C60.3964 13.8225 60.6128 13.3896 60.6128 12.9567V11.9828ZM58.1238 14.3635C57.7992 14.0389 57.691 13.606 57.691 13.0649V11.8746C57.691 11.3335 57.7992 10.9006 58.1238 10.576C58.3403 10.2513 58.7731 10.0349 59.206 10.0349C59.6389 10.0349 60.0717 10.1431 60.2882 10.4678C59.9635 10.2513 59.6389 10.0349 59.206 10.0349C58.7731 10.0349 58.3403 10.1431 58.1238 10.576C57.9074 11.0089 57.691 11.2253 57.691 11.7664V12.9567C57.691 13.4978 57.7992 13.9307 58.1238 14.3635ZM62.1278 12.9567C62.1278 13.8225 61.9114 14.58 61.2621 15.121C60.721 15.6621 59.9635 15.9868 59.206 15.9868C58.3403 15.9868 57.691 15.6621 57.1499 15.121C56.6088 14.58 56.3924 13.8225 56.3924 12.9567V11.7664C56.3924 10.9006 56.6088 10.1431 57.1499 9.60205C57.691 9.06097 58.3403 8.73633 59.206 8.73633C60.0717 8.73633 60.721 9.06097 61.2621 9.60205C61.8032 10.1431 62.1278 10.9006 62.1278 11.7664V12.9567ZM61.1539 14.9046C61.695 14.3635 61.9114 13.7142 61.9114 12.9567C61.9114 13.7142 61.695 14.4717 61.1539 14.9046C60.6128 15.4457 59.9635 15.6621 59.206 15.6621C58.4485 15.6621 57.9074 15.4457 57.4746 15.0128C57.9074 15.4457 58.5567 15.6621 59.206 15.6621C59.9635 15.7703 60.6128 15.4457 61.1539 14.9046ZM64.5086 15.7703L65.0496 14.2553H67.3222L67.8632 15.7703H69.4865L66.8893 8.84454H65.5907L62.9935 15.7703H64.5086ZM65.4825 12.8485L66.1318 10.9006L66.7811 12.8485H65.4825ZM75.6547 15.7703H74.2479L71.6508 11.4417V15.6621H70.1358V8.73633H71.5426L74.1397 13.0649V8.73633H75.6547V15.7703Z" fill="#556987"/>
<path d="M49.9004 46.5034C51.4154 45.8541 53.1469 45.0966 54.0126 43.4734C54.3372 42.9323 54.4454 42.283 54.3372 41.6337C54.3372 41.0927 53.9044 40.4434 53.2551 40.4434C52.1729 40.5516 51.7401 41.7419 51.7401 42.8241C51.7401 43.5816 51.9565 44.4473 52.2811 45.2048C52.4976 45.8541 52.8222 46.5034 53.4715 46.8281C53.7961 47.0445 54.229 47.0445 54.6619 47.0445C55.9605 46.9363 57.1508 45.9623 58.0165 44.9884C58.0165 44.9884 58.0165 47.802 62.4534 47.2609" stroke="#556987" stroke-width="0.501399" stroke-miterlimit="10" stroke-linecap="round" stroke-linejoin="round"/>
</svg>
