<svg width="132" height="61" viewBox="0 0 132 61" fill="none" xmlns="http://www.w3.org/2000/svg">
<path d="M50.0079 59.9213H49.3586C45.3547 59.9213 42 56.6748 42 52.5627V4.94788C42 3.86572 42.8657 3 43.9479 3H83.2301C84.3122 3 85.178 3.86572 85.178 4.94788V54.0777" fill="white"/>
<path d="M58.0161 3.1084H83.2303C84.3125 3.1084 85.1782 3.97412 85.1782 5.05628V54.1861" stroke="#556987" stroke-width="0.590164" stroke-miterlimit="10" stroke-linecap="round" stroke-linejoin="round"/>
<path d="M50.441 3.1084H52.8218" stroke="#556987" stroke-width="0.590164" stroke-miterlimit="10" stroke-linecap="round" stroke-linejoin="round"/>
<path d="M50.0079 59.9213H49.3586C45.3547 59.9213 42 56.6748 42 52.5627V4.94788C42 3.86572 42.8657 3 43.9479 3H46.545" stroke="#556987" stroke-width="0.590164" stroke-miterlimit="10" stroke-linecap="round" stroke-linejoin="round"/>
<path d="M53.5795 57.5402C53.3631 57.7567 53.1467 58.0813 52.9302 58.2977C51.8481 59.3799 50.4413 60.0292 48.8181 60.0292H91.3467C92.9699 60.0292 94.3767 59.3799 95.4589 58.2977C96.5411 57.2156 97.0821 55.8088 97.0821 54.1855H69.2708C69.2708 54.1855 64.0764 54.1855 64.1846 54.1855H54.7699" fill="#DCBBFC"/>
<path d="M53.5795 57.5402C53.3631 57.7567 53.1467 58.0813 52.9302 58.2977C51.8481 59.3799 50.4413 60.0292 48.8181 60.0292H91.3467C92.9699 60.0292 94.3767 59.3799 95.4589 58.2977C96.5411 57.2156 97.0821 55.8088 97.0821 54.1855H69.2708C69.2708 54.1855 64.0764 54.1855 64.1846 54.1855H54.7699" stroke="#556987" stroke-width="0.590164" stroke-miterlimit="10" stroke-linecap="round" stroke-linejoin="round"/>
<path d="M71.7589 21.7207H58.4484" stroke="#556987" stroke-width="0.501399" stroke-miterlimit="10" stroke-linecap="round" stroke-linejoin="round"/>
<path d="M49.791 34.8154H63.1015" stroke="#556987" stroke-width="0.501399" stroke-miterlimit="10" stroke-linecap="round" stroke-linejoin="round"/>
<path d="M54.1197 21.7207H49.7911" stroke="#C288F9" stroke-width="0.501399" stroke-miterlimit="10" stroke-linecap="round" stroke-linejoin="round"/>
<path d="M67.4306 34.8154H71.7592" stroke="#556987" stroke-width="0.501399" stroke-miterlimit="10" stroke-linecap="round" stroke-linejoin="round"/>
<path d="M78.2521 25.9414H70.0277" stroke="#556987" stroke-width="0.501399" stroke-miterlimit="10" stroke-linecap="round" stroke-linejoin="round"/>
<path d="M66.1316 25.9414H49.7911" stroke="#556987" stroke-width="0.501399" stroke-miterlimit="10" stroke-linecap="round" stroke-linejoin="round"/>
<path d="M71.759 30.0537H62.7772" stroke="#556987" stroke-width="0.501399" stroke-miterlimit="10" stroke-linecap="round" stroke-linejoin="round"/>
<path d="M58.8812 30.0537H49.7911" stroke="#556987" stroke-width="0.501399" stroke-miterlimit="10" stroke-linecap="round" stroke-linejoin="round"/>
<path d="M55.6351 14.3635V15.6621H51.0901V8.73633H52.6051V14.3635H55.6351ZM60.613 11.9828V11.7664C60.613 11.2253 60.5048 10.9006 60.1802 10.576C59.9638 10.2513 59.6391 10.1431 59.2062 10.1431C58.7734 10.1431 58.4487 10.2513 58.2323 10.576C58.0159 10.9006 57.9077 11.3335 57.9077 11.7664V12.9567C57.9077 13.4978 58.0159 13.8225 58.2323 14.1471C58.4487 14.4717 58.7734 14.58 59.2062 14.58C59.4227 14.58 59.6391 14.58 59.7473 14.4717C59.8555 14.3635 60.072 14.2553 60.1802 14.1471C60.3966 13.8225 60.613 13.3896 60.613 12.9567V11.9828ZM58.1241 14.3635C57.7994 14.0389 57.6912 13.606 57.6912 13.0649V11.8746C57.6912 11.3335 57.7994 10.9006 58.1241 10.576C58.3405 10.2513 58.7734 10.0349 59.2062 10.0349C59.6391 10.0349 60.072 10.1431 60.2884 10.4678C59.9638 10.2513 59.6391 10.0349 59.2062 10.0349C58.7734 10.0349 58.3405 10.1431 58.1241 10.576C57.9077 11.0089 57.6912 11.2253 57.6912 11.7664V12.9567C57.6912 13.4978 57.7994 13.9307 58.1241 14.3635ZM62.1281 12.9567C62.1281 13.8225 61.9116 14.58 61.2623 15.121C60.7213 15.6621 59.9638 15.9868 59.2062 15.9868C58.3405 15.9868 57.6912 15.6621 57.1502 15.121C56.6091 14.58 56.3926 13.8225 56.3926 12.9567V11.7664C56.3926 10.9006 56.6091 10.1431 57.1502 9.60205C57.6912 9.06097 58.3405 8.73633 59.2062 8.73633C60.072 8.73633 60.7213 9.06097 61.2623 9.60205C61.8034 10.1431 62.1281 10.9006 62.1281 11.7664V12.9567ZM61.1541 14.9046C61.6952 14.3635 61.9116 13.7142 61.9116 12.9567C61.9116 13.7142 61.6952 14.4717 61.1541 14.9046C60.613 15.4457 59.9638 15.6621 59.2062 15.6621C58.4487 15.6621 57.9077 15.4457 57.4748 15.0128C57.9077 15.4457 58.557 15.6621 59.2062 15.6621C59.9638 15.7703 60.613 15.4457 61.1541 14.9046ZM64.5088 15.7703L65.0499 14.2553H67.3224L67.8635 15.7703H69.4867L66.8895 8.84454H65.591L62.9938 15.7703H64.5088ZM65.4827 12.8485L66.132 10.9006L66.7813 12.8485H65.4827ZM75.655 15.7703H74.2482L71.651 11.4417V15.6621H70.136V8.73633H71.5428L74.14 13.0649V8.73633H75.655V15.7703Z" fill="#556987"/>
<path d="M49.9 46.5034C51.415 45.8541 53.1464 45.0966 54.0121 43.4734C54.3368 42.9323 54.445 42.283 54.3368 41.6337C54.3368 41.0927 53.9039 40.4434 53.2546 40.4434C52.1725 40.5516 51.7396 41.7419 51.7396 42.8241C51.7396 43.5816 51.9561 44.4473 52.2807 45.2048C52.4971 45.8541 52.8218 46.5034 53.4711 46.8281C53.7957 47.0445 54.2286 47.0445 54.6614 47.0445C55.96 46.9363 57.1504 45.9623 58.0161 44.9884C58.0161 44.9884 58.0161 47.802 62.453 47.2609" stroke="#556987" stroke-width="0.501399" stroke-miterlimit="10" stroke-linecap="round" stroke-linejoin="round"/>
</svg>
