<svg width="25" height="18" viewBox="0 0 25 18" fill="none" xmlns="http://www.w3.org/2000/svg">
<g clip-path="url(#clip0_3454_138949)">
<g clip-path="url(#clip1_3454_138949)">
<path d="M0.0859375 -0.205078H24.9135V15.1358H0.0859375V-0.205078Z" fill="#B50027"/>
<path d="M0.0859375 5.16406H24.9135V12.0675H10.4308L0.0859375 5.16406Z" fill="white"/>
<path d="M0.0859375 -0.205078H11.7239V12.0676H0.0859375V-0.205078Z" fill="#002D56"/>
<path d="M5.48905 2.01745L5.85755 1.76054L5.40653 1.75413L5.27306 1.32812L5.1278 1.7502L4.67681 1.7438L5.03803 2.01107L4.89282 2.43315L5.26131 2.17623L5.62253 2.44347L5.48905 2.01745ZM3.71686 2.33097L3.9224 1.93421L3.52004 2.13572L3.20163 1.81984L3.27139 2.26029L2.86906 2.4618L3.31451 2.53251L3.38431 2.97294L3.58984 2.57618L4.03528 2.64687L3.71686 2.33097ZM2.28952 3.43144L2.28503 2.98572L2.02348 3.34899L1.59308 3.21556L1.86186 3.57351L1.60033 3.93675L2.02798 3.79473L2.29679 4.15264L2.2923 3.70691L2.71993 3.56488L2.28952 3.43144ZM1.55405 5.05834L1.34059 4.66575L1.27974 5.10755L0.835938 5.18712L1.24216 5.38059L1.18132 5.82236L1.49323 5.50016L1.89946 5.69358L1.68599 5.30098L1.99787 4.97877L1.55405 5.05834ZM1.65793 6.83265L1.28441 6.58309L1.43817 7.00223L1.08262 7.27656L1.53323 7.26125L1.68699 7.68036L1.81173 7.25179L2.26233 7.23643L1.88879 6.98688L2.01351 6.55831L1.65793 6.83265ZM2.588 8.3661L2.13997 8.31672L2.47312 8.61721L2.28723 9.02345L2.67903 8.80289L3.01216 9.10335L2.92117 8.66657L3.31293 8.44598L2.8649 8.39661L2.7739 7.95984L2.588 8.3661ZM4.13513 9.28681L3.71523 9.44891L4.15144 9.56193L4.17777 10.007L4.42102 9.63175L4.85721 9.74476L4.57136 9.39981L4.81456 9.02452L4.39465 9.18662L4.1088 8.8417L4.13513 9.28681ZM5.92838 9.39637L5.63276 9.73279L6.07212 9.63248L6.30463 10.0145L6.34363 9.57046L6.78296 9.47015L6.36773 9.29603L6.40669 8.85202L6.11107 9.18844L5.69586 9.01436L5.92838 9.39637ZM7.57796 8.67124L7.47433 9.10492L7.8162 8.81427L8.20162 9.04569L8.02746 8.63462L8.36931 8.34398L7.91982 8.38056L7.74562 7.96952L7.642 8.4032L7.19252 8.43981L7.57796 8.67124ZM8.69168 7.26299L8.80376 7.69459L8.96986 7.28019L9.41989 7.30804L9.07248 7.02407L9.23856 6.60969L8.85776 6.84857L8.51033 6.56463L8.62241 6.99624L8.24163 7.23512L8.69168 7.26299ZM8.4883 3.81149L8.9112 3.96551L8.66064 3.59496L8.93949 3.24468L8.50577 3.36599L8.25523 2.99547L8.23772 3.44096L7.80403 3.56229L8.22693 3.71631L8.20944 4.16178L8.4883 3.81149ZM7.20989 2.5462L7.65673 2.48831L7.26072 2.27531L7.34299 1.83707L7.01597 2.14371L6.61999 1.93074L6.81386 2.33323L6.48689 2.6399L6.93373 2.582L7.12761 2.98447L7.20989 2.5462ZM9.01552 5.51496L9.31761 5.84563L9.26991 5.4024L9.68148 5.22033L9.2404 5.12848L9.1927 4.68528L8.9678 5.07172L8.52672 4.97992L8.82881 5.31059L8.60393 5.69703L9.01552 5.51496Z" fill="white"/>
<path fill-rule="evenodd" clip-rule="evenodd" d="M3.3845 8.04198H3.25391V8.02762C3.25758 8.02734 3.2629 8.02695 3.26985 8.02641C3.27679 8.02587 3.2817 8.02506 3.28456 8.02398C3.28906 8.02223 3.29233 8.01987 3.29437 8.0169C3.29642 8.0138 3.29744 8.00955 3.29744 8.00416V7.79619C3.29744 7.79148 3.29669 7.78756 3.29519 7.78446C3.29369 7.78122 3.29015 7.77853 3.28456 7.77637C3.28048 7.77475 3.2753 7.77327 3.26903 7.77192C3.2629 7.77044 3.25785 7.76956 3.25391 7.76929V7.75493H3.3845V7.76929C3.38027 7.76943 3.37524 7.76996 3.36938 7.77091C3.36352 7.77172 3.35841 7.7728 3.35405 7.77414C3.34887 7.77576 3.3454 7.77839 3.34363 7.78204C3.34185 7.78568 3.34097 7.78972 3.34097 7.79417V8.00193C3.34097 8.00638 3.34192 8.01036 3.34383 8.01387C3.34588 8.01724 3.34928 8.01993 3.35405 8.02195C3.35692 8.02304 3.36155 8.02425 3.36795 8.02559C3.37449 8.02681 3.38001 8.02748 3.38451 8.02762V8.04198H3.3845ZM3.74233 7.76929C3.73851 7.76943 3.73265 7.7705 3.72475 7.77253C3.71684 7.77455 3.71119 7.77664 3.70779 7.7788C3.70288 7.78217 3.69954 7.78864 3.69777 7.79822C3.69614 7.8078 3.69532 7.81993 3.69532 7.83463V8.04482H3.67754L3.50178 7.80995V7.95803C3.50178 7.97462 3.5028 7.98737 3.50485 7.99627C3.50702 8.00517 3.51029 8.01151 3.51466 8.01528C3.51779 8.01825 3.52425 8.02102 3.53407 8.02358C3.54388 8.02614 3.55035 8.02749 3.55349 8.02762V8.04198H3.43454V8.02762C3.43822 8.02734 3.44442 8.02607 3.45314 8.02378C3.46186 8.02135 3.46731 8.01919 3.46949 8.0173C3.47425 8.01353 3.47753 8.0078 3.4793 8.00011C3.48107 7.99229 3.48195 7.97901 3.48196 7.96026V7.81885C3.48196 7.81265 3.48087 7.80645 3.47869 7.80024C3.47651 7.79403 3.47358 7.78925 3.4699 7.78588C3.465 7.78142 3.45832 7.77765 3.44987 7.77455C3.44156 7.77131 3.43481 7.76956 3.42964 7.76929V7.75493H3.51241L3.6755 7.97381V7.83726C3.6755 7.82054 3.67441 7.80774 3.67223 7.79883C3.67005 7.78979 3.66692 7.78379 3.66283 7.78082C3.65901 7.77826 3.65275 7.77577 3.64403 7.77333C3.63545 7.77091 3.62891 7.76956 3.62441 7.76929V7.75493H3.74234V7.76929H3.74233ZM4.17005 7.92728C4.16677 7.92769 4.16234 7.92836 4.15676 7.9293C4.15131 7.93011 4.14688 7.93133 4.14348 7.93294C4.13939 7.93497 4.13646 7.93787 4.13469 7.94164C4.13306 7.94528 4.13224 7.9496 4.13224 7.95459V7.97684C4.13224 7.99303 4.1323 8.00395 4.13244 8.00961C4.13271 8.01528 4.13298 8.01993 4.13326 8.02357C4.11514 8.03166 4.09709 8.03787 4.0791 8.04218C4.06112 8.0465 4.04347 8.04865 4.02617 8.04866C4.00763 8.04866 3.98979 8.04522 3.97262 8.03834C3.95545 8.03146 3.94046 8.02169 3.92766 8.00901C3.91471 7.9962 3.90442 7.98063 3.89679 7.96228C3.88916 7.94394 3.88535 7.92345 3.88535 7.90078C3.88535 7.87893 3.88896 7.8587 3.89618 7.84009C3.90354 7.82135 3.91389 7.8051 3.92724 7.79134C3.94018 7.77786 3.95558 7.7674 3.97343 7.75998C3.99142 7.75244 4.01063 7.74866 4.03107 7.74865C4.04742 7.74865 4.06165 7.75061 4.07378 7.75452C4.0859 7.75843 4.0966 7.76316 4.10586 7.76868L4.11424 7.75493H4.13059L4.13243 7.85526H4.11567C4.11281 7.8442 4.10926 7.83332 4.10505 7.82269C4.10082 7.81191 4.09537 7.80227 4.0887 7.79376C4.0821 7.78534 4.07374 7.77844 4.06417 7.77353C4.05463 7.76841 4.04318 7.76585 4.02984 7.76585C4.01526 7.76585 4.00225 7.76882 3.9908 7.77474C3.97936 7.78055 3.96941 7.78924 3.96096 7.80084C3.95265 7.81204 3.94625 7.826 3.94175 7.84272C3.93725 7.85944 3.93501 7.87812 3.93501 7.89875C3.93501 7.91696 3.93718 7.93416 3.94155 7.95034C3.94604 7.96639 3.95251 7.98028 3.96096 7.99201C3.9694 8.00402 3.97996 8.01346 3.99264 8.02033C4.00531 8.02721 4.01968 8.03065 4.03576 8.03065C4.04775 8.03065 4.05865 8.02883 4.06846 8.02519C4.07841 8.02155 4.08542 8.0177 4.08951 8.01366C4.0906 8.00665 4.09114 7.99957 4.09115 7.99242C4.09128 7.98527 4.09135 7.97921 4.09135 7.97421V7.95843C4.09135 7.95277 4.09053 7.94778 4.0889 7.94346C4.0874 7.93901 4.0842 7.93578 4.07929 7.93375C4.0748 7.93173 4.06867 7.93025 4.0609 7.9293C4.05327 7.92823 4.04727 7.92755 4.04291 7.92728V7.91252H4.17004V7.92728H4.17005ZM4.45521 7.78891C4.46801 7.80213 4.47803 7.81811 4.48525 7.83685C4.49247 7.85547 4.49608 7.8761 4.49608 7.89876C4.49608 7.92155 4.4924 7.94225 4.48504 7.96086C4.47768 7.97948 4.46747 7.99532 4.45439 8.0084C4.44188 8.02124 4.42686 8.03143 4.41024 8.03834C4.39348 8.04536 4.37563 8.04885 4.3567 8.04886C4.33653 8.04886 4.31787 8.04515 4.3007 8.03774C4.28367 8.03019 4.26902 8.01974 4.25676 8.00638C4.2445 7.9933 4.23482 7.97745 4.22774 7.95884C4.22079 7.9401 4.21731 7.92007 4.21731 7.89876C4.21731 7.87543 4.22099 7.85466 4.22835 7.83645C4.23571 7.81811 4.24586 7.80227 4.2588 7.78891C4.27161 7.7757 4.28646 7.76558 4.30336 7.75857C4.32025 7.75158 4.33839 7.74801 4.3567 7.74805C4.37591 7.74805 4.39403 7.75163 4.41106 7.75877C4.42809 7.76592 4.4428 7.77596 4.45521 7.78891ZM4.42476 7.99242C4.43238 7.98015 4.4379 7.96626 4.44131 7.95075C4.44485 7.93524 4.44662 7.91791 4.44663 7.89875C4.44663 7.87907 4.44465 7.86099 4.4407 7.84454C4.43688 7.82809 4.43123 7.81406 4.42373 7.80246C4.41624 7.791 4.40683 7.7821 4.39553 7.77576C4.38422 7.76928 4.37127 7.76605 4.3567 7.76605C4.34035 7.76605 4.32645 7.76976 4.31501 7.77717C4.30356 7.7846 4.29422 7.79451 4.28701 7.80691C4.28019 7.81878 4.27508 7.83267 4.27168 7.84858C4.26841 7.8645 4.26677 7.88122 4.26677 7.89875C4.26677 7.91818 4.26854 7.93571 4.27209 7.95135C4.27562 7.967 4.28121 7.98089 4.28885 7.99303C4.2962 8.0049 4.30546 8.0142 4.31664 8.02094C4.32781 8.02755 4.34116 8.03086 4.3567 8.03086C4.37127 8.03086 4.38442 8.02749 4.39614 8.02074C4.40786 8.014 4.41739 8.00456 4.42476 7.99242ZM4.81735 7.90017C4.81735 7.92459 4.81271 7.94576 4.80345 7.96369C4.79418 7.98163 4.78212 7.99633 4.76728 8.0078C4.75229 8.01926 4.73546 8.02782 4.71679 8.03348C4.69813 8.03915 4.67885 8.04198 4.65896 8.04198H4.53878V8.02762C4.54273 8.02762 4.54784 8.0273 4.55411 8.02661C4.56051 8.0258 4.56473 8.02493 4.56678 8.02398C4.57087 8.02223 4.57379 8.01967 4.57557 8.01629C4.57748 8.01279 4.57843 8.00861 4.57843 8.00375V7.7966C4.57843 7.79202 4.57761 7.78791 4.57598 7.78426C4.57448 7.78062 4.57141 7.77772 4.56678 7.77557C4.56243 7.7735 4.55783 7.77201 4.55309 7.77112C4.54819 7.77017 4.54396 7.76956 4.54042 7.76929V7.75493H4.66713C4.68457 7.75493 4.70173 7.75763 4.71863 7.76302C4.73553 7.76828 4.75024 7.77543 4.76278 7.78446C4.7798 7.79647 4.79316 7.81218 4.80284 7.8316C4.8125 7.85102 4.81734 7.87387 4.81735 7.90017ZM4.76727 7.89996C4.76727 7.88068 4.76468 7.86328 4.75951 7.84777C4.75433 7.83213 4.74677 7.81851 4.73682 7.80691C4.72742 7.79585 4.71583 7.78715 4.70208 7.78081C4.68845 7.77448 4.67326 7.77131 4.6565 7.7713C4.65091 7.7713 4.64458 7.77145 4.6375 7.77171C4.63055 7.77185 4.62537 7.77199 4.62197 7.77211V7.99282C4.62197 8.00509 4.62558 8.01359 4.6328 8.01831C4.64002 8.02303 4.65112 8.02539 4.66611 8.02539C4.68341 8.02539 4.69854 8.02236 4.71148 8.01629C4.72442 8.01022 4.73492 8.00179 4.74295 7.991C4.7514 7.97967 4.75753 7.96659 4.76135 7.95175C4.76529 7.93678 4.76727 7.91952 4.76727 7.89996ZM5.37116 7.76929C5.36775 7.76943 5.3638 7.77024 5.35931 7.77172C5.35493 7.77301 5.35075 7.77485 5.34684 7.77718C5.34207 7.78015 5.33818 7.78359 5.33519 7.78749C5.33233 7.79127 5.3298 7.7966 5.32763 7.80347C5.31795 7.83462 5.30671 7.87104 5.29391 7.91271C5.28022 7.95706 5.26639 8.00136 5.25242 8.04562H5.23362L5.16045 7.82472L5.08422 8.04562H5.06623C5.05225 7.99667 5.03828 7.94772 5.02434 7.89876C5.00989 7.84792 5.00022 7.81386 4.99531 7.7966C4.99417 7.79259 4.9923 7.78882 4.9898 7.78547C4.98748 7.78224 4.98428 7.77927 4.98019 7.77657C4.97678 7.77428 4.97276 7.7726 4.96813 7.77152C4.96364 7.7703 4.95955 7.76956 4.95587 7.76929V7.75493H5.0742V7.76929C5.06385 7.76984 5.05499 7.77085 5.04764 7.77233C5.04042 7.77381 5.03681 7.77631 5.03681 7.77981C5.03681 7.78117 5.03701 7.78299 5.03742 7.78527C5.03783 7.78744 5.03817 7.78919 5.03844 7.79053C5.04157 7.8024 5.04709 7.82203 5.05499 7.8494C5.06303 7.87664 5.07488 7.91751 5.09056 7.97199L5.1629 7.75897H5.18293L5.25589 7.97664C5.26446 7.94748 5.27291 7.91828 5.28123 7.88905C5.28832 7.86397 5.29417 7.84252 5.29881 7.82472C5.30208 7.81218 5.30412 7.80362 5.30494 7.79903C5.30576 7.79431 5.30617 7.79033 5.30617 7.78709C5.30617 7.78251 5.30296 7.77867 5.29656 7.77556C5.29029 7.77246 5.28007 7.77037 5.26591 7.76929V7.75493H5.37116V7.76929ZM5.65275 7.95742L5.64724 8.04198H5.40649V8.02762C5.41195 8.02721 5.4174 8.02667 5.42284 8.026C5.42965 8.02506 5.43407 8.02412 5.43612 8.02317C5.44048 8.02115 5.44347 8.01851 5.44511 8.01528C5.44688 8.01204 5.44776 8.00793 5.44777 8.00294V7.79659C5.44777 7.79215 5.44702 7.78824 5.44552 7.78486C5.44402 7.78136 5.44089 7.77853 5.43612 7.77636C5.43244 7.77461 5.42747 7.77307 5.42121 7.77171C5.41507 7.77037 5.41017 7.76956 5.40649 7.76928V7.75492H5.63089V7.82411H5.61557C5.61284 7.81386 5.60691 7.803 5.59779 7.79153C5.58879 7.77994 5.58021 7.7736 5.57203 7.77252C5.56701 7.77192 5.56197 7.77151 5.55691 7.77131C5.55105 7.77102 5.54437 7.77091 5.53688 7.7709H5.49131V7.885H5.52401C5.53449 7.885 5.54213 7.88406 5.5469 7.88217C5.5518 7.88014 5.5561 7.87684 5.55977 7.87225C5.56277 7.86835 5.56528 7.86315 5.56733 7.85668C5.56951 7.85007 5.57094 7.84387 5.57163 7.83807H5.58696V7.95034H5.57163C5.57108 7.94386 5.56958 7.93706 5.56713 7.92991C5.56481 7.92263 5.56236 7.91737 5.55978 7.91413C5.55555 7.90887 5.55071 7.90543 5.54526 7.90381C5.53995 7.90219 5.53286 7.90138 5.52401 7.90138H5.49131V7.98756C5.49131 7.9962 5.49192 8.00301 5.49315 8.00799C5.49438 8.01299 5.49676 8.01676 5.5003 8.01932C5.50384 8.02189 5.50867 8.02357 5.51481 8.02438C5.52094 8.02505 5.52966 8.02539 5.54097 8.02539H5.55875C5.56611 8.02539 5.5723 8.02514 5.57735 8.02458C5.58272 8.02401 5.58805 8.02306 5.59329 8.02175C5.59887 8.02027 5.60283 8.01832 5.60514 8.01588C5.61141 8.00941 5.61795 7.99964 5.62476 7.98655C5.63171 7.97334 5.63614 7.96363 5.63804 7.95742L5.65275 7.95742ZM6.07931 7.83281H6.06521C6.06398 7.82796 6.06173 7.82223 6.05846 7.81561C6.05541 7.80902 6.05186 7.80266 6.04784 7.7966C6.04375 7.79039 6.03925 7.785 6.03435 7.78042C6.02957 7.7757 6.02494 7.773 6.02045 7.77232C6.01622 7.77179 6.01091 7.77138 6.00451 7.77111C5.99811 7.77083 5.99218 7.77071 5.98673 7.77071H5.97488V8.00031C5.97488 8.00476 5.97583 8.00888 5.97774 8.01265C5.97964 8.01629 5.98298 8.01912 5.98775 8.02115C5.99021 8.0221 5.99531 8.02337 6.00308 8.02499C6.01098 8.02661 6.01711 8.02749 6.02148 8.02763V8.04199H5.88455V8.02763C5.88836 8.02734 5.89415 8.02682 5.90192 8.02601C5.90982 8.0252 5.91527 8.02418 5.91827 8.02297C5.92276 8.02122 5.92603 8.01873 5.92808 8.01549C5.93025 8.01212 5.93134 8.00767 5.93135 8.00214V7.77071H5.91949C5.91526 7.77071 5.91002 7.77085 5.90376 7.77112C5.89774 7.77124 5.89174 7.77164 5.88577 7.77233C5.88127 7.77287 5.87657 7.77557 5.87167 7.78042C5.8669 7.78514 5.86247 7.79053 5.85839 7.7966C5.8543 7.80267 5.85068 7.80914 5.84756 7.81602C5.84442 7.82277 5.84224 7.82836 5.84102 7.83281H5.82671V7.75493H6.07931V7.83281H6.07931ZM6.40893 8.04198H6.33086C6.31355 8.01515 6.29789 7.99195 6.28386 7.97239C6.26923 7.95187 6.2541 7.9317 6.23849 7.91191H6.20885V8.00294C6.20885 8.00766 6.2096 8.01184 6.2111 8.01548C6.2126 8.01899 6.2158 8.02169 6.22071 8.02357C6.22316 8.02452 6.22745 8.0254 6.23358 8.0262C6.23971 8.02701 6.24489 8.02748 6.24911 8.02762V8.04198H6.12649V8.02762C6.12976 8.02733 6.13446 8.02688 6.14059 8.0262C6.14686 8.02553 6.15121 8.02465 6.15367 8.02357C6.15776 8.02182 6.16068 8.01926 6.16246 8.01589C6.16436 8.01252 6.16531 8.0082 6.16532 8.00294V7.79538C6.16532 7.79066 6.16464 7.78648 6.16328 7.78284C6.16191 7.7792 6.15871 7.77643 6.15367 7.77454C6.15026 7.77333 6.14584 7.77225 6.14039 7.77131C6.13493 7.77023 6.1303 7.76956 6.12649 7.76928V7.75492H6.26036C6.27262 7.75492 6.28413 7.7562 6.2949 7.75876C6.30566 7.76119 6.3154 7.76518 6.32412 7.7707C6.33257 7.7761 6.33931 7.78318 6.34436 7.79194C6.3494 7.80058 6.35191 7.81102 6.35192 7.8233C6.35192 7.83436 6.35021 7.84413 6.34681 7.85263C6.34349 7.861 6.33832 7.86853 6.33169 7.87468C6.32556 7.88048 6.3182 7.88554 6.30961 7.88985C6.30103 7.89403 6.29156 7.89761 6.28121 7.90057C6.29551 7.91932 6.30737 7.9351 6.31677 7.94791C6.32631 7.96072 6.33795 7.9763 6.35172 7.99464C6.35771 8.00273 6.36309 8.00874 6.36786 8.01264C6.37277 8.01642 6.3776 8.01952 6.38237 8.02195C6.38591 8.0237 6.39034 8.02505 6.39566 8.026C6.40097 8.02694 6.40539 8.02748 6.40894 8.02761V8.04198H6.40893ZM6.30143 7.82795C6.30143 7.81055 6.29639 7.7968 6.28631 7.78668C6.27622 7.77644 6.26199 7.77132 6.24359 7.77131H6.20885V7.89451H6.23563C6.25443 7.89451 6.2701 7.88858 6.28263 7.87671C6.29516 7.86471 6.30142 7.84846 6.30143 7.82795ZM6.71222 7.76929C6.7084 7.76943 6.70282 7.77024 6.69546 7.77172C6.68811 7.7732 6.68211 7.77543 6.67748 7.77839C6.67284 7.7815 6.66964 7.7879 6.66787 7.79761C6.6661 7.80732 6.66521 7.81919 6.66521 7.83321V7.95803C6.66521 7.97395 6.66187 7.98777 6.6552 7.9995C6.64852 8.01123 6.63973 8.02088 6.62883 8.02843C6.61807 8.03571 6.60669 8.04091 6.5947 8.044C6.58285 8.04724 6.57147 8.04886 6.56057 8.04886C6.54313 8.04886 6.5276 8.04656 6.51397 8.04198C6.50035 8.03753 6.4889 8.03146 6.47964 8.02377C6.47051 8.01608 6.46363 8.00732 6.459 7.99747C6.45436 7.9875 6.45205 7.97711 6.45205 7.96632V7.79659C6.45205 7.79188 6.45123 7.78797 6.44959 7.78486C6.44809 7.78163 6.44496 7.77866 6.44019 7.77596C6.43678 7.77408 6.43243 7.77259 6.42711 7.77151C6.4218 7.7703 6.41743 7.76956 6.41403 7.76929V7.75493H6.53482V7.76929C6.531 7.76943 6.52616 7.77004 6.5203 7.77111C6.51458 7.77219 6.51035 7.7732 6.50763 7.77414C6.50299 7.77576 6.49987 7.77846 6.49823 7.78224C6.49673 7.78602 6.49598 7.79013 6.49598 7.79458V7.95318C6.49598 7.96087 6.4968 7.96896 6.49844 7.97745C6.50021 7.98582 6.50361 7.99364 6.50866 8.00092C6.51397 8.00834 6.52119 8.01441 6.53032 8.01912C6.53945 8.02385 6.55197 8.0262 6.56792 8.0262C6.5829 8.0262 6.59544 8.02385 6.60553 8.01912C6.61575 8.01441 6.62378 8.00821 6.62964 8.00052C6.63522 7.99323 6.63918 7.98562 6.6415 7.97765C6.64381 7.9697 6.64497 7.96168 6.64497 7.95358V7.83584C6.64497 7.82087 6.64388 7.80867 6.6417 7.79923C6.63952 7.78966 6.63632 7.78338 6.6321 7.78041C6.62733 7.77704 6.62079 7.77441 6.61248 7.77252C6.6043 7.77064 6.59803 7.76956 6.59367 7.76928V7.75492H6.71221V7.76929H6.71222ZM6.9273 7.91029C6.93344 7.91703 6.93793 7.92445 6.94079 7.93254C6.94379 7.9405 6.94528 7.94981 6.94529 7.96046C6.94529 7.98581 6.93582 8.00672 6.91688 8.02317C6.89794 8.03962 6.87443 8.04784 6.84637 8.04785C6.83343 8.04785 6.82048 8.04589 6.80754 8.04198C6.7946 8.03793 6.78343 8.03308 6.77403 8.02742L6.76524 8.04218H6.74888L6.74602 7.94387H6.76258C6.76598 7.95601 6.76993 7.967 6.77443 7.97684C6.77906 7.98655 6.78512 7.99566 6.79262 8.00415C6.79955 8.012 6.80795 8.01845 6.81735 8.02317C6.82689 8.02789 6.83792 8.03025 6.85046 8.03025C6.85986 8.03025 6.86804 8.02903 6.87498 8.02661C6.88207 8.02418 6.88779 8.02074 6.89215 8.01629C6.89649 8.01187 6.89977 8.00655 6.90176 8.00071C6.90394 7.99464 6.90502 7.9877 6.90503 7.97987C6.90503 7.96841 6.90176 7.95776 6.89522 7.94791C6.88868 7.93794 6.87893 7.93038 6.86599 7.92526C6.85589 7.92128 6.84574 7.91744 6.83554 7.91373C6.8241 7.90941 6.81422 7.90537 6.80591 7.90159C6.78956 7.89431 6.77682 7.8848 6.76769 7.87307C6.7587 7.8612 6.7542 7.84576 6.7542 7.82674C6.7542 7.81582 6.75645 7.80564 6.76095 7.79619C6.76544 7.78675 6.77184 7.77833 6.78016 7.77091C6.78806 7.7639 6.79739 7.75843 6.80816 7.75452C6.81893 7.75047 6.83036 7.74842 6.84188 7.74845C6.85522 7.74845 6.86715 7.75048 6.87764 7.75452C6.88827 7.75857 6.89794 7.76329 6.90666 7.76868L6.91504 7.75493H6.93139L6.93303 7.85021H6.91647C6.91357 7.8396 6.91016 7.82913 6.90625 7.81885C6.90257 7.80887 6.89773 7.79984 6.89174 7.79174C6.88588 7.78392 6.87872 7.77772 6.87028 7.77313C6.86183 7.76842 6.85148 7.76606 6.83922 7.76605C6.82627 7.76605 6.81524 7.77017 6.80611 7.77839C6.79698 7.78662 6.79242 7.79667 6.79242 7.80853C6.79242 7.82095 6.79534 7.83126 6.80121 7.83949C6.80706 7.84758 6.81558 7.85425 6.82675 7.85951C6.8363 7.86407 6.84605 7.86819 6.85598 7.87185C6.86565 7.87523 6.87498 7.87887 6.88398 7.88278C6.89207 7.88624 6.89992 7.89023 6.90748 7.89471C6.91511 7.89916 6.92172 7.90436 6.9273 7.91029ZM7.24119 7.83281H7.22709C7.22586 7.82796 7.22362 7.82223 7.22035 7.81561C7.21729 7.80902 7.21374 7.80266 7.20972 7.7966C7.20563 7.79039 7.20113 7.785 7.19623 7.78042C7.19146 7.7757 7.18683 7.773 7.18233 7.77232C7.17811 7.77179 7.17279 7.77138 7.16639 7.77111C7.15999 7.77083 7.15406 7.77071 7.14861 7.77071H7.13676V8.00031C7.13676 8.00476 7.13771 8.00888 7.13962 8.01265C7.14152 8.01629 7.14486 8.01912 7.14963 8.02115C7.15209 8.0221 7.15719 8.02337 7.16496 8.02499C7.17286 8.02661 7.17899 8.02749 7.18335 8.02763V8.04199H7.04642V8.02763C7.05024 8.02734 7.05602 8.02682 7.06379 8.02601C7.07169 8.0252 7.07714 8.02418 7.08014 8.02297C7.08464 8.02122 7.08791 8.01873 7.08995 8.01549C7.09213 8.01212 7.09322 8.00767 7.09322 8.00214V7.77071H7.08137C7.07714 7.77071 7.0719 7.77085 7.06563 7.77112C7.05962 7.77124 7.05362 7.77164 7.04765 7.77233C7.04316 7.77287 7.03845 7.77557 7.03355 7.78042C7.02878 7.78514 7.02435 7.79053 7.02026 7.7966C7.01618 7.80267 7.01256 7.80914 7.00943 7.81602C7.0063 7.82277 7.00412 7.82836 7.00289 7.83281H6.98858V7.75493H7.24119V7.83281Z" fill="#EED000" stroke="#EED000" stroke-width="0.00756019" stroke-miterlimit="3.864"/>
<path d="M5.26798 4.40462C5.26857 4.40437 5.26891 4.4043 5.26893 4.4043C5.26916 4.40423 5.30499 4.41697 5.3053 4.47247C5.33701 4.4666 5.34981 4.48315 5.3437 4.52214C5.3437 4.52214 5.30605 4.51207 5.2999 4.5333C5.29067 4.55784 5.29771 4.57783 5.32102 4.59327C5.32102 4.59327 5.36017 4.62395 5.38481 4.5658C5.40945 4.50766 5.41832 4.48788 5.41832 4.48788C5.42517 4.46646 5.46596 4.41626 5.50301 4.40923C5.51712 4.40364 5.53063 4.40474 5.5457 4.4083C5.5457 4.4083 5.57812 4.41524 5.57903 4.44202C5.57996 4.46879 5.5689 4.48045 5.55062 4.48822C5.53041 4.49681 5.50546 4.47837 5.50546 4.47837C5.49676 4.47676 5.49398 4.47974 5.48864 4.4834C5.48618 4.48509 5.47592 4.49622 5.46997 4.50875C5.46997 4.50875 5.45198 4.54635 5.4434 4.57507C5.43664 4.59769 5.42174 4.66608 5.35169 4.67635H5.18638C5.11634 4.66608 5.10144 4.59769 5.09468 4.57507C5.08609 4.54635 5.0681 4.50875 5.0681 4.50875C5.06216 4.49622 5.0519 4.48509 5.04944 4.4834C5.0441 4.47974 5.04132 4.47677 5.03262 4.47837C5.03262 4.47837 5.00766 4.49681 4.98745 4.48822C4.96917 4.48045 4.95811 4.4688 4.95904 4.44202C4.95996 4.41524 4.99237 4.4083 4.99237 4.4083C5.00745 4.40474 5.02096 4.40364 5.03507 4.40923C5.07211 4.41626 5.11291 4.46646 5.11976 4.48788C5.11976 4.48788 5.12863 4.50766 5.15326 4.5658C5.1779 4.62395 5.21705 4.59327 5.21705 4.59327C5.24036 4.57783 5.2474 4.55783 5.23817 4.5333C5.23203 4.51207 5.19437 4.52214 5.19437 4.52214C5.18826 4.48315 5.20106 4.4666 5.23277 4.47247C5.23308 4.41697 5.26892 4.40421 5.26915 4.4043C5.26919 4.4043 5.26951 4.4044 5.27009 4.40462H5.26798Z" fill="#EED000"/>
<path fill-rule="evenodd" clip-rule="evenodd" d="M5.47355 6.27211H5.07338L5.12061 4.72852H5.42818L5.47355 6.27211ZM5.47184 7.13048H5.04689L5.04688 6.42951L5.47184 6.42938V7.13048Z" fill="#EED000" stroke="#002D56" stroke-width="0.0393009" stroke-miterlimit="3.864"/>
<path d="M5.04066 6.34961H5.47143C5.50143 6.34961 5.52575 6.36769 5.52575 6.38999C5.52575 6.4123 5.50143 6.43038 5.47143 6.43038H5.04066C5.01065 6.43038 4.98633 6.4123 4.98633 6.38999C4.98633 6.36769 5.01065 6.34961 5.04066 6.34961Z" fill="#EED000" stroke="#002D56" stroke-width="0.0393009" stroke-miterlimit="3.864"/>
<path fill-rule="evenodd" clip-rule="evenodd" d="M5.07181 6.27344H5.44785C5.47456 6.27344 5.49622 6.2904 5.49622 6.31132C5.49622 6.33224 5.47456 6.34921 5.44785 6.34921H5.07181C5.0451 6.34921 5.02344 6.33224 5.02344 6.31132C5.02344 6.2904 5.0451 6.27344 5.07181 6.27344Z" fill="#EED000" stroke="#002D56" stroke-width="0.0393009" stroke-miterlimit="3.864"/>
<path d="M5.14258 6.56055H5.3696V7.02268H5.14258V6.56055Z" stroke="#002D56" stroke-width="0.0393009" stroke-miterlimit="3.864"/>
<path d="M5.13842 4.67578H5.39921C5.42064 4.67578 5.43801 4.68826 5.43801 4.70367C5.43801 4.71906 5.42064 4.73154 5.39921 4.73154H5.13842C5.11698 4.73154 5.09961 4.71906 5.09961 4.70367C5.09961 4.68827 5.11699 4.67578 5.13842 4.67578Z" fill="#EED000" stroke="#002D56" stroke-width="0.0226852" stroke-miterlimit="3.864"/>
<path fill-rule="evenodd" clip-rule="evenodd" d="M3.13086 7.21484H7.46182V7.35922H3.13086V7.21484Z" fill="#EED000" stroke="#002D56" stroke-width="0.0462963" stroke-miterlimit="3.864"/>
<path d="M2.94531 7.35742H7.64881V7.5103H2.94531V7.35742Z" fill="#EED000" stroke="#002D56" stroke-width="0.0277778" stroke-miterlimit="3.864"/>
<path fill-rule="evenodd" clip-rule="evenodd" d="M3.25781 4.08008H7.30159V4.16853H3.25781V4.08008Z" fill="#EED000" stroke="#002D56" stroke-width="0.044213" stroke-miterlimit="3.864"/>
<path fill-rule="evenodd" clip-rule="evenodd" d="M6.54021 4.07767C6.3307 3.58147 5.84446 3.23476 5.27807 3.23476C4.71202 3.23476 4.22604 3.58195 4.01632 4.07767H3.51367C3.74616 3.31499 4.44895 2.75586 5.27807 2.75586C6.10776 2.75586 6.81096 3.31395 7.04321 4.07743L6.54021 4.07767Z" fill="#EED000" stroke="#002D56" stroke-width="0.0226847" stroke-miterlimit="3.8637" stroke-linejoin="round"/>
<path fill-rule="evenodd" clip-rule="evenodd" d="M3.36719 4.17019C3.36719 4.17019 3.43708 4.21152 3.49529 4.3346L7.09273 4.33445C7.09273 4.33445 7.1519 4.19684 7.23339 4.16992L3.36719 4.17019Z" fill="#EED000" stroke="#002D56" stroke-width="0.0277778" stroke-miterlimit="3.864"/>
<path fill-rule="evenodd" clip-rule="evenodd" d="M4.25939 4.36523C4.25939 4.36523 4.59265 4.93069 5.27033 4.9229C5.93977 4.91521 6.28128 4.38446 6.28128 4.38446L6.4598 4.64599C6.4598 4.64599 6.52577 4.73445 6.39771 4.84598C5.94527 5.24 5.58689 5.31744 5.27034 5.31519C4.80283 5.28989 4.42574 5.13348 4.13909 4.84598C4.08753 4.8036 4.077 4.74791 4.09252 4.70175L4.25939 4.36523Z" fill="#EED000" stroke="#002D56" stroke-width="0.0226847" stroke-miterlimit="3.8637" stroke-linejoin="round"/>
<path d="M4.08466 4.76044C4.08466 4.76044 4.06429 4.64603 4.24669 4.73833L4.26027 4.36719M6.47134 4.68256C6.41313 4.55853 6.30641 4.71044 6.30641 4.71044L6.27953 4.38642" stroke="#002D56" stroke-width="0.0294769" stroke-miterlimit="3.864"/>
<path d="M3.47641 4.33984H7.0933C7.10616 4.33984 7.11659 4.35059 7.11659 4.36385V4.37185C7.11659 4.38511 7.10616 4.39586 7.0933 4.39586H3.47641C3.46355 4.39586 3.45313 4.38511 3.45313 4.37185V4.36385C3.45312 4.35059 3.46355 4.33984 3.47641 4.33984Z" fill="#EED000" stroke="#002D56" stroke-width="0.0231482" stroke-miterlimit="3.864"/>
<path d="M3.79532 4.40071C3.79591 4.40046 3.79624 4.40039 3.79627 4.40039C3.7965 4.40032 3.83233 4.41307 3.83264 4.46856C3.86435 4.46269 3.87715 4.47925 3.87104 4.51823C3.87104 4.51823 3.83339 4.50817 3.82725 4.52939C3.81802 4.55393 3.82506 4.57392 3.84836 4.58936C3.84836 4.58936 3.88752 4.62004 3.91215 4.5619C3.93679 4.50375 3.94566 4.48398 3.94566 4.48398C3.95251 4.46256 3.9933 4.41236 4.03035 4.40532C4.04446 4.39973 4.05797 4.40084 4.07304 4.4044C4.07304 4.4044 4.10546 4.41133 4.10638 4.43811C4.1073 4.46489 4.09624 4.47654 4.07796 4.48431C4.05775 4.4929 4.0328 4.47446 4.0328 4.47446C4.0241 4.47286 4.02132 4.47583 4.01598 4.4795C4.01352 4.48118 4.00326 4.49232 3.99732 4.50485C3.99732 4.50485 3.97932 4.54245 3.97074 4.57116C3.96398 4.59378 3.94908 4.66218 3.87904 4.67244H3.71373C3.64368 4.66218 3.62878 4.59378 3.62202 4.57116C3.61344 4.54245 3.59545 4.50485 3.59545 4.50485C3.5895 4.49232 3.57924 4.48118 3.57678 4.4795C3.57144 4.47583 3.56866 4.47286 3.55996 4.47446C3.55996 4.47446 3.53501 4.4929 3.5148 4.48431C3.49652 4.47654 3.48546 4.46489 3.48638 4.43811C3.4873 4.41134 3.51972 4.4044 3.51972 4.4044C3.53479 4.40084 3.5483 4.39973 3.56241 4.40532C3.59946 4.41236 3.64025 4.46256 3.6471 4.48398C3.6471 4.48398 3.65597 4.50375 3.68061 4.5619C3.70524 4.62004 3.74439 4.58936 3.74439 4.58936C3.7677 4.57392 3.77474 4.55393 3.76551 4.52939C3.75937 4.50816 3.72172 4.51823 3.72172 4.51823C3.71561 4.47925 3.72841 4.46269 3.76012 4.46856C3.76043 4.41307 3.79626 4.4003 3.79649 4.40039C3.79653 4.40039 3.79685 4.4005 3.79744 4.40071H3.79532Z" fill="#EED000"/>
<path fill-rule="evenodd" clip-rule="evenodd" d="M3.99654 6.27211H3.59637L3.64959 4.72852H3.94519L3.99654 6.27211ZM4.00893 7.13048H3.58399L3.58398 6.42951L4.00893 6.42938V7.13048Z" fill="#EED000" stroke="#002D56" stroke-width="0.0393009" stroke-miterlimit="3.864"/>
<path fill-rule="evenodd" clip-rule="evenodd" d="M3.58167 6.3492H4.01244C4.04245 6.3492 4.06677 6.36728 4.06677 6.38959C4.06677 6.41189 4.04244 6.42997 4.01244 6.42997H3.58167C3.55167 6.42997 3.52734 6.41189 3.52734 6.38959C3.52734 6.36728 3.55166 6.3492 3.58167 6.3492ZM3.60904 6.27344H3.98507C4.01179 6.27344 4.03345 6.2904 4.03345 6.31132C4.03345 6.33224 4.01179 6.3492 3.98507 6.3492H3.60904C3.58232 6.3492 3.56066 6.33224 3.56066 6.31132C3.56066 6.2904 3.58232 6.27344 3.60904 6.27344Z" fill="#EED000" stroke="#002D56" stroke-width="0.0393009" stroke-miterlimit="3.864"/>
<path d="M3.68164 6.56055H3.90867V7.02268H3.68164V6.56055Z" stroke="#002D56" stroke-width="0.0393009" stroke-miterlimit="3.864"/>
<path d="M3.66576 4.68164H3.92655C3.94798 4.68164 3.96536 4.69412 3.96536 4.70952C3.96536 4.72492 3.94798 4.73741 3.92655 4.73741H3.66576C3.64433 4.73741 3.62695 4.72493 3.62695 4.70952C3.62695 4.69413 3.64433 4.68164 3.66576 4.68164Z" fill="#EED000" stroke="#002D56" stroke-width="0.0226852" stroke-miterlimit="3.864"/>
<path fill-rule="evenodd" clip-rule="evenodd" d="M3.49414 7.13281H4.09954V7.21358H3.49414V7.13281Z" fill="#EED000" stroke="#002D56" stroke-width="0.0189028" stroke-miterlimit="3.864"/>
<path d="M6.76213 4.40462C6.76272 4.40437 6.76305 4.4043 6.76307 4.4043C6.7633 4.40423 6.79914 4.41697 6.79945 4.47247C6.83116 4.4666 6.84396 4.48315 6.83785 4.52214C6.83785 4.52214 6.8002 4.51207 6.79405 4.5333C6.78482 4.55784 6.79186 4.57783 6.81517 4.59327C6.81517 4.59327 6.85432 4.62395 6.87896 4.5658C6.90359 4.50766 6.91246 4.48788 6.91246 4.48788C6.91932 4.46646 6.96011 4.41626 6.99715 4.40923C7.01127 4.40364 7.02478 4.40474 7.03985 4.4083C7.03985 4.4083 7.07226 4.41524 7.07318 4.44202C7.07411 4.46879 7.06305 4.48045 7.04476 4.48822C7.02456 4.49681 6.9996 4.47837 6.9996 4.47837C6.9909 4.47676 6.98812 4.47974 6.98278 4.4834C6.98032 4.48509 6.97006 4.49622 6.96412 4.50875C6.96412 4.50875 6.94612 4.54635 6.93754 4.57507C6.93078 4.59769 6.91588 4.66608 6.84584 4.67635H6.68053C6.61048 4.66608 6.59558 4.59769 6.58882 4.57507C6.58024 4.54635 6.56224 4.50875 6.56224 4.50875C6.5563 4.49622 6.54604 4.48509 6.54358 4.4834C6.53824 4.47974 6.53546 4.47677 6.52676 4.47837C6.52676 4.47837 6.5018 4.49681 6.48159 4.48822C6.46332 4.48045 6.45226 4.4688 6.45318 4.44202C6.4541 4.41524 6.48652 4.4083 6.48652 4.4083C6.50159 4.40474 6.5151 4.40364 6.52921 4.40923C6.56625 4.41626 6.60705 4.46646 6.6139 4.48788C6.6139 4.48788 6.62277 4.50766 6.64741 4.5658C6.67204 4.62395 6.7112 4.59327 6.7112 4.59327C6.7345 4.57783 6.74154 4.55783 6.73231 4.5333C6.72617 4.51207 6.68851 4.52214 6.68851 4.52214C6.6824 4.48315 6.6952 4.4666 6.72691 4.47247C6.72722 4.41697 6.76306 4.40421 6.76329 4.4043C6.76332 4.4043 6.76364 4.4044 6.76423 4.40462H6.76213Z" fill="#EED000"/>
<path fill-rule="evenodd" clip-rule="evenodd" d="M6.97178 6.27211H6.57162L6.62483 4.72852H6.92043L6.97178 6.27211ZM6.99388 7.13048H6.56894L6.56445 6.42951L6.99388 6.42938V7.13048Z" fill="#EED000" stroke="#002D56" stroke-width="0.0393009" stroke-miterlimit="3.864"/>
<path d="M6.56409 6.34961H6.99486C7.02487 6.34961 7.04919 6.36769 7.04919 6.38999C7.04919 6.4123 7.02487 6.43038 6.99486 6.43038H6.56409C6.53409 6.43038 6.50977 6.4123 6.50977 6.38999C6.50977 6.36769 6.53409 6.34961 6.56409 6.34961Z" fill="#EED000" stroke="#002D56" stroke-width="0.0393009" stroke-miterlimit="3.864"/>
<path fill-rule="evenodd" clip-rule="evenodd" d="M6.58744 6.27344H6.96347C6.99019 6.27344 7.01185 6.2904 7.01185 6.31132C7.01185 6.33224 6.99019 6.34921 6.96347 6.34921H6.58744C6.56072 6.34921 6.53906 6.33224 6.53906 6.31132C6.53906 6.2904 6.56072 6.27344 6.58744 6.27344Z" fill="#EED000" stroke="#002D56" stroke-width="0.0393009" stroke-miterlimit="3.864"/>
<path d="M6.66406 6.56055H6.89109V7.02268H6.66406V6.56055Z" stroke="#002D56" stroke-width="0.0393009" stroke-miterlimit="3.864"/>
<path d="M6.63842 4.67578H6.89921C6.92064 4.67578 6.93801 4.68826 6.93801 4.70367C6.93801 4.71906 6.92064 4.73154 6.89921 4.73154H6.63842C6.61698 4.73154 6.59961 4.71906 6.59961 4.70367C6.59961 4.68827 6.61698 4.67578 6.63842 4.67578Z" fill="#EED000" stroke="#002D56" stroke-width="0.0226852" stroke-miterlimit="3.864"/>
<path fill-rule="evenodd" clip-rule="evenodd" d="M4.94727 7.13281H5.55267V7.21358H4.94727V7.13281Z" fill="#EED000" stroke="#002D56" stroke-width="0.0189028" stroke-miterlimit="3.864"/>
<path fill-rule="evenodd" clip-rule="evenodd" d="M2.69978 6.03805C2.59694 5.96497 2.48828 5.9842 2.48828 5.9842C2.48828 5.9842 2.5668 5.88083 2.69202 5.93228C2.77158 5.96497 2.83949 6.08612 3.04129 5.9592C3.24309 5.83229 3.32141 5.76816 3.49922 5.70921C3.68191 5.64865 3.82521 5.63614 3.8679 5.62076C3.91058 5.60537 3.97738 5.58127 4.01149 5.37846C4.01925 5.33231 4.20552 5.76306 4.20552 5.76306C4.20552 5.76306 4.17836 5.90536 3.99984 5.98613C3.82132 6.06689 3.51201 6.11521 3.34011 6.2515C3.2819 6.29765 3.17004 6.37745 3.10241 6.47553C2.9433 6.70629 2.7774 6.73225 2.7774 6.73225C2.7774 6.73225 2.92783 6.602 2.9695 6.42649C2.97726 6.3938 2.96457 6.24676 3.02383 6.18804C2.96091 6.2504 2.8016 6.12754 2.82203 6.14381C2.82203 6.14381 2.80262 6.11112 2.69978 6.03805ZM6.55146 5.38216C6.55146 5.38216 6.5825 5.55715 6.92983 5.64561C7.27716 5.73407 7.3315 5.8456 7.38777 5.87252C7.44404 5.89944 7.59025 6.0031 7.74674 5.95137C7.80839 5.93098 7.98067 5.88406 7.99473 5.89449C8.00001 5.90318 7.94551 5.99355 7.93884 6.00137C7.8236 6.13637 7.77973 6.15713 7.73704 6.17828C7.64381 6.22448 7.6366 6.23009 7.57017 6.23405C7.57017 6.23405 7.63226 6.31097 7.64196 6.43596C7.65166 6.56095 7.82048 6.68787 7.82048 6.68787C7.82048 6.68787 7.59539 6.63018 7.49643 6.49749C7.39747 6.36481 7.23448 6.25135 7.17433 6.22251C7.11418 6.19366 6.80759 6.08982 6.74356 6.06482C6.67953 6.03982 6.47967 5.93598 6.4525 5.76868C6.42533 5.60138 6.55146 5.38216 6.55146 5.38216Z" fill="#EED000" stroke="#002D56" stroke-width="0.0343889" stroke-miterlimit="3.864"/>
<path d="M3.25755 5.51589C3.0218 5.42454 3.0946 5.36289 3.0946 5.36289C3.15261 5.26035 3.2286 5.13156 3.51585 5.02229C3.90005 4.87614 4.29201 4.94153 4.18723 5.11075C4.12353 5.21362 4.01356 5.39343 4.01356 5.39343C4.01356 5.39343 3.96796 5.27228 3.7584 5.3492C3.54884 5.42612 3.48415 5.45872 3.47172 5.49937C3.45231 5.56283 3.46007 5.60321 3.61143 5.58014C3.51246 5.61283 3.40222 5.57872 3.27844 5.52427L3.25755 5.51589Z" fill="#EED000" stroke="#002D56" stroke-width="0.0343889" stroke-miterlimit="3.864"/>
<path d="M6.85022 5.34384C6.89379 5.35494 6.96817 5.39063 7.01201 5.42175C7.2256 5.5734 7.18627 5.7057 7.12706 5.70916C7.06109 5.713 7.54586 5.6996 7.60407 5.66883C7.66228 5.63807 7.68168 5.60345 7.64676 5.53038C7.61183 5.45731 7.34794 5.01117 6.91717 4.92656C6.4864 4.84195 6.3157 5.02151 6.35252 5.08232C6.38744 5.14001 6.54656 5.33231 6.55238 5.41115C6.59656 5.32864 6.69595 5.30514 6.85022 5.34384Z" fill="#EED000" stroke="#002D56" stroke-width="0.0294769" stroke-miterlimit="3.864" stroke-linejoin="round"/>
<path fill-rule="evenodd" clip-rule="evenodd" d="M6.64452 5.26255L6.56138 5.14445L6.58304 5.27275L6.54966 5.27828L6.51193 5.05472L6.54772 5.04879L6.65571 5.19825L6.71002 5.02187L6.74169 5.01662L6.77942 5.24018L6.73526 5.2475L6.71361 5.1192L6.66951 5.25841L6.64452 5.26255ZM6.9878 5.17687C6.98061 5.21191 6.96711 5.23704 6.94734 5.25226C6.92758 5.26739 6.90459 5.2723 6.87835 5.26701C6.85239 5.26178 6.83325 5.24837 6.82093 5.22677C6.80864 5.20508 6.80604 5.17697 6.81313 5.14242L6.81573 5.12976C6.82234 5.09758 6.8352 5.07284 6.85433 5.05554C6.87354 5.03826 6.89764 5.03254 6.92661 5.03838C6.95492 5.04409 6.9742 5.05871 6.98446 5.08224C6.9948 5.10578 6.99673 5.13336 6.99025 5.16495L6.9878 5.17687ZM6.94015 5.1642L6.94139 5.15817C6.94701 5.13079 6.94892 5.11002 6.94713 5.09586C6.94534 5.0817 6.93593 5.07291 6.91891 5.06948C6.9032 5.06631 6.89155 5.07009 6.88396 5.08082C6.87646 5.09158 6.8696 5.11211 6.86338 5.14244L6.86226 5.14788C6.85599 5.1784 6.85399 5.19982 6.85627 5.21213C6.85854 5.22445 6.86804 5.23229 6.88479 5.23566C6.89851 5.23843 6.9097 5.2343 6.91833 5.22327C6.92705 5.21225 6.93433 5.19256 6.94015 5.1642ZM7.17158 5.27494C7.15388 5.30724 7.13458 5.32791 7.11369 5.33694C7.09287 5.34603 7.07045 5.3441 7.04641 5.33116L6.97644 5.2935L7.08558 5.0943L7.14834 5.12807C7.17701 5.1435 7.19281 5.16312 7.19572 5.18691C7.19877 5.21066 7.19219 5.23732 7.17599 5.26689L7.17158 5.27494ZM7.12903 5.25033L7.132 5.24492C7.14395 5.22309 7.14946 5.20446 7.14853 5.18903C7.14758 5.1736 7.14087 5.16252 7.12839 5.1558L7.11232 5.14715L7.03573 5.28695L7.05547 5.29757C7.0677 5.30416 7.07942 5.30448 7.09064 5.29856C7.10191 5.29255 7.1147 5.27647 7.12903 5.25033ZM7.29619 5.28429L7.25316 5.32768L7.29927 5.3726L7.27504 5.39703L7.22893 5.35212L7.18367 5.39776L7.24724 5.45969L7.22334 5.4838L7.12485 5.38786L7.28517 5.22616L7.37945 5.318L7.35555 5.34211L7.29619 5.28429ZM7.31905 5.64268L7.2945 5.60136C7.32608 5.58248 7.34705 5.56637 7.35743 5.55303C7.36793 5.53972 7.36972 5.52725 7.3628 5.51561L7.35696 5.50577L7.26841 5.55746L7.24357 5.51565L7.44063 5.4006L7.48404 5.47364C7.49461 5.49143 7.49799 5.5064 7.49419 5.51856C7.49044 5.5308 7.4826 5.5404 7.47068 5.54736L7.45997 5.55361C7.44873 5.56017 7.4378 5.56219 7.42716 5.55968C7.41652 5.55717 7.40674 5.5498 7.39783 5.53756C7.40188 5.55484 7.39811 5.57178 7.38652 5.58838C7.37506 5.60501 7.35257 5.62311 7.31905 5.64268ZM7.43145 5.51479L7.4368 5.51167C7.44533 5.50669 7.45015 5.501 7.45128 5.4946C7.4524 5.4882 7.45048 5.48082 7.44551 5.47246L7.4374 5.45881L7.38529 5.48923L7.39201 5.50055C7.39791 5.51047 7.40403 5.51644 7.4104 5.51847C7.41677 5.52049 7.42378 5.51926 7.43145 5.51479ZM6.7003 5.92245L6.65976 5.89326L6.67908 5.83996L6.62108 5.79819L6.57555 5.83262L6.54328 5.80938L6.73688 5.6686L6.77381 5.6952L6.7003 5.92245ZM6.69012 5.80742L6.7179 5.72437L6.64819 5.77723L6.69012 5.80742ZM6.95488 5.82831L6.91244 5.80778L6.82713 5.98114L6.78313 5.95987L6.86844 5.78652L6.82496 5.76549L6.83991 5.73512L6.96984 5.79793L6.95488 5.82831ZM7.0599 5.83274L6.97054 6.0414L6.92548 6.02244L7.01484 5.81379L7.0599 5.83274ZM7.23323 6.03995C7.21856 6.07261 7.1999 6.09425 7.17728 6.10487C7.15468 6.1154 7.13116 6.11526 7.10669 6.10447C7.08249 6.09379 7.06673 6.07659 7.05942 6.05286C7.05215 6.02904 7.05575 6.00103 7.07022 5.96883L7.07552 5.95703C7.089 5.92702 7.10696 5.90563 7.12941 5.89284C7.15195 5.88009 7.17672 5.87968 7.20373 5.89159C7.23012 5.90324 7.24576 5.92165 7.25063 5.94683C7.25559 5.97203 7.25145 5.99937 7.23822 6.02883L7.23323 6.03995ZM7.18948 6.01735L7.19201 6.01173C7.20348 5.9862 7.20988 5.96634 7.21122 5.95213C7.21256 5.93792 7.20529 5.92731 7.18942 5.92031C7.17478 5.91385 7.16257 5.91504 7.15282 5.92389C7.14316 5.93278 7.13197 5.95136 7.11927 5.97963L7.11699 5.98471C7.10421 6.01316 7.09758 6.03364 7.09711 6.04615C7.09664 6.05866 7.10421 6.06836 7.11982 6.07524C7.13262 6.08089 7.14444 6.07926 7.15528 6.07034C7.1662 6.06146 7.17761 6.0438 7.18948 6.01735ZM7.38604 6.13543L7.45371 6.01925L7.48388 6.03652L7.36953 6.23283L7.35133 6.22241L7.32903 6.04522L7.25719 6.16854L7.22701 6.15127L7.34136 5.95496L7.36406 5.96795L7.38604 6.13543ZM3.4793 5.38466L3.44894 5.40274L3.27968 5.23909L3.32214 5.2138L3.4291 5.31764L3.39137 5.17257L3.42112 5.15486L3.53289 5.25583L3.48862 5.11465L3.52256 5.09444L3.58877 5.31946L3.55841 5.33755L3.44255 5.23427L3.4793 5.38466ZM3.64866 5.06372L3.71553 5.2805L3.66871 5.29468L3.60184 5.07791L3.64866 5.06372ZM3.91165 5.17941C3.91503 5.20322 3.90992 5.22188 3.89633 5.2354C3.88272 5.24883 3.86237 5.25743 3.83528 5.2612C3.81979 5.26336 3.80658 5.26423 3.79567 5.26383C3.78475 5.26343 3.77563 5.26228 3.76828 5.26037L3.7628 5.22169C3.76871 5.2244 3.77767 5.22644 3.78969 5.2278C3.80169 5.22906 3.8133 5.22891 3.82452 5.22735C3.8403 5.22515 3.85082 5.22146 3.8561 5.21627C3.86147 5.21108 3.86344 5.20342 3.862 5.1933C3.86108 5.18676 3.85811 5.18125 3.85312 5.17679C3.84812 5.17233 3.83501 5.16733 3.81377 5.16179C3.79684 5.15728 3.78327 5.15042 3.77305 5.14122C3.76281 5.13193 3.75641 5.11826 3.75386 5.10021C3.75141 5.08295 3.75637 5.06739 3.76876 5.05353C3.78123 5.03966 3.79992 5.03099 3.82483 5.02752C3.83689 5.02584 3.84788 5.02537 3.85778 5.02612C3.86776 5.02675 3.8748 5.02759 3.87893 5.02863L3.88378 5.06284C3.87541 5.06191 3.86702 5.06121 3.85862 5.06074C3.85031 5.06028 3.8416 5.0607 3.83247 5.06195C3.81954 5.06375 3.81053 5.06713 3.80541 5.07209C3.8003 5.07705 3.79818 5.08265 3.79907 5.0889C3.8002 5.09684 3.80319 5.10254 3.80804 5.106C3.8129 5.10948 3.82629 5.11373 3.84823 5.11876C3.86867 5.1234 3.88377 5.1308 3.89355 5.14097C3.90341 5.15103 3.90944 5.16385 3.91165 5.17941ZM4.6195 5.0253C4.61248 5.03896 4.60217 5.04831 4.58859 5.05336C4.57513 5.05837 4.55956 5.0564 4.54185 5.04746C4.5315 5.04224 4.52353 5.03731 4.51793 5.03269C4.51242 5.02811 4.50827 5.0236 4.5055 5.01916L4.52139 4.98824C4.52399 4.99135 4.52769 4.99496 4.53247 4.99906C4.53731 5.00307 4.54258 5.00652 4.54819 5.00936C4.55349 5.01204 4.55884 5.01283 4.56425 5.01174C4.56966 5.01065 4.5742 5.00654 4.57788 4.9994L4.65564 4.84814L4.69926 4.87017L4.6195 5.0253ZM4.868 5.11589C4.86028 5.13581 4.84836 5.14919 4.83224 5.15604C4.81615 5.16279 4.79578 5.16149 4.77115 5.15212C4.74471 5.14206 4.72805 5.12881 4.72117 5.11235C4.71428 5.09589 4.71544 5.07579 4.72464 5.05204L4.7798 4.90969L4.8255 4.92707L4.76811 5.07517C4.76366 5.08668 4.76276 5.09626 4.76545 5.10393C4.76826 5.11154 4.7758 5.11768 4.78808 5.12235C4.79946 5.12668 4.80887 5.12732 4.81633 5.12425C4.82388 5.12122 4.83022 5.11307 4.83538 5.09979L4.89244 4.95252L4.92631 4.9654L4.868 5.11589ZM5.10993 5.16477C5.10697 5.18862 5.09716 5.20534 5.08051 5.21491C5.06386 5.22439 5.04196 5.22748 5.0148 5.22417C4.99927 5.22228 4.98629 5.21974 4.97585 5.21656C4.96541 5.21337 4.9569 5.20991 4.9503 5.20618L4.9551 5.16741C4.9601 5.17155 4.96823 5.17582 4.97948 5.18022C4.99075 5.18451 5.002 5.18735 5.01325 5.18871C5.02906 5.19064 5.04019 5.18978 5.04664 5.18612C5.05319 5.18248 5.05709 5.17559 5.05835 5.16544C5.05916 5.15888 5.05774 5.15281 5.05408 5.14722C5.05041 5.14163 5.03905 5.13343 5.01998 5.12263C5.00481 5.11393 4.99349 5.10383 4.98602 5.09232C4.97856 5.08072 4.97595 5.06587 4.97819 5.04778C4.98034 5.03048 4.98919 5.01673 5.00477 5.00652C5.02044 4.99631 5.04076 4.99273 5.06573 4.99577C5.07782 4.99724 5.08856 4.99961 5.09792 5.00287C5.10739 5.00604 5.11398 5.00866 5.11769 5.01072L5.11344 5.04502C5.10561 5.04197 5.09768 5.03914 5.08969 5.03653C5.08179 5.03395 5.07326 5.03211 5.06412 5.03099C5.05116 5.02942 5.04156 5.03037 5.03533 5.03385C5.0291 5.03733 5.02559 5.0422 5.02482 5.04846C5.02383 5.05641 5.02523 5.06269 5.02901 5.06728C5.0328 5.07188 5.04463 5.07943 5.06451 5.08992C5.08303 5.09964 5.09569 5.11066 5.10248 5.12299C5.10938 5.13523 5.11186 5.14916 5.10993 5.16477ZM5.33542 5.05218L5.2882 5.05136L5.2848 5.24421L5.23585 5.24337L5.23925 5.05052L5.19089 5.04968L5.19148 5.01589L5.33601 5.01838L5.33542 5.05218ZM5.46897 5.00578L5.49684 5.23077L5.44825 5.23668L5.42038 5.01169L5.46897 5.00578ZM5.74269 5.16335C5.74015 5.16653 5.73497 5.1704 5.72715 5.17497C5.71936 5.17963 5.7099 5.18365 5.6988 5.18702C5.6708 5.1955 5.64517 5.19342 5.6219 5.18078C5.59869 5.16802 5.58169 5.14416 5.57091 5.1092L5.5682 5.10044C5.55816 5.06787 5.55904 5.03902 5.57085 5.01386C5.58276 4.98869 5.60225 4.972 5.62933 4.96379C5.64099 4.96026 5.65094 4.95803 5.65919 4.9571C5.6674 4.95607 5.67402 4.95606 5.67905 4.95706L5.68968 4.99154C5.68505 4.99054 5.67908 4.9902 5.67175 4.99053C5.66452 4.99085 5.65636 4.99237 5.64727 4.99512C5.63038 5.00023 5.61927 5.01109 5.61395 5.02767C5.60872 5.04424 5.60983 5.06458 5.61728 5.08872L5.61821 5.09174C5.62619 5.1176 5.63649 5.13537 5.64911 5.14505C5.66183 5.15471 5.67585 5.15722 5.69118 5.15257C5.70155 5.14943 5.71008 5.1457 5.71678 5.14136C5.72344 5.13694 5.72864 5.13311 5.73236 5.12989L5.74269 5.16335ZM5.81049 4.92317L5.83835 4.97738L5.89595 4.94829L5.91164 4.97881L5.85404 5.00789L5.88335 5.06491L5.96276 5.02481L5.97824 5.05493L5.85522 5.11706L5.75138 4.91509L5.86915 4.85561L5.88464 4.88572L5.81049 4.92317ZM3.39916 6.00247C3.41715 6.03463 3.42437 6.06186 3.42084 6.08418C3.41739 6.10647 3.40371 6.12417 3.37979 6.13731L3.31016 6.17555L3.19922 5.97726L3.26167 5.94296C3.29021 5.92729 3.31539 5.92463 3.3372 5.93498C3.35905 5.9452 3.37821 5.96503 3.39468 5.99446L3.39916 6.00247ZM3.35536 6.02481L3.35235 6.01942C3.3402 5.9977 3.32729 5.98308 3.31365 5.97556C3.30002 5.96806 3.28698 5.96771 3.27456 5.97453L3.25857 5.98331L3.33642 6.12248L3.35607 6.11169C3.36824 6.105 3.37481 6.09538 3.3758 6.08281C3.37673 6.07016 3.36992 6.05083 3.35536 6.02481ZM3.60556 5.91724C3.61966 5.95016 3.6229 5.97844 3.61531 6.00209C3.60767 6.02566 3.59152 6.04261 3.56687 6.05299C3.54248 6.06325 3.51904 6.06294 3.49655 6.05206C3.47401 6.04108 3.4558 6.01937 3.4419 5.98691L3.4368 5.97502C3.42386 5.94478 3.42032 5.91717 3.42619 5.89217C3.43216 5.86713 3.44875 5.84889 3.47597 5.83744C3.50257 5.82625 3.52681 5.82747 3.54872 5.84111C3.5707 5.85471 3.58805 5.87636 3.60077 5.90604L3.60556 5.91724ZM3.55905 5.93355L3.55662 5.92788C3.5456 5.90215 3.53531 5.88396 3.52573 5.8733C3.51616 5.86264 3.50338 5.86067 3.48739 5.8674C3.47263 5.87361 3.46519 5.88327 3.46507 5.89637C3.46503 5.90945 3.47112 5.93022 3.48332 5.95871L3.48551 5.96383C3.49779 5.9925 3.50838 6.01128 3.51729 6.02015C3.5262 6.02902 3.53852 6.03015 3.55425 6.02353C3.56715 6.01811 3.57401 6.00842 3.57481 5.99448C3.57572 5.98051 3.57046 5.9602 3.55905 5.93355ZM3.78576 5.97463L3.68229 5.87352L3.72718 5.99576L3.69539 6.00723L3.61716 5.79423L3.65126 5.78192L3.78494 5.90939L3.8059 5.72614L3.83608 5.71525L3.9143 5.92826L3.87222 5.94344L3.82733 5.8212L3.80958 5.96604L3.78576 5.97463ZM4.0873 3.73111C4.08716 3.73577 4.08509 3.74295 4.08109 3.75266C4.07719 3.76244 4.07133 3.77283 4.06353 3.78385C4.04387 3.81162 4.01916 3.8283 3.9894 3.83388C3.95961 3.83931 3.92792 3.83039 3.89431 3.80713L3.88588 3.8013C3.85457 3.77962 3.83572 3.75335 3.82932 3.72246C3.82299 3.69149 3.82932 3.66257 3.84836 3.63571C3.85655 3.62415 3.86407 3.61498 3.87093 3.6082C3.8777 3.60136 3.8837 3.59656 3.88895 3.59381L3.9221 3.61675C3.91721 3.61921 3.91155 3.62323 3.90512 3.62881C3.89876 3.63431 3.89238 3.64157 3.886 3.65058C3.87414 3.66733 3.87144 3.685 3.8779 3.70358C3.88442 3.72208 3.89929 3.73935 3.92249 3.75542L3.9254 3.75742C3.95026 3.77463 3.97173 3.78298 3.98979 3.78246C4.00793 3.78186 4.02238 3.77395 4.03314 3.75875C4.04043 3.74847 4.04564 3.73898 4.04877 3.73029C4.05182 3.72155 4.05393 3.71439 4.05512 3.70884L4.0873 3.73111ZM4.21145 3.42841C4.24031 3.45597 4.25571 3.48381 4.25764 3.51191C4.25948 3.53994 4.24951 3.5651 4.22773 3.58741C4.20618 3.60947 4.18117 3.62012 4.15269 3.61936C4.12414 3.61852 4.09563 3.60451 4.06716 3.57733L4.05673 3.56737C4.0302 3.54205 4.01478 3.51505 4.01045 3.48635C4.00621 3.45758 4.01611 3.43088 4.04016 3.40626C4.06367 3.3822 4.08992 3.37212 4.11893 3.37602C4.14802 3.37984 4.17558 3.39418 4.20162 3.41903L4.21145 3.42841ZM4.16896 3.46711L4.16399 3.46236C4.14142 3.44082 4.12281 3.42676 4.10814 3.42017C4.09348 3.41359 4.07908 3.41753 4.06494 3.432C4.0519 3.44535 4.04809 3.45886 4.0535 3.47252C4.05898 3.4861 4.07422 3.50482 4.09921 3.52868L4.10369 3.53296C4.12885 3.55697 4.14802 3.5715 4.16123 3.57653C4.17443 3.58157 4.18798 3.57698 4.20189 3.56274C4.21328 3.55108 4.21647 3.53782 4.21144 3.52297C4.20649 3.50804 4.19233 3.48942 4.16896 3.46711ZM4.43825 3.27379L4.34974 3.15336L4.38275 3.12964L4.53231 3.33316L4.5124 3.34746L4.31544 3.29359L4.4094 3.42144L4.37639 3.44516L4.22683 3.24164L4.25166 3.22381L4.43825 3.27379ZM4.75518 3.14632C4.76658 3.1705 4.76686 3.19213 4.75603 3.21123C4.74514 3.23023 4.72518 3.24642 4.69614 3.25981C4.67953 3.26746 4.66508 3.27297 4.65276 3.27631C4.64045 3.27966 4.62989 3.28159 4.62107 3.28209L4.60254 3.24281C4.61002 3.24366 4.62068 3.24274 4.63453 3.24002C4.64834 3.23721 4.66125 3.23303 4.67328 3.22749C4.69019 3.21969 4.70076 3.21212 4.70498 3.20478C4.70931 3.19739 4.70906 3.18856 4.70421 3.17828C4.70107 3.17163 4.696 3.1668 4.68899 3.16377C4.68198 3.16075 4.66573 3.15996 4.64025 3.16141C4.6199 3.16246 4.60255 3.15985 4.58819 3.15359C4.57378 3.14724 4.56225 3.1349 4.5536 3.11656C4.54534 3.09904 4.54589 3.08076 4.55527 3.06172C4.56475 3.04263 4.58283 3.02694 4.60953 3.01463C4.62247 3.00866 4.63458 3.00437 4.64587 3.00174C4.65721 2.99896 4.66535 2.99742 4.67029 2.9971L4.68668 3.03185C4.67703 3.03375 4.66744 3.03591 4.6579 3.03831C4.64848 3.04069 4.63888 3.04414 4.6291 3.04864C4.61525 3.05503 4.60626 3.06175 4.60214 3.0688C4.59802 3.07585 4.59746 3.08255 4.60045 3.08889C4.60426 3.09695 4.60942 3.10199 4.61595 3.104C4.62249 3.10602 4.63881 3.10592 4.66492 3.10368C4.68922 3.10156 4.70846 3.10421 4.72264 3.11165C4.73687 3.11896 4.74772 3.13051 4.75518 3.14632ZM4.97533 2.93793L4.92191 2.95208L4.97794 3.15884L4.92257 3.17351L4.86653 2.96675L4.81181 2.98125L4.80198 2.94502L4.96551 2.9017L4.97533 2.93793ZM5.12396 2.88196L5.18115 2.87801L5.19891 3.12896L5.14172 3.13292L5.12396 2.88196ZM5.48763 2.92604L5.43245 2.92223L5.41735 3.13576L5.36016 3.1318L5.37526 2.91827L5.31875 2.91437L5.3214 2.87695L5.49027 2.88863L5.48763 2.92604ZM5.766 3.14143C5.759 3.16407 5.74647 3.17968 5.72841 3.18829C5.71039 3.19679 5.68659 3.19657 5.65703 3.18763C5.62531 3.17804 5.60465 3.1643 5.59502 3.1464C5.58539 3.1285 5.58475 3.10605 5.5931 3.07905L5.64314 2.91724L5.69796 2.93381L5.6459 3.10216C5.64186 3.11523 5.64177 3.12596 5.64565 3.13433C5.64966 3.14264 5.65904 3.14901 5.67376 3.15346C5.68742 3.15759 5.69842 3.15772 5.70679 3.15386C5.71526 3.15002 5.72183 3.14057 5.7265 3.12547L5.77826 2.95808L5.8189 2.97037L5.766 3.14143ZM6.08561 3.12564L6.03632 3.10081L5.93803 3.29153L5.88695 3.2658L5.98524 3.07508L5.93476 3.04965L5.95198 3.01623L6.10283 3.09222L6.08561 3.12564ZM6.2262 3.17048L6.27258 3.2038L6.12301 3.40731L6.07663 3.37399L6.2262 3.17048ZM6.44935 3.53847C6.42098 3.56652 6.39255 3.58126 6.3641 3.58267C6.33572 3.58401 6.31045 3.57371 6.28827 3.55179C6.26633 3.5301 6.25599 3.50519 6.25726 3.47705C6.25861 3.44884 6.27328 3.42091 6.30126 3.39324L6.31151 3.3831C6.33758 3.35733 6.36517 3.34256 6.39426 3.33878C6.42343 3.33509 6.45026 3.34534 6.47474 3.36955C6.49867 3.3932 6.5084 3.41933 6.50396 3.44794C6.49958 3.47662 6.4846 3.50361 6.45901 3.52892L6.44935 3.53847ZM6.41096 3.49579L6.41585 3.49096C6.43803 3.46903 6.45257 3.45088 6.45949 3.4365C6.4664 3.42212 6.46267 3.40782 6.44828 3.39359C6.43501 3.38047 6.42141 3.37646 6.40751 3.38157C6.39367 3.38676 6.37448 3.40149 6.34992 3.42577L6.3455 3.43013C6.32078 3.45457 6.30575 3.47328 6.30043 3.48625C6.29511 3.49921 6.29952 3.51269 6.31367 3.52668C6.32527 3.53815 6.33863 3.54153 6.35373 3.53682C6.36891 3.53218 6.38798 3.5185 6.41096 3.49579ZM6.60725 3.75751L6.72907 3.67001L6.75306 3.70265L6.5472 3.85051L6.53273 3.83082L6.58723 3.6361L6.4579 3.729L6.43392 3.69636L6.63977 3.5485L6.65781 3.57304L6.60725 3.75751Z" fill="#002D56"/>
<path fill-rule="evenodd" clip-rule="evenodd" d="M6.09559 5.58763C6.09559 5.58763 6.10962 5.57238 6.11417 5.58351C6.11872 5.59464 6.11969 5.60413 6.1158 5.60829C6.1119 5.61244 6.11237 5.61507 6.10685 5.62205C6.10134 5.62903 6.10378 5.63302 6.09846 5.63637C6.09314 5.63973 6.0907 5.63822 6.08484 5.63791L6.08246 5.65522L6.07864 5.66968L6.08084 5.68359L6.09084 5.70572L6.08321 5.68914L6.09389 5.70723C6.10197 5.7283 6.1788 5.74947 6.20663 5.76178C6.26457 5.78741 6.25551 5.90922 6.26161 5.92128C6.26771 5.93334 6.2921 6.09463 6.2921 6.12176C6.2921 6.1489 6.26161 6.29512 6.25856 6.32526C6.25704 6.34029 6.25325 6.37627 6.24945 6.4127C6.2487 6.4199 6.23825 6.41043 6.23494 6.41691C6.23057 6.4255 6.2312 6.4502 6.23224 6.45838C6.23042 6.47616 6.2253 6.48999 6.22447 6.49903C6.22142 6.53219 6.19051 6.53529 6.19051 6.53529C6.19051 6.53529 6.18941 6.64871 6.18331 6.67584C6.17721 6.70298 6.17306 6.70814 6.18221 6.78352C6.19136 6.85889 6.17001 6.95235 6.17001 6.95235C6.17001 6.95235 6.13852 7.08976 6.13242 7.11086C6.12632 7.13197 6.13647 7.15133 6.13952 7.1664C6.14257 7.18148 6.14257 7.2056 6.14257 7.2056H5.87444C5.86762 7.2056 5.87915 7.18175 5.88816 7.1649C5.89233 7.15709 5.90493 7.1453 5.92323 7.14229C5.94153 7.13927 5.94305 7.11968 5.95372 7.09556C5.9644 7.07144 5.95982 7.02019 5.95067 6.98853C5.94153 6.95687 5.92933 6.88 5.92933 6.85286C5.92933 6.82573 5.91419 6.76392 5.89895 6.72171C5.8837 6.67951 5.87608 6.58756 5.87608 6.57851C5.87608 6.57457 5.87433 6.56947 5.8711 6.56148C5.86693 6.55115 5.86626 6.53598 5.85767 6.51218C5.84242 6.46998 5.84383 6.41872 5.84231 6.37501C5.84079 6.33129 5.82401 6.28306 5.81628 6.27237L5.81157 6.25348L5.76454 6.26798L5.71908 6.30318C5.70907 6.31212 5.69815 6.31361 5.67977 6.31524C5.64418 6.31838 5.60859 6.27709 5.60024 6.2174C5.59101 6.15143 5.60419 6.12316 5.67845 6.12338L5.71145 6.12345L5.74013 6.1244H5.754C5.754 6.1244 5.76233 6.14046 5.74938 6.14613C5.73643 6.1518 5.73273 6.15274 5.73273 6.15274L5.7493 6.1715C5.74899 6.17153 5.75827 6.16533 5.78589 6.15039L5.79618 6.12665C5.79695 6.11158 5.79809 6.10818 5.79504 6.0916C5.79199 6.07502 5.78607 5.9797 5.78607 5.95709C5.78607 5.93448 5.78674 5.90773 5.78906 5.88162C5.79118 5.85788 5.79086 5.80497 5.80253 5.78249C5.81702 5.7546 5.89533 5.74254 5.89533 5.74254C5.89533 5.74254 5.92922 5.73887 5.93379 5.72982C5.93549 5.72645 5.94401 5.71199 5.94763 5.70634C5.92583 5.6987 5.91868 5.67221 5.91549 5.66576C5.91217 5.65905 5.90634 5.62807 5.90558 5.62506C5.90446 5.62061 5.89763 5.59261 5.89381 5.58152C5.88999 5.57043 5.89323 5.55022 5.89323 5.55022L5.86843 5.54752L5.83843 5.54524C5.83843 5.54524 5.82166 5.54292 5.81734 5.54125C5.81303 5.53957 5.79849 5.53664 5.79849 5.53664C5.79849 5.53664 5.77466 5.51646 5.79829 5.50026C5.82192 5.48405 5.8497 5.46903 5.85425 5.46636C5.8588 5.46369 5.86062 5.45925 5.86062 5.45925L5.8602 5.45342C5.85476 5.44515 5.84947 5.43398 5.84268 5.40967C5.83589 5.38535 5.90044 5.3752 5.90044 5.3752C5.91911 5.37362 5.98171 5.38181 5.97527 5.38041C5.98834 5.38326 5.99689 5.3828 6.02187 5.38264C6.04685 5.3825 6.07943 5.39144 6.09759 5.39528C6.11575 5.39913 6.13427 5.41575 6.14364 5.43294C6.15301 5.45013 6.19095 5.47187 6.20214 5.48262C6.21906 5.49888 6.23917 5.53295 6.24691 5.54539C6.26045 5.56715 6.24585 5.56196 6.2413 5.56463C6.22015 5.57704 6.10234 5.55078 6.11261 5.55204C6.12104 5.55308 6.11906 5.55011 6.10995 5.54525L6.10989 5.55346L6.10303 5.57909L6.09559 5.58763Z" fill="#EED000" stroke="#EED000" stroke-width="0.00756019" stroke-miterlimit="3.864"/>
<path d="M5.96903 5.91261C5.97277 5.85086 5.9779 5.79997 5.98733 5.76036C5.99038 5.74755 5.98733 5.74152 5.98733 5.74152C5.97109 5.74113 5.96016 5.73991 5.94336 5.7207" stroke="#002D56" stroke-width="0.0189028" stroke-miterlimit="3.864"/>
<path d="M5.86719 6.58573L5.87078 6.56014C5.87078 6.56014 5.8788 6.54551 5.87575 6.51687C5.8727 6.48823 5.87575 6.40834 5.88337 6.36764C5.89059 6.32911 5.95176 6.20936 5.95786 6.17771C5.96312 6.1504 5.96396 6.05862 5.96396 6.05108C5.96396 6.04858 5.96094 6.03987 5.96243 6.00586" stroke="#002D56" stroke-width="0.0226852" stroke-miterlimit="3.864"/>
<path d="M5.94671 5.70508L5.93288 5.72854C5.93288 5.72854 5.8161 5.75333 5.80162 5.78122C5.78994 5.8037 5.78516 5.93321 5.78516 5.95582C5.78516 5.97843 5.79107 6.07375 5.79413 6.09033C5.79717 6.10691 5.79603 6.1103 5.79527 6.12538" stroke="#002D56" stroke-width="0.0250972" stroke-miterlimit="3.864" stroke-linejoin="round"/>
<path d="M6.01367 6.08398C6.01519 6.09604 6.01205 6.17328 6.04417 6.22267C6.05789 6.24377 6.11787 6.35872 6.13108 6.37341C6.13898 6.3822 6.1593 6.38561 6.16442 6.39758C6.19091 6.45947 6.16292 6.52039 6.20034 6.52927L6.21082 6.56478" stroke="#002D56" stroke-width="0.0226852" stroke-miterlimit="3.864"/>
<path d="M6.09714 5.70508C6.09078 5.71379 6.04816 5.73911 6.02306 5.73911C6.01391 5.73911 6.01931 5.7576 6.01527 5.77946C6.011 5.80247 6.01069 5.93321 6.01374 5.9498C6.01498 5.95653 6.01258 5.95997 6.01222 5.98145" stroke="#002D56" stroke-width="0.0189028" stroke-miterlimit="3.864"/>
<path d="M6.13672 5.86523L6.15229 5.9257L6.17363 6.03725L6.18126 6.10508L6.18278 6.16538L6.18126 6.21663L6.17516 6.25281L6.16753 6.28597L6.15381 6.39451C6.19803 6.38396 6.22712 6.39419 6.24834 6.41109" stroke="#002D56" stroke-width="0.0226847" stroke-miterlimit="3.8637" stroke-linecap="round" stroke-linejoin="round"/>
<path d="M5.8457 5.75586L5.8487 5.76622C5.84454 5.7435 5.91831 6.06598 6.16989 6.21673L6.18209 6.22427" stroke="#002D56" stroke-width="0.0226852" stroke-miterlimit="3.864"/>
<path d="M5.89453 5.74219C5.92095 5.82521 6.00007 6.03273 6.18077 6.141L6.18305 6.15607M5.93258 6.23604C5.97897 6.24565 6.0089 6.24564 6.05081 6.23455M6.00518 6.47093C6.01432 6.53357 6.0256 6.6084 6.02906 6.62036C6.03516 6.64146 6.04126 6.74698 6.04126 6.74698L6.0443 6.84948L6.04735 6.97912V7.12986C6.02231 7.14718 6.00917 7.17303 6.00791 7.2074" stroke="#002D56" stroke-width="0.0226852" stroke-miterlimit="3.864"/>
<path d="M5.75499 6.14844C5.73943 6.17157 5.66258 6.12765 5.65869 6.1932C5.6557 6.24358 5.66556 6.30051 5.71484 6.30676L5.7511 6.28305L5.76081 6.27343" stroke="#002D56" stroke-width="0.020912" stroke-miterlimit="3.864" stroke-linejoin="round"/>
<path fill-rule="evenodd" clip-rule="evenodd" d="M5.70816 6.12201C5.68703 5.79477 5.69685 5.50809 5.75174 5.29102C5.60394 5.50317 5.66473 6.12224 5.66473 6.12224L5.70816 6.12201Z" fill="#EED000"/>
<path d="M5.79654 6.12109L5.78587 6.14973C5.75825 6.16467 5.7497 6.16545 5.75001 6.16544" stroke="#002D56" stroke-width="0.0250972" stroke-miterlimit="3.864" stroke-linejoin="round"/>
<path d="M5.74609 6.1582C5.74609 6.1582 5.7732 6.22942 5.75101 6.28253" stroke="#002D56" stroke-width="0.020912" stroke-miterlimit="3.864" stroke-linejoin="round"/>
<path d="M5.70898 6.12305L5.73893 6.1237H5.75281C5.75281 6.1237 5.76113 6.13976 5.74818 6.14543C5.73523 6.1511 5.72638 6.15097 5.72638 6.15097" stroke="#002D56" stroke-width="0.0161481" stroke-miterlimit="3.864" stroke-linejoin="round"/>
<path d="M5.7176 6.30215C5.70759 6.3111 5.69667 6.31259 5.67829 6.31421C5.6427 6.31735 5.60711 6.27606 5.59876 6.21638C5.58953 6.1504 5.59842 6.12295 5.66453 6.12109" stroke="#002D56" stroke-width="0.0161481" stroke-miterlimit="3.864"/>
<path d="M5.72905 6.15039H5.68159C5.68159 6.15039 5.65636 6.15703 5.65523 6.17732C5.65343 6.20963 5.65284 6.25532 5.6669 6.27327L5.68096 6.28763" stroke="#002D56" stroke-width="0.0161481" stroke-miterlimit="3.864"/>
<path d="M5.89221 5.51954L5.89633 5.54395L5.89048 5.55443L5.86483 5.55276L5.83477 5.55177C5.83477 5.55177 5.81792 5.55018 5.81353 5.54869C5.80914 5.5472 5.7945 5.5449 5.7945 5.5449C5.7945 5.5449 5.77275 5.51644 5.79563 5.49924C5.81851 5.48203 5.84209 5.46991 5.84652 5.46705C5.85094 5.46419 5.85314 5.46493 5.85314 5.46493" stroke="#002D56" stroke-width="0.0189028" stroke-miterlimit="3.864"/>
<path d="M5.89258 5.52539L5.89258 5.55298" stroke="#002D56" stroke-width="0.00756019" stroke-miterlimit="3.864"/>
<path d="M5.89701 5.54688C5.89701 5.54688 5.88988 5.57047 5.8937 5.58156C5.89752 5.59265 5.90435 5.62065 5.90548 5.6251C5.90624 5.62811 5.91207 5.65909 5.91539 5.6658C5.9187 5.67251 5.92631 5.70089 5.95021 5.70721C5.97412 5.71354 6.00079 5.70911 6.01602 5.699" stroke="#002D56" stroke-width="0.015125" stroke-miterlimit="3.864"/>
<path d="M5.94141 5.651C5.94141 5.651 5.95304 5.6468 5.95699 5.64846C5.96094 5.65012 5.97226 5.65143 5.97226 5.65143C5.97226 5.65143 5.98635 5.64889 5.99105 5.65023C5.99576 5.65156 6.00325 5.65158 6.00547 5.65133M5.95163 5.66593C5.95163 5.66593 5.9794 5.67129 5.99104 5.66645M5.99012 5.54811C5.99012 5.54811 6.01517 5.53793 6.03709 5.55395" stroke="#002D56" stroke-width="0.0113426" stroke-miterlimit="3.864"/>
<path d="M5.95927 5.54688C5.9612 5.55206 5.95747 5.56712 5.95421 5.57312C5.95095 5.57912 5.95001 5.58996 5.94793 5.59458C5.94585 5.59919 5.94323 5.60704 5.94336 5.61141C5.9435 5.61577 5.94352 5.61541 5.95031 5.61903C5.9571 5.62265 5.96188 5.61952 5.9671 5.61798C5.97233 5.61643 5.97697 5.61496 5.98167 5.61629C5.98637 5.61762 5.99318 5.61398 5.99306 5.60926C5.99294 5.60453 5.99148 5.59756 5.98832 5.59485C5.98516 5.59215 5.97841 5.5878 5.97841 5.5878" stroke="#002D56" stroke-width="0.00907408" stroke-miterlimit="3.864"/>
<path d="M5.91211 5.5493C5.9159 5.54875 5.93994 5.53543 5.9599 5.54916" stroke="#002D56" stroke-width="0.0113426" stroke-miterlimit="3.864"/>
<path d="M5.93293 5.56196C5.92386 5.5618 5.91648 5.56348 5.91644 5.56571C5.9164 5.56794 5.92372 5.56987 5.93279 5.57003C5.94186 5.57019 5.94925 5.56851 5.94929 5.56628C5.94933 5.56405 5.94201 5.56212 5.93293 5.56196Z" fill="#002D56" stroke="#002D56" stroke-width="0.00756019" stroke-miterlimit="3.864"/>
<path d="M5.94727 5.70661C5.94814 5.70692 5.94903 5.70719 5.94995 5.70743C5.97386 5.71375 6.00053 5.70933 6.01576 5.69922" stroke="#002D56" stroke-width="0.015125" stroke-miterlimit="3.864"/>
<path d="M5.88735 5.37545C5.88735 5.37545 5.82486 5.39377 5.83271 5.41776C5.84057 5.44175 5.84634 5.45268 5.85214 5.4607C5.85793 5.46873 5.86939 5.5 5.87298 5.50874C5.87657 5.51746 5.8744 5.53336 5.88896 5.52627C5.97167 5.48604 6.1497 5.55567 6.11141 5.55264C6.10109 5.55182 6.22666 5.57748 6.24724 5.56417C6.25167 5.5613 6.26052 5.55558 6.24604 5.53443C6.23776 5.52233 6.21257 5.49063 6.19496 5.47511C6.18331 5.46486 6.14951 5.44299 6.13939 5.42622C6.12927 5.40946 6.10499 5.39545 6.08668 5.3924C6.06838 5.38934 6.03544 5.3818 6.01049 5.38304C5.98555 5.38428 5.97824 5.38204 5.96506 5.37975C5.97155 5.38088 5.90593 5.37307 5.88735 5.37545Z" stroke="#002D56" stroke-width="0.0151157" stroke-miterlimit="3.864"/>
<path d="M6.03847 6.67705C6.03847 6.67705 6.10432 6.71699 6.18215 6.67556C6.25466 6.63696 6.19562 6.66816 6.19562 6.66816M5.88281 6.68591C5.88281 6.68591 5.95569 6.71999 6.03052 6.68151" stroke="#002D56" stroke-width="0.0226852" stroke-miterlimit="3.864"/>
<path d="M6.01302 5.56399C6.00353 5.56301 5.99564 5.5641 5.9954 5.56643C5.99515 5.56876 6.00264 5.57145 6.01212 5.57243C6.02161 5.57342 6.0295 5.57233 6.02975 5.57C6.02999 5.56767 6.02251 5.56498 6.01302 5.56399Z" fill="#002D56" stroke="#002D56" stroke-width="0.00756019" stroke-miterlimit="3.864"/>
<path d="M5.91797 6.27687C5.96212 6.29315 6.03022 6.28871 6.07287 6.27539" stroke="#002D56" stroke-width="0.0226852" stroke-miterlimit="3.864"/>
<path fill-rule="evenodd" clip-rule="evenodd" d="M6.47852 7.13281H7.08391V7.21358H6.47852V7.13281Z" fill="#EED000" stroke="#002D56" stroke-width="0.00314815" stroke-miterlimit="3.864"/>
<path d="M0.0859375 12.834H24.9135V17.9476H0.0859375V12.834Z" fill="#B50027"/>
</g>
</g>
<defs>
<clipPath id="clip0_3454_138949">
<rect x="0.5" width="24" height="18" rx="4" fill="white"/>
</clipPath>
<clipPath id="clip1_3454_138949">
<rect x="0.0859375" y="-0.205078" width="24.8276" height="18.4091" rx="4" fill="white"/>
</clipPath>
</defs>
</svg>
