<svg width="25" height="18" viewBox="0 0 25 18" fill="none" xmlns="http://www.w3.org/2000/svg">
<g clip-path="url(#clip0_3454_138957)">
<g clip-path="url(#clip1_3454_138957)">
<path d="M0.0859375 -0.205078H24.9135V18.204H0.0859375V-0.205078Z" fill="#000F5D"/>
<path d="M14.9819 3.46166H15.5099L15.6841 2.95152L15.8455 3.46329H16.3772L15.9634 3.79425L16.1128 4.27902L15.6771 3.98734L15.2451 4.28066L15.3924 3.78975L14.9819 3.46166ZM17.2991 5.5112H17.8288L18.0026 5.00066L18.164 5.51202H18.6957L18.2819 5.84339L18.4313 6.32775L17.9956 6.03648L17.564 6.3302L17.7109 5.83929L17.2991 5.5112ZM18.5327 8.46075H19.0611L19.2349 7.95061L19.3962 8.46198H19.928L19.5142 8.79334L19.6636 9.2777L19.2278 8.98643L18.7962 9.28016L18.9431 8.78925L18.5327 8.46075ZM16.0209 9.45075H16.5493L16.7231 8.94102L16.8853 9.4532H17.4171L17.0033 9.78457L17.1527 10.2689L16.7198 9.97643L16.2862 10.2714L16.4331 9.78048L16.0209 9.45075ZM18.0543 11.7249H18.5819L18.7561 11.2147L18.9175 11.7265H19.4509L19.0371 12.0575L19.1865 12.5422L18.7507 12.251L18.3191 12.5443L18.466 12.0534L18.0543 11.7249ZM16.1939 14.2486H16.7219L16.8961 13.7388L17.0571 14.2502H17.5888L17.175 14.5816L17.3248 15.0659L16.8891 14.7747L16.4571 15.068L16.6044 14.5771L16.1939 14.2486ZM14.7725 12.2927H15.3005L15.4747 11.7826L15.6361 12.2943H16.1678L15.754 12.6253L15.9034 13.1097L15.4677 12.8188L15.0361 13.1121L15.183 12.6212L14.7725 12.2927ZM13.4236 15.8158H13.952L14.1258 15.3057L14.2871 15.8174H14.8193L14.4055 16.1484L14.5549 16.6327L14.1191 16.3419L13.6876 16.6352L13.8344 16.1443L13.4236 15.8158ZM10.083 15.8158H10.611L10.7852 15.3057L10.9462 15.8174H11.4783L11.0645 16.1484L11.2164 16.6323L10.7807 16.3415L10.3474 16.6348L10.4947 16.1439L10.083 15.8158ZM8.89128 12.2927H9.41928L9.59348 11.7826L9.75486 12.2943H10.2866L9.8728 12.6253L10.0222 13.1097L9.58645 12.8188L9.15445 13.1121L9.30176 12.6212L8.89128 12.2927ZM7.30728 14.2486H7.83528L8.00948 13.7388L8.17045 14.2502H8.70259L8.2888 14.5816L8.43817 15.0659L8.00245 14.7747L7.57045 15.068L7.71776 14.5771L7.30728 14.2486ZM5.48162 11.7249H6.00962L6.18383 11.2147L6.34521 11.7265H6.87693L6.46314 12.0575L6.61252 12.5422L6.1768 12.251L5.7448 12.5443L5.89211 12.0534L5.48162 11.7249ZM5.07031 8.46075H5.59831L5.77252 7.95061L5.93348 8.46198H6.46562L6.05183 8.79334L6.20121 9.2777L5.7659 8.98643L5.3339 9.28016L5.4808 8.78925L5.07031 8.46075ZM7.62962 9.45075H8.15762L8.33183 8.94102L8.49321 9.45239H9.02328L8.60948 9.78375L8.75886 10.2681L8.32314 9.97684L7.89445 10.2714L8.04176 9.78048L7.62962 9.45075ZM6.32907 5.5112H6.85707L7.03128 5.00107L7.19266 5.51243H7.72438L7.31059 5.84379L7.45997 6.32816L7.02424 6.03689L6.59266 6.33061L6.73955 5.8397L6.32907 5.5112ZM8.66411 3.46166H9.19211L9.36631 2.95152L9.52728 3.46329H10.0578L9.64397 3.79425L9.79335 4.27902L9.35762 3.98775L8.92562 4.28107L9.07293 3.79016L8.66411 3.46166ZM11.8276 2.60543H12.356L12.5298 2.0957L12.6911 2.60707H13.2233L12.8095 2.93843L12.9589 3.42279L12.5236 3.13152L12.0916 3.42484L12.2385 2.93393L11.8276 2.60543ZM15.262 4.41811L13.7012 6.61657L13.6044 6.54866L15.1656 4.35102L15.262 4.41811Z" fill="#D59F0F"/>
<path d="M17.4951 5.95833L13.8682 7.33737L13.8268 7.22774L17.4533 5.84869L17.4951 5.95833ZM18.3272 8.60433L13.9166 8.08192L13.9307 7.96492L18.3417 8.48774L18.3272 8.60433ZM11.8365 13.3813H12.3645L12.5387 12.8711L12.7001 13.3825H13.2318L12.818 13.7139L12.9674 14.1982L12.5317 13.9049L12.0997 14.1995L12.247 13.7086L11.8365 13.3813ZM11.671 4.99492H12.3239L12.5399 4.36328L12.7386 4.99492H13.3952L12.8859 5.40401L13.0704 6.0021L12.5325 5.64333L11.9983 6.00537L12.1799 5.39828L11.671 4.99492ZM11.6569 8.52005L11.6536 8.51596C11.1484 7.8561 11.6623 7.61596 11.6726 7.14714C12.007 7.76078 11.517 7.95142 12.0992 8.52046L11.6569 8.52005Z" fill="#D59F0F"/>
<path d="M12.2143 8.51997C12.0364 8.27247 11.9114 7.8777 11.9661 7.61997C12.0207 7.36225 12.1999 7.1082 12.173 6.91306C12.2673 7.13275 12.384 7.13315 12.3563 7.29475C12.4978 6.87788 12.5578 6.55838 12.9985 6.53711C12.5334 7.20638 13.4772 7.77829 12.7916 8.52079L12.2143 8.51997Z" fill="#D59F0F"/>
<path d="M12.9418 8.52014C13.5712 7.76946 12.7705 7.38491 13.5005 7.04741C13.5269 7.26914 13.3482 7.26914 13.4272 7.54078C13.4419 7.64112 13.4275 7.74351 13.3858 7.83614C13.4603 7.74614 13.6047 7.57637 13.6962 7.50887C13.4794 7.83205 13.8878 8.11514 13.3651 8.51728H12.9311M12.9902 10.4048C13.0234 9.56823 13.2046 9.31337 13.5476 8.9636H11.5316C11.8734 9.31378 12.0542 9.56864 12.0857 10.4052C12.3875 10.4039 12.689 10.4037 12.9902 10.4048ZM12.5351 12.447L12.7987 13.2652L12.9439 10.8405H12.13L12.2694 13.266L12.5351 12.447ZM12.5309 16.1112C12.6472 16.0049 12.6803 15.6576 12.6803 15.6576L12.7527 14.2392L12.533 14.0866L12.3129 14.2392L12.3828 15.6567C12.3828 15.6567 12.4142 16.0028 12.5305 16.1104L12.5309 16.1112ZM13.7094 8.81346L11.3674 8.811V8.59091L13.7098 8.59337L13.7094 8.81346ZM13.1392 10.7669H11.9036V10.492H13.1392V10.7669ZM6.72583 8.60319L11.136 8.08078L11.1224 7.96378L6.71094 8.4866L6.72583 8.60319ZM7.56377 5.95719L11.1907 7.33623L11.232 7.2266L7.60556 5.84755L7.56377 5.95719ZM9.80983 4.41778L11.3707 6.61623L11.4675 6.54832L9.90583 4.35069L9.80983 4.41778ZM12.4627 5.86023V6.32946H12.5822V5.85982L12.4627 5.86023ZM11.5573 4.68655L11.1174 4.46196L11.148 4.40305L11.5891 4.6256L11.5585 4.68491M11.6305 4.52578L11.2751 4.18582L11.3276 4.13469L11.7468 4.2165C11.7553 4.21789 11.7638 4.2198 11.772 4.22223C11.7789 4.22405 11.7857 4.22623 11.7923 4.22878L11.5027 3.95346L11.5478 3.90805L11.9032 4.2476L11.8536 4.29832L11.4274 4.2165L11.4079 4.2116L11.3885 4.20464L11.6781 4.47996L11.6305 4.52578ZM12.0058 3.71987L11.8982 3.76078L12.0352 4.1081L12.1428 4.06719C12.163 4.06103 12.1815 4.05017 12.1966 4.03551C12.2117 4.02084 12.2231 4.00281 12.2297 3.98291C12.2408 3.93408 12.2351 3.88297 12.2136 3.83769C12.1984 3.79174 12.1679 3.75223 12.1271 3.7256C12.1086 3.71548 12.088 3.70983 12.067 3.70912C12.0459 3.70841 12.0249 3.71265 12.0058 3.7215M11.9947 4.18991L11.8167 3.73255L11.9922 3.66505C12.0188 3.65288 12.0477 3.64658 12.077 3.64658C12.1063 3.64658 12.1352 3.65288 12.1618 3.66505C12.2172 3.6974 12.2586 3.74882 12.2781 3.80946C12.3062 3.87015 12.3115 3.93876 12.293 4.00296C12.2827 4.03071 12.2662 4.0558 12.2447 4.07634C12.2232 4.09689 12.1973 4.11236 12.1689 4.1216L11.9959 4.18828M12.461 4.0496L12.4221 3.56196L12.4891 3.55664L12.5285 4.04387L12.4614 4.04919M12.7639 3.84832L12.9154 3.87696L12.881 3.65073L12.7639 3.84832ZM12.5847 4.02096L12.8582 3.57505L12.9311 3.58896L13.0188 4.1036L12.9472 4.0901L12.9236 3.93669L12.7325 3.90028L12.653 4.03405L12.5847 4.02096ZM13.068 4.12937L13.3474 3.72641L13.4082 3.76732L13.3958 4.1895V4.21487C13.3958 4.22264 13.3937 4.2296 13.3925 4.23573L13.6188 3.90846L13.6718 3.94446L13.3925 4.34782L13.332 4.30691L13.3432 3.87819V3.85814C13.3432 3.8516 13.3457 3.84505 13.3474 3.83769L13.1206 4.16496L13.068 4.12896M13.6829 4.39528L13.7657 4.52414L13.9097 4.34496L13.6838 4.39528M13.4334 4.38382L13.9478 4.27869L13.9891 4.33923L13.6689 4.75405L13.63 4.6931L13.7268 4.57037L13.6234 4.40673L13.4702 4.44069L13.433 4.3826" fill="#D59F0F"/>
</g>
</g>
<defs>
<clipPath id="clip0_3454_138957">
<rect x="0.5" width="24" height="18" rx="4" fill="white"/>
</clipPath>
<clipPath id="clip1_3454_138957">
<rect x="0.0859375" y="-0.205078" width="24.8276" height="18.4091" rx="4" fill="white"/>
</clipPath>
</defs>
</svg>
