<svg width="25" height="18" viewBox="0 0 25 18" fill="none" xmlns="http://www.w3.org/2000/svg">
<g clip-path="url(#clip0_3454_138977)">
<g clip-path="url(#clip1_3454_138977)">
<path d="M24.9135 -0.205078H0.0859375V18.204H24.9135V-0.205078Z" fill="#041E42"/>
<path fill-rule="evenodd" clip-rule="evenodd" d="M2.23635 3.77584C1.53628 6.08316 4.35118 7.94752 6.2686 6.27466C8.27944 4.18726 6.03541 1.36795 3.70505 2.26792C5.40585 1.9788 6.41965 3.92163 5.27598 5.13391C4.1713 6.24954 2.15677 5.51641 2.23635 3.77584ZM14.5192 3.48979C14.4299 3.53078 14.364 3.65009 14.3264 3.74424C14.2371 4.0071 14.1452 4.26941 14.0554 4.5318C14.0086 4.6498 13.9634 4.76987 13.9162 4.88694C13.8296 4.87539 13.9503 4.7291 13.9437 4.6665C13.9723 4.53801 14.0359 4.41241 14.0414 4.28128C14.0196 4.18309 14.0436 4.05566 13.9943 3.97575C13.9207 4.14364 13.8274 4.30445 13.7641 4.47613C13.7165 4.68214 13.6526 4.88448 13.6258 5.09468C13.6099 5.2035 13.5905 5.3108 13.5548 5.41512C13.4667 5.40699 13.4899 5.25344 13.4381 5.19014C13.3911 5.04226 13.2963 4.9143 13.2279 4.77548C13.1929 4.7411 13.1125 4.49938 13.114 4.63408C13.1061 4.73141 13.0993 4.82883 13.0903 4.92607C12.8945 4.56419 12.698 4.20263 12.5019 3.84088C12.5179 3.95839 12.5014 4.08506 12.5446 4.19609C12.6397 4.39878 12.7266 4.60514 12.8175 4.80972C12.7697 4.85445 12.76 4.78053 12.7361 4.75048C12.555 4.43424 12.3738 4.118 12.1926 3.80175C12.1194 3.85258 12.1704 3.94627 12.161 4.01955C12.1908 4.12229 12.2597 4.2143 12.3066 4.31161C12.3924 4.47022 12.4805 4.62806 12.5686 4.78501C12.5054 4.8538 12.4711 4.65901 12.4259 4.61513C12.262 4.33414 12.0999 4.05213 11.9312 3.77395C11.8573 3.79921 11.8344 3.85274 11.8469 3.92356C11.8346 3.99451 11.8644 4.05486 11.9059 4.11188C12.0326 4.32879 12.1606 4.54502 12.2884 4.76133C12.2451 4.81104 12.2319 4.73843 12.2066 4.70937C12.001 4.38761 11.7953 4.06585 11.5896 3.74409C11.5396 3.72184 11.4688 3.66245 11.4848 3.76105C11.461 3.88448 11.5967 3.97077 11.6411 4.07753C11.824 4.35734 12.0125 4.63868 12.1947 4.91577C12.1565 4.96659 12.1391 4.90169 12.1145 4.87379C11.9989 4.71172 11.8833 4.54966 11.7677 4.38759C11.7246 4.37649 11.6691 4.34877 11.6854 4.418C11.6825 4.46195 11.6707 4.5083 11.7084 4.5414C11.8933 4.81575 12.0817 5.08871 12.2644 5.36393C12.3237 5.48383 12.3778 5.60734 12.4403 5.72501C12.5459 5.83244 12.6515 5.93986 12.7571 6.04729C12.6813 6.10762 12.6045 5.91611 12.529 5.88153C12.449 5.79256 12.3415 5.72146 12.2964 5.60755C12.2415 5.52279 12.21 5.42158 12.1254 5.35959C12.0317 5.29008 11.9597 5.16345 11.851 5.13198C11.8159 5.20858 11.8445 5.38089 11.9498 5.44008C11.9603 5.46864 12.1078 5.56689 12.0268 5.54674C11.8679 5.52949 11.7187 5.47453 11.5698 5.42027C11.4799 5.50559 11.7846 5.57389 11.6136 5.60868C11.4899 5.61035 11.3944 5.49945 11.2814 5.45836C10.9995 5.30599 10.7107 5.16565 10.4225 5.02593C10.3627 5.00809 10.3029 4.99024 10.2431 4.9724C10.2264 5.07558 10.3895 5.1047 10.4437 5.17767C10.6623 5.29438 10.8863 5.40497 11.1054 5.5222C11.0983 5.5873 11.0389 5.53808 10.9992 5.53179C10.5892 5.40127 10.1792 5.27074 9.76921 5.14022C9.70034 5.12394 9.71235 5.15967 9.74021 5.20561C9.74708 5.25872 9.80046 5.26136 9.84212 5.27672C10.164 5.38349 10.4855 5.49116 10.8075 5.59736C10.8202 5.64751 10.8308 5.69818 10.8419 5.74871C10.7687 5.68913 10.6966 5.621 10.5964 5.61456C10.3868 5.56324 10.1708 5.60675 9.9583 5.60915C9.8449 5.58228 9.8302 5.67277 9.94313 5.69208C10.0339 5.7618 10.1509 5.72265 10.2564 5.72819C10.4279 5.72312 10.5995 5.71769 10.7711 5.71164C10.8014 5.80829 10.6035 5.74361 10.596 5.82209C10.5763 5.91528 10.7541 5.9153 10.8183 5.89624C10.9165 5.89787 10.9845 5.75408 11.0679 5.77857C11.0461 5.8708 10.8823 5.8914 10.8637 5.98683C10.8514 6.08242 11.0487 6.05428 11.1054 6.01344C11.1713 5.95935 11.2847 5.87768 11.2907 6.02258C11.3099 6.15352 11.485 6.10282 11.5802 6.14716C11.75 6.17275 11.9238 6.18337 12.0919 6.21086C12.2528 6.28304 12.4143 6.35468 12.5748 6.42721C12.5418 6.51728 12.4003 6.38072 12.327 6.38603C12.2054 6.3525 12.0935 6.28431 11.9645 6.28306C11.8529 6.26281 11.7408 6.26516 11.6288 6.27804C11.2896 6.30607 10.9496 6.3288 10.6108 6.36013C10.2955 6.41277 9.97932 6.4632 9.66403 6.51472C9.58393 6.53931 9.40978 6.58572 9.57655 6.61768C9.93456 6.60107 10.2918 6.57128 10.6492 6.54458C10.675 6.60637 10.5983 6.58528 10.5598 6.59515C10.2626 6.62497 9.9654 6.65479 9.66819 6.68461C9.5767 6.7515 9.45459 6.78831 9.40471 6.89773C9.41904 7.0535 9.61629 6.91105 9.71401 6.92141C9.97118 6.87867 10.2273 6.8382 10.4753 6.75977C10.5492 6.7656 10.7338 6.63518 10.745 6.72888C10.4647 6.81438 10.1836 6.90106 9.90086 6.97854C9.84066 6.99244 9.78046 7.00635 9.72026 7.02025C9.70269 7.16333 9.92157 7.07988 10.0108 7.10262C10.207 7.05726 10.394 6.97899 10.5879 6.92461C10.6913 6.91621 10.848 6.79637 10.9229 6.84558C10.8564 6.91279 10.7017 6.94824 10.6051 7.00385C10.4055 7.09014 10.2032 7.16938 10.0087 7.26736C9.88066 7.39565 10.1448 7.38387 10.2097 7.31744C10.4174 7.22323 10.6226 7.12377 10.8273 7.02231C10.8775 7.06334 10.8037 7.08295 10.7776 7.11111C10.6616 7.20084 10.5485 7.29367 10.4192 7.36424C10.3691 7.40401 10.2872 7.41789 10.2774 7.49078C10.391 7.55463 10.4995 7.47719 10.6013 7.42694C10.8674 7.25663 11.1365 7.09004 11.4074 6.92759C11.5245 6.87574 11.6446 6.83085 11.7635 6.78345C11.8095 6.8288 11.7344 6.84257 11.7059 6.86919C11.5752 6.95565 11.444 7.04153 11.3136 7.12836C11.1711 7.27412 11.042 7.43442 10.8737 7.55273C10.7952 7.61764 10.7151 7.6761 10.653 7.74768C10.53 7.87008 10.4025 7.98812 10.2805 8.11162C10.2425 8.23637 10.1614 8.35365 10.1704 8.48748C10.1719 8.63159 10.1554 8.77727 10.1691 8.92039C10.1841 8.97986 10.2188 9.11546 10.2305 8.97991C10.2371 8.91793 10.2804 8.70421 10.3268 8.85417C10.3524 8.91027 10.3775 9.0794 10.4077 9.05006C10.452 8.96326 10.4602 8.8415 10.5315 8.77571C10.5951 8.81236 10.6452 8.90279 10.7058 8.79875C10.7826 8.71034 10.7712 8.57745 10.8094 8.46981C10.8423 8.33014 10.8754 8.1905 10.9085 8.05087C10.9687 8.03365 10.9545 8.10571 10.9695 8.14269C10.9887 8.22877 11.008 8.31485 11.0273 8.40094C11.1586 8.34464 11.105 8.16906 11.1474 8.05797C11.1558 7.97473 11.1826 7.75553 11.273 7.92284C11.3261 8.0488 11.4733 7.9036 11.4688 7.81201C11.4989 7.66688 11.5276 7.52148 11.5584 7.37649C11.5978 7.44595 11.6389 7.51446 11.6792 7.58344C11.8164 7.57715 11.8636 7.44112 11.9526 7.36049C12.0325 7.27841 12.1039 7.18331 12.1926 7.11189C12.2937 7.06036 12.3885 6.99151 12.4925 6.94715C12.594 7.03991 12.4408 7.16514 12.3832 7.2447C12.2545 7.4019 12.0957 7.53138 11.9609 7.68358C11.9077 7.74427 11.8245 7.79521 11.8469 7.88554C11.9145 7.91533 11.985 7.94241 12.0531 7.97263C11.9502 8.02359 11.8397 8.06742 11.7448 8.12912C11.6529 8.2077 11.5537 8.27744 11.4574 8.35049C11.4313 8.41962 11.4145 8.49768 11.518 8.46893C11.5918 8.45636 11.7907 8.48757 11.6344 8.55949C11.4875 8.65441 11.3174 8.71366 11.172 8.80762C11.1317 8.86078 11.0236 8.9442 11.1553 8.94044C11.2433 8.92793 11.375 8.79542 11.4403 8.86251C11.3479 8.96351 11.228 9.06096 11.1269 9.16187C11.0753 9.20129 10.961 9.31091 11.0287 9.34172C11.189 9.26595 11.3016 9.12353 11.4382 9.01502C11.4862 8.93965 11.6148 8.87269 11.5741 9.01963C11.4155 9.21479 11.2623 9.4155 11.0991 9.60556C11.1155 9.79642 11.2397 9.55078 11.3008 9.49957C11.3962 9.38828 11.4848 9.26903 11.6095 9.18766C11.6528 9.17837 11.7669 9.01762 11.7729 9.08333C11.77 9.13798 11.7871 9.19899 11.7401 9.24152C11.6415 9.3729 11.5756 9.5232 11.4949 9.66527C11.4815 9.72661 11.4677 9.90284 11.5573 9.81971C11.6641 9.62295 11.7943 9.43893 11.8783 9.23058C11.9644 9.05188 12.0225 8.86007 12.0947 8.67687C12.1555 8.58723 12.1852 8.61761 12.1767 8.71131C12.1865 8.79846 12.1828 8.98492 12.2436 8.9981C12.3543 8.74822 12.4931 8.51191 12.6111 8.26576C12.6519 8.14565 12.7004 8.02769 12.7508 7.91085C12.8144 7.90427 12.7852 7.97246 12.7914 8.01207C12.7872 8.09152 12.7999 8.17374 12.7852 8.2515C12.7166 8.44606 12.6652 8.64673 12.5697 8.83091C12.5117 8.94935 12.4298 9.05609 12.3738 9.17519C12.3177 9.24749 12.3385 9.24803 12.4018 9.20553C12.5137 9.15488 12.5888 9.05991 12.6664 8.96954C12.7884 8.87279 12.6978 9.0928 12.6697 9.13947C12.6033 9.32549 12.5604 9.52067 12.4852 9.7044C12.4843 9.76007 12.4648 9.88806 12.5365 9.79008C12.6712 9.68598 12.7202 9.51923 12.8008 9.37699C12.8496 9.44755 12.9416 9.48833 12.9861 9.40132C12.9786 9.29143 12.9273 9.17754 12.9774 9.07111C13.0268 8.89508 13.0674 8.71571 13.0953 8.53528C13.1087 8.42557 13.1162 8.31463 13.1299 8.20531C13.1916 8.17387 13.1655 8.27077 13.1705 8.30756V8.55846C13.231 8.56503 13.342 8.45906 13.3736 8.5286C13.3125 8.58031 13.2193 8.61233 13.164 8.66857C13.1617 8.7386 13.1593 8.80863 13.157 8.87867C13.2323 8.83336 13.3076 8.78806 13.383 8.74276C13.4364 8.77991 13.3656 8.80561 13.3413 8.83632C13.2795 8.89333 13.2177 8.95035 13.1559 9.00736C13.1549 9.05679 13.1538 9.10621 13.1528 9.15563C13.2052 9.13935 13.2579 9.12422 13.3101 9.10724C13.353 9.15558 13.2789 9.16648 13.2482 9.19168C13.2134 9.22358 13.1353 9.22907 13.1466 9.28906C13.1427 9.43991 13.1371 9.59067 13.1309 9.74146C13.1585 9.68755 13.2556 9.55776 13.2414 9.55039C13.2096 9.61202 13.0937 9.61615 13.1726 9.55202C13.2054 9.51262 13.3842 9.38677 13.3211 9.51253C13.2595 9.60029 13.206 9.71712 13.1414 9.78921C13.123 9.78745 13.101 9.91645 13.1567 9.89097C13.2029 9.92208 13.3456 9.93626 13.2471 9.99041C13.2049 10.0323 13.1521 10.0695 13.1164 10.1142C13.1193 10.2404 13.0871 10.4507 13.1121 10.524C13.1497 10.4717 13.2737 10.3771 13.2477 10.3524C13.1954 10.3771 13.0361 10.3653 13.1476 10.3252C13.2155 10.2998 13.4053 10.2926 13.284 10.3983C13.2194 10.5122 13.0656 10.548 13.0946 10.6726C13.0952 10.7645 13.0571 10.8206 13.1709 10.8038C13.3011 10.7925 13.3102 10.9179 13.1928 10.9523C13.1121 10.9988 13.0416 10.9958 13.0903 11.1016C13.1155 11.1711 13.2891 11.218 13.2455 11.29C13.239 11.2088 13.2205 11.3213 13.1756 11.2398C13.1203 11.1962 13.0491 11.0926 13.0725 11.2301C13.0623 11.4923 13.0519 11.7546 13.0414 12.0169C13.0961 12.0003 13.1932 12.0761 13.1941 12.1112C13.1377 12.1629 13.003 11.937 13.038 12.1159C13.0399 12.1965 13.0185 12.3455 13.0351 12.383C13.0622 12.3604 13.1053 12.425 13.1387 12.4361C13.1767 12.4621 13.2147 12.4881 13.2528 12.5142C13.2318 12.5781 13.1872 12.5122 13.1515 12.4952C13.1096 12.4665 13.0677 12.4378 13.0257 12.4091C13.0356 12.5158 12.9882 12.7119 13.0316 12.7671C13.0811 12.8032 13.2104 12.9069 13.2072 12.9648C13.1432 12.9817 13.0508 12.793 13.0105 12.8038C13.0043 12.9629 12.9986 13.1221 12.9924 13.2812C13.0596 13.3035 13.1957 13.39 13.2312 13.4444C13.1705 13.4953 13.0423 13.3064 12.9898 13.3304C12.9802 13.459 12.9881 13.5904 12.9694 13.7175C12.9448 13.8099 13.2022 13.7871 13.1466 13.8814C13.0516 13.8505 12.9198 13.7162 12.9191 13.8898C12.8988 14.0281 12.7714 14.1694 12.8706 14.3005C12.9087 14.4069 13.031 14.4523 13.1226 14.5064C13.2307 14.4895 13.3345 14.4367 13.4472 14.4325C13.6132 14.4071 13.782 14.398 13.9474 14.3715C14.0173 14.3211 14.104 14.2736 13.9986 14.209C13.9147 14.1072 13.9346 13.9621 13.886 13.8464C13.8858 13.7524 13.8663 13.7115 13.7826 13.7794C13.7169 13.7922 13.6149 13.9306 13.5777 13.8444C13.6758 13.7975 13.7648 13.7364 13.8641 13.691C13.8523 13.5678 13.8283 13.4454 13.8308 13.3214C13.7523 13.3714 13.6364 13.4754 13.5611 13.4611C13.5918 13.3918 13.7419 13.3613 13.8058 13.2884C13.8522 13.2878 13.8219 13.2226 13.8298 13.1842C13.8287 13.0768 13.8277 12.9695 13.8266 12.8622C13.7539 12.9433 13.6669 13.0011 13.5569 13.0187C13.475 12.9479 13.6818 12.9734 13.7085 12.9132C13.758 12.8579 13.8494 12.8235 13.8249 12.7371C13.8241 12.6422 13.8233 12.5473 13.8224 12.4524C13.7585 12.4944 13.6413 12.6449 13.5795 12.5826C13.6463 12.5237 13.7909 12.4675 13.8212 12.3794C13.8199 12.2562 13.8185 12.1329 13.8172 12.0097C13.7483 12.1007 13.6542 12.1631 13.5428 12.1918C13.4882 12.2517 13.3767 12.1985 13.4878 12.1685C13.5962 12.133 13.7057 12.0941 13.7731 11.9967C13.8344 11.9643 13.8138 11.9066 13.816 11.8468C13.815 11.759 13.8141 11.6712 13.8131 11.5834C13.6836 11.6969 13.5666 11.8228 13.4382 11.9376C13.3705 11.867 13.5638 11.8058 13.5912 11.7358C13.6552 11.66 13.7636 11.5868 13.8129 11.5217C13.8119 11.4259 13.8109 11.3302 13.8099 11.2344C13.7606 11.2795 13.6807 11.3367 13.7818 11.2828C13.8271 11.3332 13.7476 11.3383 13.7143 11.3602C13.6684 11.3814 13.6224 11.4024 13.5767 11.4238C13.5288 11.3349 13.7316 11.2914 13.772 11.2132C13.8267 11.2265 13.8065 11.1755 13.809 11.1229C13.8082 11.056 13.8075 10.9892 13.8068 10.9224C13.7392 11.0442 13.6043 10.9736 13.4968 10.9515C13.4173 10.945 13.4921 10.9211 13.5251 10.9017C13.6103 10.8564 13.6955 10.8112 13.7808 10.7659C13.8288 10.8139 13.7496 10.823 13.7174 10.8464C13.667 10.8728 13.6166 10.8991 13.5662 10.9255C13.6607 10.9778 13.7766 10.9443 13.8056 10.8536C13.8058 10.6931 13.8011 10.5354 13.7933 10.3747C13.7186 10.4488 13.6757 10.53 13.5829 10.5631C13.6263 10.5432 13.8054 10.569 13.685 10.6001C13.6159 10.6138 13.3854 10.6225 13.5467 10.5355C13.6291 10.5035 13.6826 10.444 13.735 10.3757C13.7973 10.3402 13.7967 10.3162 13.7883 10.2437C13.784 10.1449 13.7798 10.0461 13.7756 9.94738C13.7378 9.99335 13.5767 10.1192 13.6178 10.119C13.666 10.089 13.855 10.0803 13.7426 10.1342C13.6706 10.1297 13.5148 10.2289 13.4892 10.142C13.5896 10.085 13.6634 9.99599 13.7472 9.91752C13.7964 9.92375 13.764 9.85238 13.7702 9.80827C13.7581 9.51178 13.746 9.2153 13.7339 8.91882C13.6868 8.96023 13.4892 9.11801 13.5614 8.96139C13.6099 8.90654 13.6592 8.81058 13.713 8.79192C13.7482 8.77407 13.716 8.70933 13.7242 8.67268C13.7324 8.58193 13.6764 8.50463 13.649 8.42133C13.6471 8.38729 13.5826 8.3278 13.6374 8.31772C13.6972 8.36788 13.7254 8.5041 13.7739 8.5847C13.8475 8.75317 13.9315 8.91794 13.9964 9.08973C14.0322 9.23268 14.0703 9.37517 14.0755 9.52319C14.1123 9.50994 14.1809 9.53187 14.1783 9.47519C14.1869 9.41943 14.2277 9.36194 14.1919 9.30856C14.0306 8.87462 13.8472 8.44935 13.6766 8.01896C13.7171 7.97743 13.7305 8.03406 13.7464 8.06778C13.8456 8.26329 13.9104 8.47358 13.993 8.67636C14.0769 8.89622 14.1651 9.11484 14.2661 9.32757C14.4215 9.2382 14.293 9.07815 14.271 8.94812C14.1984 8.71031 14.1002 8.48088 14.0161 8.24685C13.9911 8.20526 13.9365 8.18574 13.9002 8.15262C13.8467 8.11361 13.7918 8.07409 13.7391 8.03543C13.783 7.95361 13.8802 8.09745 13.9475 8.10456C14.0631 8.22504 14.0916 8.03986 14.1943 8.01858C14.223 8.12298 14.028 8.20747 14.1318 8.32804C14.2067 8.5805 14.2738 8.83551 14.373 9.08005C14.3894 9.12413 14.406 9.16814 14.4223 9.21225C14.3888 9.25991 14.4365 9.46388 14.5049 9.41129C14.5283 9.30119 14.5996 9.19221 14.5391 9.08092C14.4503 8.74543 14.3284 8.41954 14.2258 8.08801C14.2271 7.96718 14.3035 8.13951 14.312 8.19145C14.4299 8.50815 14.5576 8.82194 14.6618 9.14327C14.6397 9.23766 14.6404 9.43728 14.7649 9.32448C14.7705 9.19846 14.7805 9.06941 14.7274 8.95074C14.6196 8.667 14.5339 8.37495 14.4379 8.08691C14.3831 8.14585 14.28 8.0894 14.264 8.02431C14.2824 7.88119 14.1629 7.8852 14.055 7.89438C14.0077 7.88983 14.1374 7.82294 14.1526 7.79862C14.2109 7.76693 14.3352 7.66995 14.2153 7.64393C14.177 7.62654 14.1389 7.60872 14.1005 7.59168C14.1577 7.49436 14.2169 7.39884 14.2927 7.31414C14.3394 7.23001 14.3039 7.07906 14.2134 7.02776C14.1477 6.99207 14.1551 6.9098 14.1291 6.84884C14.0948 6.81294 14.1292 6.74377 14.1565 6.79581C14.1736 6.85381 14.1907 6.91181 14.2078 6.9698C14.3067 7.02227 14.3526 7.10839 14.3503 7.21695C14.3954 7.31827 14.2765 7.37974 14.2327 7.45644C14.2065 7.494 14.1845 7.53449 14.1599 7.57314C14.2149 7.5988 14.2712 7.62213 14.3254 7.64933C14.3368 7.75165 14.1582 7.81929 14.1713 7.85422C14.3447 7.80823 14.2394 8.04709 14.3703 8.06667C14.4148 8.06624 14.4534 8.02252 14.4955 8.00434C14.5706 8.01837 14.464 8.05296 14.4817 8.08613C14.6216 8.46226 14.7653 8.83871 14.8982 9.21637C14.8856 9.35301 15.0172 9.37085 15.0992 9.42744C15.1106 9.50028 15.1458 9.63862 15.2236 9.60892C15.2269 9.41404 15.2393 9.21803 15.2398 9.02384C15.2511 8.95731 15.1367 8.79609 15.2304 8.78806C15.2831 8.94044 15.3527 9.089 15.3888 9.24585C15.4143 9.34773 15.3636 9.51323 15.5114 9.52839C15.5766 9.55461 15.5261 9.32045 15.596 9.38419L15.7116 9.4748C15.868 9.47851 15.7517 9.30895 15.7543 9.22255C15.7051 9.10164 15.6584 8.97925 15.6095 8.85807C15.6823 8.82829 15.5704 8.86862 15.5915 8.7914C15.5747 8.67184 15.4963 8.58192 15.4262 8.48845C15.3964 8.42511 15.3984 8.35007 15.3428 8.44004C15.2767 8.49418 15.3058 8.58347 15.3522 8.64054C15.4277 8.75598 15.4202 8.90852 15.5144 9.01288C15.5558 9.08011 15.6114 9.14792 15.597 9.23132C15.6007 9.26972 15.6038 9.34605 15.5554 9.30909C15.5489 9.24394 15.5731 9.17348 15.5323 9.12171C15.4823 9.02463 15.4107 8.96405 15.3908 8.85499C15.3692 8.74533 15.3073 8.65159 15.2606 8.55229C15.2711 8.52818 15.105 8.56551 15.1179 8.51419C15.1638 8.50782 15.1557 8.48781 15.2336 8.50492C15.2925 8.45565 15.2919 8.36283 15.2523 8.30107C15.1741 8.12779 15.0536 7.97589 14.9659 7.80789C14.9438 7.69825 14.9879 7.56326 14.8815 7.48685C14.7716 7.38105 14.716 7.23835 14.6545 7.10262C14.5839 7.00533 14.469 6.94801 14.3869 6.85964C14.3422 6.87363 14.1737 6.87882 14.2574 6.82893C14.3727 6.78335 14.452 6.84839 14.5254 6.92553C14.6091 6.98983 14.6979 7.05633 14.7259 7.16193C14.7781 7.28523 14.846 7.39929 14.9427 7.49389C15.0278 7.57294 14.9838 7.6993 15.0065 7.80068C15.1114 7.98865 15.2516 8.16025 15.3221 8.3649C15.3068 8.45441 15.3471 8.33626 15.3901 8.34669C15.386 8.24533 15.4217 8.10829 15.3554 8.01381C15.2862 7.88656 15.2056 7.76387 15.143 7.63389C15.0994 7.54112 15.0461 7.42509 14.9975 7.32384C14.9465 7.20683 14.8725 7.1018 14.8024 6.99554C14.8722 6.92334 14.9086 7.13134 14.9628 7.16749C15.0848 7.38076 15.1615 7.61637 15.2948 7.82364C15.3337 7.91463 15.4162 7.99444 15.4336 8.09133C15.447 8.14926 15.4104 8.33689 15.4579 8.32133C15.4817 8.27611 15.5058 8.2311 15.5293 8.18575C15.5673 8.16794 15.6425 8.17929 15.6517 8.13817C15.6648 8.01172 15.536 7.91967 15.5231 7.79554C15.4867 7.62622 15.418 7.46609 15.3329 7.31545C15.2415 7.11709 15.1073 6.94091 15.035 6.73385C15.0159 6.61306 15.1149 6.76726 15.117 6.82365C15.1873 6.98187 15.2901 7.12402 15.3627 7.28177C15.4319 7.4101 15.4981 7.53951 15.5362 7.68082C15.5622 7.8137 15.6177 7.93654 15.6876 8.05293C15.6997 8.10604 15.686 8.14742 15.7318 8.15225C15.753 8.20105 15.6502 8.17635 15.6908 8.2511C15.7025 8.29791 15.6786 8.4747 15.6431 8.37409C15.6462 8.29112 15.6857 8.15619 15.5659 8.21973C15.5339 8.24708 15.5217 8.29925 15.4972 8.33591C15.477 8.38576 15.4015 8.38225 15.4529 8.45298C15.5201 8.55198 15.6096 8.64007 15.6272 8.76332C15.6414 8.87322 15.7338 8.94766 15.7896 9.04263C15.8502 9.10416 15.9213 9.29257 15.982 9.25875C16.0092 9.14175 15.9052 9.06368 15.8672 8.96204C15.7859 8.7901 15.7122 8.6147 15.6345 8.44109C15.6976 8.48609 15.778 8.5123 15.814 8.58614C15.9584 8.77635 16.1005 8.96851 16.249 9.15563C16.4045 9.22948 16.309 9.03779 16.2615 8.97751C16.1428 8.74081 15.9804 8.52908 15.8402 8.30458C15.8098 8.27388 15.7124 8.12453 15.8034 8.17051C15.9633 8.36572 16.1233 8.56093 16.2833 8.75615C16.3374 8.79266 16.435 8.82307 16.4025 8.73214C16.2653 8.48444 16.0906 8.25954 15.9379 8.021C15.7781 7.79638 15.6425 7.55627 15.4991 7.32089C15.5746 7.26055 15.6735 7.41205 15.7576 7.43187C15.8921 7.50447 16.0119 7.59722 16.122 7.70204C16.3075 7.86153 16.4858 8.03031 16.6786 8.1809C16.7747 8.23292 16.8496 8.32381 16.953 8.35769C16.9547 8.32338 16.8473 8.19451 16.8924 8.19535C17.0007 8.22551 17.1031 8.26996 17.2031 8.31941C17.2701 8.35203 17.4798 8.43001 17.3747 8.29489C17.3413 8.22729 17.182 8.19069 17.208 8.11734C17.2376 8.10162 17.2856 8.151 17.3223 8.16032C17.4064 8.21034 17.501 8.23303 17.5976 8.2465C17.7388 8.24025 17.6501 8.09488 17.5547 8.09393C17.3359 7.97867 17.1187 7.86001 16.9009 7.74303C16.9461 7.6526 17.0938 7.79617 17.179 7.79142C17.2287 7.77594 17.4115 7.8131 17.3475 7.72779C17.3205 7.695 17.2645 7.69391 17.2257 7.67395C16.9273 7.56708 16.6283 7.46154 16.3302 7.35384C16.203 7.26915 16.0737 7.18705 15.9459 7.10365C15.9654 7.02622 16.0936 7.12598 16.1573 7.11807C16.269 7.14691 16.3812 7.17072 16.4972 7.16934C16.5717 7.17137 16.7279 7.19009 16.755 7.17784C16.7057 7.15151 16.488 7.08923 16.6123 7.05567C16.6746 7.05187 16.8705 7.04798 16.7035 7.04183C16.585 7.02967 16.4612 7.03385 16.3469 7.00275C16.3615 6.96091 16.4207 6.97667 16.498 6.98479C16.5823 7.01339 16.7533 6.96439 16.7863 7.03437C16.87 7.06087 17.0171 7.02683 17.1249 7.03328C17.274 7.02031 17.4381 7.04066 17.5779 7.00424C17.6266 6.92922 17.7723 6.90489 17.7696 6.80752C17.7599 6.71717 17.7588 6.62403 17.7438 6.53538C17.7128 6.50188 17.7062 6.43378 17.6537 6.43074C17.5128 6.40789 17.3781 6.36962 17.2446 6.32219C16.9666 6.31549 16.6875 6.31796 16.4104 6.3016C16.3206 6.29582 16.2136 6.37623 16.1104 6.37058C15.951 6.38642 15.7882 6.3734 15.6336 6.42213C15.574 6.46783 15.4911 6.4019 15.5866 6.39014C15.706 6.35889 15.8269 6.33752 15.9508 6.33938C16.0768 6.33539 16.2035 6.3261 16.3204 6.27509C16.392 6.22704 16.4079 6.30866 16.4219 6.21957C16.4874 6.195 16.6972 6.21239 16.6478 6.14407C16.3889 6.15276 16.1299 6.15585 15.8709 6.16055C15.7778 6.15144 15.659 6.20834 15.5668 6.25218C15.4588 6.29536 15.5479 6.1871 15.6147 6.18423C15.7294 6.11701 15.872 6.13367 15.9834 6.06067C16.1574 5.9805 16.321 5.87903 16.4906 5.79092C16.5346 5.75237 16.6572 5.69228 16.5275 5.67981C16.4257 5.6566 16.3169 5.71457 16.2115 5.71576C16.0724 5.74005 16.2116 5.62024 16.2639 5.59715C16.4263 5.51461 16.5852 5.42435 16.7405 5.32864C16.7898 5.29146 16.9352 5.2661 16.8884 5.20406C16.7567 5.24753 16.6264 5.30974 16.4916 5.34614C16.446 5.35688 16.2393 5.38215 16.3414 5.30245C16.5399 5.17283 16.7353 5.03845 16.9321 4.9065C16.9977 4.81942 16.9502 4.81719 16.8715 4.85274C16.7804 4.88017 16.7124 4.95384 16.6275 4.99668C16.5984 5.04718 16.4351 5.08995 16.5218 5.00245C16.6097 4.9269 16.6956 4.84882 16.7874 4.7778C16.8338 4.71396 16.8813 4.56192 16.7553 4.63356C16.6741 4.67583 16.5697 4.68213 16.5131 4.7602C16.4132 4.86295 16.3113 4.96495 16.2125 5.06815C16.1403 5.00119 16.3271 4.92735 16.3501 4.85645C16.4312 4.76459 16.5167 4.67526 16.5895 4.57703C16.6049 4.49648 16.6085 4.43977 16.5258 4.49589C16.4856 4.51299 16.4454 4.53008 16.4052 4.54718C16.4173 4.63027 16.2389 4.71704 16.1823 4.79943C16.0865 4.88027 15.9562 4.91423 15.872 5.01049C15.8046 4.93941 15.9899 4.88545 16.0375 4.8437C16.1723 4.77889 16.2634 4.65684 16.3718 4.5585C16.2532 4.5823 16.1164 4.57746 16.0469 4.69441C15.8672 4.86326 15.6924 5.03806 15.5085 5.202C15.2843 5.35568 15.0565 5.50629 14.8264 5.64987C14.7211 5.69177 14.5716 5.65733 14.5217 5.78281C14.4338 5.90505 14.3297 6.0144 14.2317 6.12863C14.337 6.1057 14.4371 6.12949 14.5322 6.17566C14.6236 6.20728 14.7013 6.26976 14.7889 6.30881C14.7693 6.39485 14.6493 6.46007 14.5548 6.44429C14.4954 6.44269 14.4419 6.403 14.3848 6.38603C14.3905 6.31833 14.4485 6.37295 14.4873 6.38253C14.5634 6.42328 14.6667 6.4074 14.7228 6.34062C14.6935 6.28121 14.5382 6.2212 14.4481 6.18801C14.3663 6.13941 14.2725 6.17285 14.1838 6.17393C14.0789 6.19748 14.2131 6.10558 14.2286 6.06968C14.3448 5.94063 14.4559 5.80757 14.5566 5.66634C14.5493 5.5621 14.6663 5.48845 14.7052 5.39227C14.8197 5.22536 14.8789 5.02864 14.9667 4.84728C15.0041 4.77162 14.9848 4.68324 14.9946 4.60137C14.9918 4.55695 15.0077 4.50853 14.992 4.46687C14.9104 4.61517 14.8266 4.76334 14.7483 4.91268C14.6518 4.91819 14.7383 4.76703 14.7661 4.72778C14.8403 4.57962 14.9239 4.43398 14.9932 4.28469C14.9952 4.22221 14.9972 4.15973 14.9992 4.09724C14.9368 4.04356 14.9053 4.22671 14.8557 4.26963C14.7472 4.4483 14.6469 4.63292 14.5338 4.80824C14.5227 4.86752 14.4028 4.91059 14.4509 4.82663C14.6126 4.53253 14.7786 4.23951 14.9445 3.94851C15.0111 3.83165 14.9897 3.69521 14.9992 3.56701C14.9353 3.46717 14.8907 3.62074 14.8395 3.66041C14.774 3.74084 14.7499 3.84646 14.6996 3.93679C14.618 4.11206 14.5333 4.2862 14.4504 4.46069C14.3576 4.4229 14.504 4.2859 14.5052 4.20885C14.5847 4.00564 14.6639 3.80228 14.7431 3.59892C14.7034 3.51736 14.6143 3.73258 14.5723 3.78219C14.4967 3.94906 14.409 4.11028 14.3254 4.2733C14.2361 4.2348 14.38 4.09913 14.3761 4.02526C14.4193 3.90175 14.4763 3.77942 14.5181 3.65761C14.5118 3.61163 14.5777 3.4921 14.5192 3.48979ZM15.0919 5.70547C15.1125 5.78671 14.9887 5.82374 14.9378 5.88667C14.8738 5.91029 14.645 5.9658 14.7435 6.01667C14.8086 5.98257 14.8738 5.94875 14.9388 5.91447C15.022 5.99253 15.1479 6.07607 15.138 6.19527C15.059 6.21487 15.0927 6.04212 14.9986 6.02606C14.9552 5.95187 14.9004 5.97081 14.842 6.01163C14.7955 6.03637 14.7482 6.05939 14.7024 6.08539C14.6247 5.98048 14.7109 5.8957 14.8226 5.88318C14.9335 5.86607 14.9981 5.77163 15.0815 5.70855L15.0838 5.70669L15.0919 5.70547ZM15.6814 5.93198C15.6891 6.02367 15.526 5.98368 15.482 6.06103C15.4108 6.09505 15.3389 6.19953 15.2753 6.19864C15.2052 6.18513 15.3596 6.11813 15.3842 6.08042C15.4732 6.00996 15.5639 5.94504 15.6814 5.93198ZM16.4375 6.29027C16.4194 6.30733 16.4321 6.30394 16.4375 6.29027V6.29027ZM14.3015 6.37985C14.3981 6.41579 14.5011 6.43863 14.583 6.50467C14.6887 6.54165 14.6937 6.6612 14.7244 6.75146C14.7274 6.80961 14.6765 6.99464 14.6232 6.95505C14.6447 6.86976 14.7213 6.76466 14.6566 6.6671C14.6481 6.55986 14.5355 6.53006 14.4592 6.47836C14.4018 6.45822 14.3443 6.43808 14.2869 6.41794C14.2918 6.40524 14.2966 6.39255 14.3015 6.37985ZM17.0238 6.39014C17.2201 6.39809 17.4181 6.40658 17.6132 6.42515C17.635 6.44787 17.574 6.44924 17.583 6.46119C17.3302 6.4498 17.0774 6.41942 16.8243 6.44014C16.7058 6.42507 16.6023 6.51456 16.4823 6.4893C16.4183 6.50168 16.2711 6.46791 16.3718 6.44162C16.4868 6.45436 16.6038 6.45574 16.7111 6.40702C16.8127 6.38873 16.9203 6.40095 17.0238 6.39014ZM16.7218 6.55282C16.9246 6.58137 17.1283 6.59916 17.3333 6.59672C17.4625 6.60387 17.6136 6.59109 17.7297 6.61145C17.7104 6.6965 17.53 6.61445 17.4529 6.63986C17.2252 6.63718 16.9971 6.63721 16.7718 6.60018C16.7282 6.6014 16.7146 6.59461 16.7218 6.55282ZM16.9415 6.77727C17.025 6.86322 17.1444 6.87869 17.2645 6.8594C17.4059 6.85036 17.5506 6.8882 17.6877 6.83618C17.8069 6.82521 17.679 6.90249 17.6166 6.89481C17.4781 6.92356 17.3366 6.88555 17.1967 6.90288C17.0849 6.94198 16.9933 6.84883 16.9131 6.8281C16.8531 6.86315 16.7872 6.87075 16.7194 6.86582H16.427C16.4073 6.80159 16.4822 6.83087 16.5211 6.82463C16.6185 6.82394 16.7162 6.82601 16.8134 6.8236C16.8556 6.80727 16.8967 6.78569 16.9415 6.77727ZM12.9601 6.90803C13.0616 6.94933 12.8776 7.04869 12.9076 7.11403C12.9121 7.18258 12.9203 7.23128 12.9528 7.1366C12.9677 7.09231 12.9815 7.04765 12.9976 7.00378C13.0386 7.07068 13.0926 7.10812 13.1705 7.1088C13.2038 7.16528 13.2198 7.29329 13.2548 7.17503C13.2869 7.114 13.3117 7.04348 13.358 6.99348C13.4331 7.03591 13.3476 7.18694 13.3694 7.26427C13.3632 7.38615 13.3894 7.50812 13.372 7.63031C13.3828 7.70305 13.3102 7.88819 13.441 7.79991C13.4861 7.77868 13.4921 7.71577 13.5197 7.67596C13.5698 7.58015 13.5513 7.46344 13.584 7.36208C13.681 7.33748 13.5929 7.62865 13.6865 7.53628C13.7138 7.43775 13.64 7.35474 13.6319 7.24573V7.05217C13.6968 7.03267 13.6672 7.10667 13.6735 7.14515C13.6687 7.22274 13.677 7.29987 13.711 7.37134C13.818 7.42844 13.8008 7.23173 13.886 7.1922C13.9787 7.15557 13.9266 6.96444 14.0203 6.98525C14.0116 7.10303 13.9452 7.20046 13.8631 7.28074C13.8294 7.33687 13.8137 7.47231 13.7173 7.41768C13.7872 7.48861 13.7078 7.63743 13.6214 7.61227C13.6023 7.54922 13.6008 7.4754 13.5906 7.58319C13.5876 7.67313 13.524 7.7443 13.4913 7.82539C13.4126 7.86809 13.2712 7.91486 13.3229 7.77023C13.3325 7.61527 13.3439 7.46016 13.3246 7.30545C13.3228 7.25463 13.3508 7.09478 13.3253 7.12621C13.2891 7.1985 13.2546 7.27209 13.2184 7.34458C13.1736 7.27835 13.1915 7.12199 13.0854 7.13784C13.0266 7.12629 13.0059 7.05691 12.9914 7.15101C12.9653 7.17884 12.933 7.33439 12.8862 7.26427C12.8748 7.17869 12.8819 7.04579 12.7831 7.14998C12.7649 7.08043 12.7477 7.01063 12.73 6.94098C12.7883 6.90602 12.7779 6.98486 12.7934 7.02088C12.7901 7.13913 12.918 7.02389 12.9331 6.9626C12.942 6.94437 12.951 6.92619 12.9601 6.90803ZM14.5931 7.43003C14.7041 7.65242 14.8218 7.87224 14.9409 8.09103C15.0053 8.24628 15.083 8.39789 15.1102 8.56498C15.0847 8.64432 15.2739 8.75196 15.1815 8.77262C15.0795 8.6938 15.069 8.56861 15.0409 8.45344C14.9743 8.24798 14.8782 8.0521 14.7716 7.86376C14.6947 7.72856 14.6294 7.58802 14.5577 7.45062C14.5695 7.44376 14.5813 7.43689 14.5931 7.43003ZM14.3661 7.67301C14.4722 7.68504 14.2696 7.79419 14.4016 7.80648C14.47 7.81756 14.4523 7.91311 14.5143 7.92917C14.6702 7.93798 14.4974 8.15724 14.6577 8.12501C14.7346 8.18487 14.6537 8.33981 14.7743 8.37931C14.8745 8.42695 14.8461 8.54438 14.893 8.62576C14.9041 8.68814 14.9402 8.67873 14.9838 8.64797C15.0162 8.62675 15.081 8.59367 15.0688 8.65225C15.0123 8.68003 14.9557 8.70769 14.8993 8.73555C14.8543 8.64936 14.8142 8.56052 14.8045 8.46271C14.7162 8.39708 14.6363 8.32408 14.6501 8.20418C14.6711 8.11223 14.4939 8.20588 14.5407 8.09014C14.6021 7.97253 14.4647 7.98766 14.4363 7.90872C14.4285 7.82954 14.3084 7.84247 14.3015 7.77288C14.3212 7.7385 14.3461 7.70732 14.3661 7.67301ZM13.7297 8.80865C13.7123 8.85986 13.5457 9.01363 13.6689 8.91645C13.7326 8.87833 13.7417 8.90312 13.7302 8.81861L13.7299 8.81146L13.7297 8.80865ZM13.7048 9.17416C13.8252 9.19444 13.555 9.30904 13.613 9.31193C13.6484 9.28655 13.7239 9.28979 13.6847 9.33383C13.6261 9.35165 13.5675 9.36947 13.509 9.38728C13.4653 9.29482 13.6572 9.24869 13.7027 9.17622L13.7048 9.17416ZM13.7173 9.56849C13.8161 9.57153 13.6631 9.67031 13.635 9.71264C13.5271 9.79935 13.7633 9.62666 13.7443 9.71242C13.6991 9.74377 13.5351 9.84579 13.4784 9.78932C13.5494 9.7095 13.651 9.65738 13.7173 9.56849ZM13.1236 9.92164C13.1182 9.99689 13.1036 10.0915 13.1768 9.99793C13.2583 9.94851 13.1683 9.95071 13.1236 9.92164ZM13.0882 10.8328C13.0865 10.9035 13.0595 11.016 13.1538 10.9276C13.2237 10.8975 13.276 10.8433 13.1636 10.8442C13.1385 10.8402 13.1133 10.8367 13.0882 10.8328ZM13.0705 11.605C13.1334 11.6429 13.2939 11.6524 13.2898 11.7232C13.2448 11.7163 13.0785 11.6783 13.0705 11.6248V11.605ZM12.7841 14.2068C12.5382 14.2135 12.2913 14.2056 12.0458 14.214C11.9396 14.2809 11.817 14.3248 11.734 14.4216C11.6712 14.5089 11.8395 14.5836 11.926 14.5641C11.9696 14.5927 12.1253 14.5367 12.0989 14.6176C12.0581 14.7345 11.9252 14.755 11.8375 14.8256C11.7834 14.9367 11.9118 15.0747 12.0083 14.9687C12.0655 14.915 12.1148 14.9088 12.1553 14.9751C12.2223 15.027 12.1084 15.1667 12.2551 15.1592C12.3509 15.1115 12.4364 15.0281 12.5264 14.9649C12.5861 14.8895 12.6828 14.8056 12.7206 14.9481C12.8083 15.0222 12.9183 15.0038 13.0231 14.997C13.1518 14.9926 13.2935 14.9755 13.3674 14.8557C13.4877 14.7989 13.6024 14.9149 13.6631 15.008C13.7443 15.0607 13.8797 15.0677 13.8383 14.9341C13.8064 14.8467 13.834 14.7542 13.9403 14.8106C14.0567 14.8326 14.1471 14.9197 14.2588 14.9502C14.252 14.8662 14.2509 14.7081 14.3687 14.8156C14.4681 14.8867 14.5719 14.9557 14.692 14.9872C14.6963 14.9376 14.6831 14.8834 14.6993 14.8369C14.7765 14.7584 14.9311 14.9887 14.8972 14.8132C14.9133 14.753 14.8299 14.6199 14.9149 14.6289C15.0323 14.6779 15.1561 14.7117 15.2815 14.734C15.1985 14.5975 15.0503 14.5226 14.9243 14.4313C14.8025 14.3812 14.6739 14.3414 14.5407 14.3439C14.3969 14.331 14.2497 14.3369 14.1079 14.3161C14.0471 14.2724 14.0571 14.3114 14.0682 14.3242C13.9834 14.4443 13.8319 14.4211 13.7037 14.4437C13.5244 14.4607 13.3434 14.4784 13.1736 14.5414C13.0563 14.5565 12.9525 14.4542 12.8676 14.3828C12.8302 14.3317 12.8126 14.2645 12.7841 14.2068Z" fill="white"/>
</g>
</g>
<defs>
<clipPath id="clip0_3454_138977">
<rect x="0.5" width="24" height="18" rx="4" fill="white"/>
</clipPath>
<clipPath id="clip1_3454_138977">
<rect x="0.0859375" y="-0.205078" width="24.8276" height="18.4091" rx="4" fill="white"/>
</clipPath>
</defs>
</svg>
